<mxfile host="app.diagrams.net" modified="2023-09-07T07:04:29.972Z" agent="Mozilla/5.0 (Windows NT 10.0; Win64; x64) AppleWebKit/537.36 (KHTML, like Gecko) Chrome/116.0.0.0 Safari/537.36" etag="y2IrZBYCqzr8lhg2Fe5W" version="21.7.2" type="github" pages="2">
  <diagram id="C5RBs43oDa-KdzZeNtuy" name="模式1">
    <mxGraphModel dx="1014" dy="761" grid="1" gridSize="10" guides="1" tooltips="1" connect="1" arrows="1" fold="1" page="1" pageScale="1" pageWidth="827" pageHeight="1169" math="0" shadow="0">
      <root>
        <mxCell id="WIyWlLk6GJQsqaUBKTNV-0" />
        <mxCell id="WIyWlLk6GJQsqaUBKTNV-1" parent="WIyWlLk6GJQsqaUBKTNV-0" />
        <mxCell id="jZZy9cJ6slIVJ12cToO3-1" value="" style="shape=image;verticalLabelPosition=bottom;labelBackgroundColor=default;verticalAlign=top;aspect=fixed;imageAspect=0;image=data:image/png,iVBORw0KGgoAAAANSUhEUgAAAMgAAADICAYAAACtWK6eAAAAAXNSR0IArs4c6QAAEJRJREFUeF7tnXnwftUcx18ho8gy1iikUNmyRMrSQgYTsk/S2NNElsneoEER1ZSQRNZB09BinVC27ClFdrJmTSnZM+96fuY7z+9+v/dz7rnnPvc+531mfvP74/s5557z/tzXc+7ZPmcDnKyAFVhVgQ2sjRWwAqsrYED8dliBNRQwIH49rIAB8TtgBbop4B6km27OVYkCBqQSR7uZ3RQwIN10c65KFDAglTjazeymgAHppptzVaKAAanE0W5mNwUMSDfdnKsSBQxIJY52M7spYEC66eZclShgQCpxtJvZTQED0k0356pEAQNSiaPdzG4KGJBuujlXJQoYkPUdvRWwWSX+n2/mhcDPKm17Y7MNyNWy3As4DLg3cN3KX5C/Ap8HXgj8qHItMCBwMPDK2l+EVdq/H3BszdrUDojhaH/79wHe1262nBY1A7LF7BPimsvp2t5a9Rdgc+Cy3kqcUEE1A/J64CUT8tUiq/oU4D2LrMCinl0zIF+bDcoXpf2Unis4BEl1qWZAfgXcqjqPd2vwt2Yzfd1yTzhXzYD8DrjZhH03ZNU13XuHIR84lmcZkLF4Ytz1MCDj9k+R2rkHictqQOJaLY2lAYm70oDEtVoaSwMSd6UBiWu1NJYGJO5KAxLXamksDUjclQYkrtXSWBqQuCsNSFyrpbG8CLj5CFrzTeBLwCVzdbkBcH/gniOoowEZgROGrsKiANEKvrZunAl8GbiipeEbAfcDdgX2XtBhLgMy9Ns5gucNDYj2fh0EfCaz7Q8FDgG2yywnJfsPgTumZFgW25pX0ocC5PvAgcDHe35pHjM7BXm7nsttKs6ADCDy2B4xBCA6tnpk4YbrNKQOfpVMBqSkuiMtuyQgfwD0KaRdsEMkjU9OBjYp9DCPQQoJO+ZiS03z/mY2qB46OojGJJ8DblRAdANSQNSxF1kCkN8COy0wdM7dgC8W6EkMyNjf5gL16/sTS+FyFDZIg/JFJq2dfKHnChiQngWdQnF99iD/AXabxZMaQ9u1XtJnJBIDMgavDlyHPgFR0LmcABBXrtL2XWYLil2k+QiwZ5eMDXkMSE9CTqmYvgC5GLgtcGlG40sAoiOy3wP6CGtkQDKcO9WsfQHSx1pHCUDkl+OAZ/bgIAPSg4hTK6KPQbrK2LSHhpcCRHXTtHNu8kJhroITzN9HD6IV7Ff30PZSgKhqfYxF3IP04OSpFdFHD6J9UH0sCJYE5FHARzOd4x4kU8ApZs/tQfr8VS0JiLafKL7uNTKc1GdbM6oxfNaad/PmAnJ8TwNgeb0kICr/25nb4w3I8Gwu/Im5gOw7myXqoyGlAXkH8IyMihqQDPGmmjUXEO25Oqul8Tou+6YWG62h6F9T0vaVth3BOmvSZvMC4IgMRxmQDPFuCmiTnHaTXi+jnJJZjwH+OPeA3EH67YEft1RaM1yvKtmw2VmQtpk0Ha46KaMeTYP0WwLPyiizdFaNu84GzslZxM0ZgwiMo4Enlm5pD+VvC1zQMyBaqW67w28sgDwwY8uKZGsCRPc6fqMH3wxRhA6tvRz4e+rDugJyH+A0QJBMId1ptu1iZV1ze5CmMue1GAsgdwXOzXBU0yfWlABZB/mDgV+k6NAFEK3Oao/PDVMetGDbEoBoa3vbL+hYANEP2lczfLAMgKj55wN3SdGhCyD6nt8/5SEjsC3xiaXt7TrBt1YaCyC7A5/O8MPUP7FWNl2zee+MapEKiOy1e1VBzaaUmnqQ3FmspwEnBERoG0DfZo3rzfQZq4FmG4Rt1dCUdM51zk09yPbA19sePMK/nw7oByOUUgHZumGwG3rQgo1K9CCHzgZ+fTSt9DrI4YB2HXdNy9SDKFDfxlEhUgHR3L/CZE4tlRiDKACcBn19pNKAyGfyXde0LGOQde1Xrx0arKcCohCYCgowtVTiE+sfs09N/Z+bSgJy3Vnc35yDU8v0iSVfRdawrvJpKiA7zuLJ5r4QQ+cvAYjaoCOtikeVm0oC8mTgvZkVNCBBAXcAvhK0HZNZKUC0jfzRPTS0JCCfnQW+zqmmAQmqp7l/BWGeWioFyL9n+6h+nSlIKUC02q8wRKlfCvPNMSBBB09t9XRds0oBovK1GfFFQf1WMysFyLuAp2bWTdkNSFDEewR2jgaLGtSsJCCaNtQvte796JpKAKI2a3tJzuB8XXsMSNCz2rGrwzdTSyXWQVZq8EngYRmiNAGiYAuamv15x3K1iKfFvD7SMq2DSI9is1ja1q7tw1NLJXuQdVo8G3j7SITpe4uLe5CgY+8MnBe0HZNZiYXCpvZp1+yi9dEesdxbrObbtmwLhcV6EL1o2hE5tTREDyJNfg/cF/jpggTSCUYFrg5vpQjW0z1IUKjoXix9s2qDXFvSlvmmkDRafDuqLTOghcvXBexKj0FWVkGQaAGx7ThuoNpJJgrvo4DVJU515o5BpIdO+LUlfaJqwmNl0pUSe7VlnP39jKBdsR5Elf9BoBI6I60p4bakA1d6oebTW4DntGUG9gBODdgNCci66jxvduIyUL1sEwXPzp1qXqsSuYDcDNCtW21JV2LPX3ut3njLtoyzv682GzifvRggKlhitaUoIBJO2867AvII4JS2ygBDjUHmq6KeUOsQkV/PQDPWM9Gmuw8B2uFQMuWOQXQffdMP4XydmwBRYL7oRaULB0QV/UnAE1FAlrkHWSeTPhH2C4IckPb/JgqYoG3sJT6p5uvhHiTomS2CA9AoIMveg6yUVdurFZ9Kh6y6bk3ZZhbfSr1SibsIV3sN3IMEAVGXHlm4igJSQw/SJK2O6r4fOBG4vEV7/YjsM4seM/99HnRbtpl7kKCEmwG/DNgakIBIMxP1JhcC/5rLshGgHnsMkWMMSNCffQOyyE+s3DPpQcmWwix3HaSaQbqi6UW+n6M9iAGZBj8GJOinWwCalWlLBqRNoWn93YAE/bXaoHo++2XBbfEbzlbD5/NrJ2tbWE/luTGg/WFtaRELhW11mtLfc8cg2lUwP8Zqar8mIeanrRUuNHpITyFWI6nYQmEUkEglh7QZai/WkG0a8lm5PciQdY08qxgg+sWej5IeqdCibQxIngcMSFA/LU79OWg7JjMDkucNAxLUTyFHS+0rClahk5kB6STb/zMZkKB+uhDy0qDtmMwMSJ43DEhQP0Xp0wzV1JIByfOYAQnqdx1AUTzaUs0Hptq0meLfc6d5qzkwFQXEC4VTxGD1Ouf2INVsNbk2EAnWbEAMyEoFqgHkWsEVUQNiQKoE5BrAfwK+NyABkSZk4k+sBGdFzv0akARBJ2BqQBKc9N9AtHADkiDoBEwNSIKTFPK/LSCyAUkQdAKmBiTBSdq2rMH6WsmAJAg6AVMDkuAkTfNquteAJIg2cVMDkuDAvwEKKLBW0qnD4wJlauvKgQ123wA+Ech/x1m0jzbTRQWOa6vXVP6eG/ZHlwy1RW+RFor1temcKNocGwlDq2yvCgpa7DyInq+G9h0cOdiuzmbei9VZuqsy5vYgeU/vP3dRQP46UDS/PmUxIHlqGpAE/S4Brp9gPwZTA5LnBQOSoN/FgK4tmFIaOmiDPkMPBTSW+mdhoTRhotuHX1bw0zd3N29hCZKLL/qJpTPpOps+pTQ0IE3PK61XyevxDEiC93TPw00S7MdgOiQgbwYOWFCjjweeXuDZBiRB1CmG7BxymldTlYrivoikW72OLfDg3GneAlXKKrLoJ9ZFgPb3r5VqXknX1QTvznJf98xPmV2v0L2E5py5g/RqzoNIPkU9nF/MmZfVgPT9isbKMyAxnYr2IL8CbuUeZFUF3IOsL01VPYhuStrcgBgQ4OuxH+yrPsmruKNQeuiyl1sbEANiQJrfAd06elsDYkAMSPM7oFtu267l9SA9+O3Rs5kH6TFBiw7SNeW3lXsQ9yDuQZrfgR8AdzAgBsSANL8DFwBbGxADYkCa34HzAW3dWCvVfAXbMq6D5O7FquYKNkERASQ2VBrOasjzIMsISO5Wk+E8HXtS0UH6d4C7xOoxGisDkucKA5Kg3zmAzh5MKRmQPG8ZkAT9zgbunmA/BlMDkucFA5Kg3zcB3Wc9pWRA8rxlQBL00wa17RPsx2BqQPK8YEAS9PsqcJ8We281SRC0R1NvNYmJWXQW6yvADgZkVQU8zbu+NFVtd/8ysKMBMSBeSW9+B74I3M+AGBAD0vwOfB54gAExIAak+R04A9jZgBgQA9L8DnwW2NWAGBAD0vwOnA48yIAYEAPS/A58GtjdgBgQA9L8DnwKeIgBMSAGpPkd+Bjw8BZAfGAqtqLbt1WplXQfmErwVASQhOIGMfVerDyZvRcrQb9TgT0S7MdgakDyvGBAEvQ7GXhkgv0YTA1InhcMSIJ+HwH2TLAfg6kByfOCAUnQ7yTgMQn2YzA1IHleMCAJ+p0IPC5gfxhwRcDu2Q0X8ugWq8hNSbrAUpdXtqUhb5iqZbv7vWaXlLZpr7/rR/W7AcPdVtkIewSg68fb0jMCV3OojKLnQT4MPL6tprOLPv8csGsKAnEusF0g7ybApQE79yABkdYwye1BngjovWlLh6zyg6f7aHRxU1uKHOYrDsgHATW4LekmXAPSplK/fy+1DmJAEvz0AWCvgL0BCYjUs4kBaT8OXrwHeR+wd8CxBiQgUs8mBmQEgLwH2CfgWAMSEKlnEwMyAkBOAOSItmRA2hTq/+8GZASAvAvQVGZbMiBtCvX/dwMyAkCOB54e8K0BCYjUs4kBGQEgxwHPDDjWgARE6tnEgIwAkLcBWv1uS48Irn6qR9pyrjBdFKpV0ba0EfCJNiNgW0A3Y61MFzWs4AeKajVZxpX03PMgBwNntip3tc+f1GD3WOBPgfxvBbYJ2BVdSVcl9gtUYkwmXknP80buQmHe0/vPXRSQY4D9+69z0RINSJ68BiRBv6OB5ybYj8HUgOR5wYAk6HcUcECC/RhMDUieFwxIgn5HAs9PsB+DqQHJ84IBSdDvcOCFCfZjMDUgeV4wIAn6vRE4MMF+DKYGJM8LBiRBvzcAL06wH4OpAcnzggFJ0O9Q4KUJ9mMwNSB5XjAgCfq9FnhFgv0YTHVl3NfmKnI5sHGByi3jSrp2HWw6p5Ui/CvS/xRT0YXC1wAHTUwVjZtWfhYqrpfie5VIywiIdNoJOGuFYAqqsW8JAQcoMwmQVydWaJfADVOJRQ5i/k7gtNkNvZFIKF0rtayAKN6yItWcBzwhGJegq4al8+lErOIlbAgoMs6q/zYArixdm8rKX1ZAKnPj1c01IP273YD0r+nCSjQg/UtvQPrXdGElGpD+pTcg/Wu6sBINSP/SnwIoWuQikqJRTi3y/iJ0Cj/TgISlsmGNChiQGr3uNocVMCBhqWxYowIGpEavu81hBQxIWCob1qiAAanR625zWAEDEpbKhjUqYEBq9LrbHFbAgISlsmGNChiQGr3uNocVECA7h61taAUqU0CAOFkBK7CKAgbEr4YVWEMBA+LXwwoYEL8DVqCbAu5BuunmXJUoYEAqcbSb2U0BA9JNN+eqRAEDUomj3cxuChiQbro5VyUKGJBKHO1mdlPAgHTTzbkqUcCAVOJoN7ObAgakm27OVYkCBqQSR7uZ3RQwIN10c65KFDAglTjazeymgAHppptzVaKAAanE0W5mNwUMSDfdnKsSBQxIJY52M7spYEC66eZclSjwP82w0sNHg3ESAAAAAElFTkSuQmCC;" parent="WIyWlLk6GJQsqaUBKTNV-1" vertex="1">
          <mxGeometry x="580" y="119" width="50" height="50" as="geometry" />
        </mxCell>
        <mxCell id="jZZy9cJ6slIVJ12cToO3-10" style="edgeStyle=orthogonalEdgeStyle;rounded=0;orthogonalLoop=1;jettySize=auto;html=1;shape=flexArrow;startArrow=block;" parent="WIyWlLk6GJQsqaUBKTNV-1" source="jZZy9cJ6slIVJ12cToO3-2" target="jZZy9cJ6slIVJ12cToO3-6" edge="1">
          <mxGeometry relative="1" as="geometry" />
        </mxCell>
        <mxCell id="jZZy9cJ6slIVJ12cToO3-37" style="rounded=0;orthogonalLoop=1;jettySize=auto;html=1;entryX=0;entryY=0.25;entryDx=0;entryDy=0;" parent="WIyWlLk6GJQsqaUBKTNV-1" source="jZZy9cJ6slIVJ12cToO3-2" target="jZZy9cJ6slIVJ12cToO3-7" edge="1">
          <mxGeometry relative="1" as="geometry" />
        </mxCell>
        <mxCell id="jZZy9cJ6slIVJ12cToO3-2" value="" style="shape=image;verticalLabelPosition=bottom;labelBackgroundColor=default;verticalAlign=top;aspect=fixed;imageAspect=0;image=data:image/png,iVBORw0KGgoAAAANSUhEUgAAAMgAAADICAYAAACtWK6eAAAAAXNSR0IArs4c6QAAFBpJREFUeF7tnQWwNkexhh88SHCCuzsEDxIgwd2t8HshIYTgkIu7Ownu7pAAAYIFCISLu0twCH5xr7dqv8v5D/85O93f7Mhud9WppOrvaXln3m93Zmd6jkVIIBAIbInAsQKbQCAQ2BqBIEiMjkBgGwSCIDE8AoEgSIyBQMCHQDxBfLhFq4UgEARZSEdHmj4EgiA+3KLVQhAIgiykoyNNHwJBEB9u0WohCARBFtLRkaYPgSCID7dotRAEgiAL6ehI04dAEMSHW7RaCAJBkIV0dKTpQyAI4sMtWi0EgSDIQjo60vQhEATx4RatFoJAEGQhHR1p+hAIgvhwi1YLQSAIspCOjjR9CARBfLhFq4UgEARZSEdHmj4EgiA+3KLVQhAIgiykoyNNHwJBEB9u0WohCARBFtLRkaYPgSCID7dotRAEgiAL6ehI04dAEMSHW7RaCAJBkIV0dKTpQyAI4sNtjq12Ac624e+sw/+fHPgucPTwX/2//n4yRxA25xQEWUIvb53j5YFrDH+XNkLxC+AQ4B3AEcDPje27UA+CdNFNWYO8FbAXsDegp0QueSfwIeC9wKdyGa1tJwhSuwfK+b8LoL9LFHD5fEB/3RMlCFJgtFR2UZIYm1PtnihBkMqjd0L3epW6T6EnxlgaIsqDgWPGFFv79yBIaz2SJ577Ak/KYyqblc8D+w/zlGxGpzYUBJka4fL2nzkMxPKe0zzuAzwvTbW+VhCkfh/kiuCUwMeBc+UyOKEdkfiACe1nMx0EyQZlVUNXBj6QKYI/Ab/Z8Pdn4GSb/nK4Ohy4eg5DU9oIgkyJbhnbewIfXMPVX4Z5wfuAtwJfTbC1+rioAX7BBP2tVB4BPHyN9pM3DYJMDvGkDq40fMX2OPkicNBAinW2jVwGuCtwR08QwHUAfWRsUoIgTXZLUlBXdK4IfQ949kCOPyR5SlPSa95+wE3T1HfQuhjwOUe7yZsEQSaHeBIHVwA+7LD8AuAhwE8dbVObiCAvB06Y2mBYXLhui/u5giCGXmxEVRsMP+KIRR8Nn+po52lyVeA1wG6Gxm9yPn0MLuyqQRA7ZjVb7AEc6QjgRsNcw9HU3eR4w4T/HAYL1wPebtCfXDUIMjnE2Rx4yXGVNVe51k3go8DlEo0cClw/UbeIWhCkCMxrO9EA00CzipaAtQW9tnwNOE9iEE09RYIgib1WUe2ywMcc/rXK5ZmrOFyNNjk78AngVKOa0NRTJAiS0GMVVfSN4SiHf03kPU8ch6vkJtcEDkvUbuYpEgRJ7LEKajoCq71VVtFcxfPEsfrx6Ov7i76VjImWiW8/plTi34MgJVC2+7gU8L/2Zuh1zEMqhytXk/MNee060vpHwBldHjI3CoJkBjSDuUsO7+tWU3ri6D2/dXkscGBCkNrnpQ2NVSUIUhX+/3Cu8+KfdIQkUvVy/ltPBu0DUzmh7eQpgA5+VZUgSFX4d3DuJYfafbqdNJIieVvC9w6dQLxokrUJlYIgE4JrML278wlwceCzBj+tqGrby5MTgjkz8IMEvclUgiCTQZtsWIPc8wTQr6t+ZXsUnXr8RkLgNbbI7BBWECShlyZU0TbvzzjsX3h4j3c0babJF4ALjURzL+DpNSMOgtRDX08Az+uRBtWX6oWdzbM2Jeqw1HYicogk1SQIUgf6izgPCF0A+EqdkLN7fRVw6xGrOgKs16xqEgQpD71ejzxzB31k06a/ucjBwL4jyegJqzlaNQmClIXeSw7thE2Z1JbNZj1vjwMeOGLi18Ap1nOzXusgyHr4WVpr7qCJqVXODXzT2qgD/SBIB51UKkSVxtHXY6ucE/i2tVEn+vGK1UlHTR2mJtaeVSedodBNTnOVmKTPtWcNeZ0f+LJBf6Wqi21UnmfOEsu8c+7dhNy06uRZkj0L8P0E+72rxIfC3ntwjfjPm1jCc7OLMwE/XMNvL01jq0kvPTVBnFqS9XyvOAPw4wniadFkbFZssVcKxOQlx+kmrnZYIHWTi9juboJrHsr6XvF1RyqnBX7maNdrkzgw1WvPrRF36jv1ZhenabEe7Ro4pDSNI7cpKM1IRx/zPF+6VSPqlzPCISWVKNqQgtKMdFR39luOfHRd2q8c7XpvEmV/eu9BQ/z60u3ZBqJiBbribGkSheMW1ONnA77jyPekwP852vXeJEqP9t6Dhvi1DcSzR+okwO8NfuakGsWr59Sb2+TiJceJgZzXnfUEd1x/0FNvrRGr9kgd7Wivq8h0tfISRVdT6+7CVGmmaPUq4DgwldZ1qs/k2V17AkDXLC9RrOSIK9g6HSXaQOjZXasryP7Wac7rhm0lhwpuxyWe66Jeob22RXgq+x0X+HuFeFtwaSWHYo5roFvoOWMM2l3r2Xp+bOCfRl9zUfeQQ7Wx3tkqADEH2XnPnB7QHRVWWTKeHnI8Ani4FeSS+kvu0K1wDnLYR6CHHB8EdANv0xIE2bF7dC7Dc2hpyTjOlhwaGkvu2M2/XDqX8RPHz9mSMZw1OYIg/2bDbs4TfUsmx/sdr0hdvFZt/JFccgevcNChJc+JviVj915gL+PTtjtyxBMETg0cY+xoD24PG15nm16xScTh3YAu2LRIl+TwdLQFlNZ1daLv544grU+OhwJazpQ0v6w5gsdhgM51WKRbciyZIDrR9wtLLw+6VnI8BHjkJj+9kuQdwLWNmHVNjqUSpBQ5HgQ8eosB1RtJDgG009Yi3ZNjiQTRXROeQgnWJ8f/AI8ZGU29kES3PN3AwgxgFuRYGkF0FtxTKMFKjgMBlbZJkdZJ8mbHFWha/rWucKVgVUXH2vlVgszg9GSAbiuyihUf3Ziki2Es0ipJ3gDc1JIIcLhjhcvooqy6dQCUjS6PNxVK8FQRsWLzAODxzpBbI8nrgJsbc9Hyr3WFy+iivLp1EJSPcD2PuwK/dZiw4nJ/4AkOPxubtEKS1wC3NOai7epjVzobTbahbh0IbUSdFoWqiHhK7FgxuR/wxLSQRrVqkyTl1qfNSRwKXH80s04VrIOhlzRLkSO1jL8Ft1okeTlwW0uggKq039DQRkcJtPx9d0ObqqpzJIhK7PzOgaoVi3sDT3H4SWlSmiQvBW6fEtgGHa1w3cTQRuTQtWu7A5qv5XrqGkKwq1oHhd1D2RYnchZns+JwL+CpE6dWiiQvBu5ozOWNwM0MbTaSY9XsxsBbDDaqqFoHRpUgE52q/pSnOJsVg3sCT0uMaV01bW5c7eNa19bO2r8A+C+jYa1wWSbxOyPHymXzd8BbB4cRy2LquwB/dHiz5n8A8HSHn3WaTEWS5wF3MQb2auA2hjbbkUNm3gfsbbBXXNU6QIoHmOBQxdk8lQutud8DeEZCPFOo5CbJc4B9jIG+0jiJHyPHyr02c+o4QJNiHSStJXF84M+OoKx57w880+EnZ5NcJEm9o2Nj7C8D7mBIRmf7tftXE/IUUXnSI1IUS+tYB0rp+Lbzp8qFnrKe1pz3AzSoWpB1SSKSi+wWeQlwJ0MDKzlk+hPApQ0+iqlaB0uxwEYclSLH3YCDWkl6iMNLEs2dNIeyyAuB/zY08JBjZV7fR1I3eRpCWk+1R4KorOdfHWlbc90XONjhp0QTK0n0vUbfbSyiSbxlnrIOOVZx6Uo7z8VElrxMutZBYzI+gfJxnAWhrXlqYGgi27Kkfid5EnBfYyLKXU/PVMlBDvmyznVS43PrWQeO21GGhqp56ykIbc3xrsBzM8RbwsQYSbSBUhspLaL5lmWekoscqxj3AD5mCXhKXevgmTKW7Wwrzn84nFvz64kcKzi2IknqfeQbYdUytj6EpkpucsivTjDeKDWAqfWsA2jqeLay76mWbs2th9eqrfDZTBKdhdek1yLaHWCZp0xBjlW8zVyTbR1EFsBz6WrLunbnWsSaV4urVZZ8pbsiiT68qZqKRZ4MaNt+qkxJDsWgZWUtL1cX60AqHfCRgN5JLWLNSVuvn2Vx0LCuSGL9Kq1dtdpdmypTk0NxaBOjNjNWF+tgKhmwZzuENZ+a20dKYrmVL52fVwWWVClBjlUsTVxEZB1QqUCuq+eZD1hzqbHxcF1ccrbXPMXyKiZy6DzHJXIGsY2tqwGqAVxVrIOqRLB6pVIBAMu8w5pHifMcJbDy+rBuECxNDuWlumIP9iaYq511YOXyu50dFQC4lsGRNYcpjskawq2uOvbtZHOANcihGJooPmcdXFP3rs4aaFt1qljjz1lgITXGlvR6IccKM2v/Zse6egCbMjoKuExilrrfTr8yqZKjNE+qrxb1eiOHMKx+PXRLBLGcubCuvngqHrY4yL0x9UgO5aoqK5Y3Ci8+W7ZrhSD6cvpx4FwJGaoCh6XIQEoh6QS33ar0Sg4Bbv0hzN5JrRBE27dTPnDp7vJLGm6i1SrIo7Kj1o/BnskhlN/kqA+ctXdaIYjmEnsmZGbp8J1dXpPgYjYqFqxWSavCiSqdtCKfMRzbnSTmFghyTuCbCdlZnh56Gs3hPsAEWHaq4iFHiyTRnfVn8IKQo10LBEn91Urt9NTXtRz4tWgjFaftYk/tk6nz130ump9WkxYIovquKcWPU4qMadVDNWaXKjnI0dKTRNdW6OKjalKbIKk1rbQnR3tzxuSTBfcKjcVS+t9zkqMVkuiiVV3VXU1qE0SD/j0J2Wvv1FhFQ1UJVKGBJcoU5GiBJN8DzlqzQ2sT5NaA7qQYk/MA3xhR0jnmy44ZmuG/W8lxWuCqgC7KSZVac5LPDV/TU+PMrlebICmFoFPeQ/WBcYxA2cFrwKCHHKp4qC3r+nFqnSR6u7hGTZxrE0RbmscO7HwBuMgISHM4MmsdB+uQY+WrdZJYC9dZMRzVr02Q5ydU7tMv3nVHMtGR2W5uLRrtlXEFDzl02Em7EDZLyySpftFObYLo7PHYFV4pRcx0oYvltqPxIdiuRk5ytP4kud5wirFab9QmiN4xx5ZvdbXygSMI6QTi1auhWM7xFORomSRnBLSDoprUJkjKraopl7Z4LqCsBrrT8ZTkaJEk2n6kj8NVpTZBVKxsrJLfR4ArjqDkqT9bFXij8xLkaI0k1SfoAqQ2QVLOaqR8LNKFkq83Drpe1EuSoyWS3KKFPq1NEN09oZWsMRmLU9sRjhkz0uG/1yBHCyRRkfKTOi9lzdrNYwMvq7OdGNMKVspVwNccSgFtF0/qpsepc8plvyY5apNEbwN6glSX2gS5EKAPgWOSUlh5rxYKjY0lkvjvLZCjJkn0w6kfvOpSmyAC4NvA2UeQ+BIgMo2J597vMZul/70lctQgSROrV6vEWyBI6t152oiowg7bieYi7+p4y3uL5PCSJHV+ubk/VbtM1eabkBYIom0khyagocm8LrgZEy0JiyQnGlNs7N9bJkcpkvwS0MdBz733k3RnCwTZdahScuKEDLWX6FMJeim7hBPMFFPpgRwlSNLcTbctEETAvznx2q3Up4hsHg7sXWyI+x31RI4pSXL0MBf13CbmR3+kZSsEsRzISX2K6HShThm2LD2SYyqSqBigigI2Ja0QRKB8ALhyAjqqoaUNjn8b0T3IeJVxguusKj2TIzdJVNH/OlnRzWSsJYLoyi1V0kuRlH06Ov/QJOgb7hNMyVU6Oia71XmOVBtT6d0KeK3B+ObVLb1SaQn/ywYbxVRbIoiSFkFS76bbrpBDajGIYkBvcDSHJ8dm3NYhia7Ba/aOyNYIolcsvWqligab5hqqwLcSzTt0SY4KPbQmcyTHCmMPSdTfuhOmWWmNIALK+jX8t4Aqmnx9uJkqpUJ8jQ6ZMzm8JDluwlyyRl/9v88WCXKaYU/VWKGGqsAZnS+BHF6SGKEsq94iQYTAlYAjykIxmbclkWN2JGmVIAJa20qeO9mwLWPYSg5FpRW6O5cJb1Iv1jnJpMF4jbdMEOX0DECrHD2KhxyrPB86LAX3mPfGmLsnSesEEdgplU9aG0jrkGPja4oKVvQuXZOkB4JogPR058d+wMGZRvUFh9fMK2SyV8PMK4Db1XCcw2cvBFGu1wZUZbFV+etwn94hEwT4BEDXWPck2gp0QMYfiyq590QQAXTR4cNg6l3qpUDViUf9Sn56QocqjKeDRBee0Ecu0zrfo4NPX8tlsJad3gginHRqUKtbrZQa1Vb9fQpWVdH8RpP4FuW7w+vwy1oMzhNTjwRZ5amqF/sDl/cknqGNbr3SXCOlKksGdzuYOP9AklvmNuy0p5OAerrpXvNZSc8EWXXEvgNRNGhKyJEDMVpYYbrK8CpzrRKJ78THt4an+bNbOiabE4s5EER4qMiYniaaB0y1SfGo4SPei3J2QCZbpxuq5KsauhYzphRtT1c1ff1AvHVKRy3YngtBNmKpog3a7q46WXusCbJWzQ4bdhg3eV5hJ/ntMuS+5/D6uS4GcvEdQAfV9E1K51J+tyau3TSfI0E2gq8JvaoyauOjNkHuNvxX/68/iUqWrv5+Nvy/CkOIGNop3LscB9h9wOACw+GkMwF66uiW4WMPO2p/D2gu8VNA58NVn0qrc1qZU33kRcrcCbLITo2k8yEQBMmHZViaIQJBkBl2aqSUD4EgSD4sw9IMEQiCzLBTI6V8CARB8mEZlmaIQBBkhp0aKeVDIAiSD8uwNEMEgiAz7NRIKR8CQZB8WIalGSIQBJlhp0ZK+RAIguTDMizNEIEgyAw7NVLKh0AQJB+WYWmGCARBZtipkVI+BIIg+bAMSzNEIAgyw06NlPIhEATJh2VYmiECQZAZdmqklA+BIEg+LMPSDBEIgsywUyOlfAgEQfJhGZZmiEAQZIadGinlQyAIkg/LsDRDBIIgM+zUSCkfAkGQfFiGpRkiEASZYadGSvkQCILkwzIszRCBIMgMOzVSyodAECQflmFphggEQWbYqZFSPgSCIPmwDEszROBf7EH25+INmvkAAAAASUVORK5CYII=;" parent="WIyWlLk6GJQsqaUBKTNV-1" vertex="1">
          <mxGeometry x="180" y="119" width="50" height="50" as="geometry" />
        </mxCell>
        <mxCell id="jZZy9cJ6slIVJ12cToO3-28" style="edgeStyle=orthogonalEdgeStyle;rounded=0;orthogonalLoop=1;jettySize=auto;html=1;entryX=0;entryY=0.5;entryDx=0;entryDy=0;startArrow=classic;startFill=1;endArrow=none;endFill=0;" parent="WIyWlLk6GJQsqaUBKTNV-1" source="jZZy9cJ6slIVJ12cToO3-4" target="jZZy9cJ6slIVJ12cToO3-7" edge="1">
          <mxGeometry relative="1" as="geometry" />
        </mxCell>
        <mxCell id="jZZy9cJ6slIVJ12cToO3-34" value="4 申请受理" style="edgeLabel;html=1;align=center;verticalAlign=middle;resizable=0;points=[];" parent="jZZy9cJ6slIVJ12cToO3-28" vertex="1" connectable="0">
          <mxGeometry x="-0.0933" y="2" relative="1" as="geometry">
            <mxPoint y="-13" as="offset" />
          </mxGeometry>
        </mxCell>
        <mxCell id="jZZy9cJ6slIVJ12cToO3-41" style="edgeStyle=orthogonalEdgeStyle;rounded=0;orthogonalLoop=1;jettySize=auto;html=1;exitX=1;exitY=0.75;exitDx=0;exitDy=0;entryX=-0.072;entryY=0.756;entryDx=0;entryDy=0;entryPerimeter=0;" parent="WIyWlLk6GJQsqaUBKTNV-1" source="jZZy9cJ6slIVJ12cToO3-4" target="jZZy9cJ6slIVJ12cToO3-7" edge="1">
          <mxGeometry relative="1" as="geometry" />
        </mxCell>
        <mxCell id="jZZy9cJ6slIVJ12cToO3-43" style="edgeStyle=orthogonalEdgeStyle;rounded=0;orthogonalLoop=1;jettySize=auto;html=1;" parent="WIyWlLk6GJQsqaUBKTNV-1" source="jZZy9cJ6slIVJ12cToO3-4" target="jZZy9cJ6slIVJ12cToO3-2" edge="1">
          <mxGeometry relative="1" as="geometry" />
        </mxCell>
        <mxCell id="jZZy9cJ6slIVJ12cToO3-44" value="6 放款" style="edgeLabel;html=1;align=center;verticalAlign=middle;resizable=0;points=[];" parent="jZZy9cJ6slIVJ12cToO3-43" vertex="1" connectable="0">
          <mxGeometry x="-0.3285" y="-1" relative="1" as="geometry">
            <mxPoint as="offset" />
          </mxGeometry>
        </mxCell>
        <mxCell id="jZZy9cJ6slIVJ12cToO3-4" value="" style="shape=image;verticalLabelPosition=bottom;labelBackgroundColor=default;verticalAlign=top;aspect=fixed;imageAspect=0;image=data:image/png,iVBORw0KGgoAAAANSUhEUgAAAMgAAADICAYAAACtWK6eAAAAAXNSR0IArs4c6QAADDhJREFUeF7tnVvIrkUVx//SRSeCQiz0oizUyi4qLKTooBdtKwkq0KzsQNEZTILoUr0rCnZZQUF2oAzsZIRRdKAtSQeSMgyJspLCIiOjtKigAytmw3b3fd9e87xrzTPzzO8BcV/MrJn5rfl9633e9zmcJA4IQGBfAifBBgIQ2J8AgrA7IHAAAQRhe0AAQdgDEFhGgAqyjBu9JiGAIJMkmmUuI4Agy7jRaxICCDJJolnmMgIIsowbvSYhgCCTJJplLiOAIMu40WsSAggySaJZ5jICCLKMG70mIYAgkySaZS4jgCDLuNFrEgIIMkmiWeYyAgiyjBu9JiGAIJMkmmUuI4Agy7jRaxICCDJJolnmMgIIsowbvSYhgCCTJJplLiOAIMu40WsSAggySaJZ5jICCLKMG70mIYAg6yf6KZKeXv47JOnPko5IulnSdyX9cP0pzjsDBFkv9+dJeqOklxwwhX9IOizpGkm3rzfVeUdGkPa5f6WkyyU9uXLoGyS9V9I3K/vRfAcCCLIDvIquD5H01iLGyRX99mp6a6kqH9sxDt0dBBDEAWmHJmcXKV63Q4z9utq5ilWUqyXdnRCfkJIQJGcbPLeIcUFO+P+L+vEiy48bjTfNMAgSm+rXFzEeHxvWHe1bRZQvuXvQ8EACCLL7BjlV0luKGA/ePVxIhF8WUT4s6Z8hEScNgiDLE39OOfF+xfIQ6T3/VUT5oKRfpY+2wQEQpD6pLyzV4tn1XVft8TlJ75N006qzGGxwBPElzD46vbaI8Whfl25b/aBUlU93O8OOJoYgByfjTElvKGLcr6O8RUzl90WUj0q6KyLgFmMgyN5ZtY9PduJ90RaTvseaPiTJTuhvmWS97mUiyH1RvbSceJ/rJrithl+RZCf0X97WspavBkGkR0h6VfkYZV/Zcki3lY9f10r628xAZhbELha0E2/7KMWxN4G/FlE+IennM0KaUZALy4n3C2ZM+A5r/pSkj0i6cYcYw3WdRZAHSXp5qRZPHC5LfU3425LspH6Kr4m3LsgZRQy71Pxhfe2z4Wfza0kfkGSV5XfDr2afBWxVkGdJshuT7ByDI5+AXXZvJ/R2m/Cmjq0Jcomk10h6zqayNM5irpdkl95v5mriLQjycEmXSrJLzR87zl7a9EztQRN2Qm9V5S8jr3RkQZ5UxHizpAeOnIQNz/2P5YTezlN+OuI6RxTk+UUM+9WbYxwCdg+9VZShHjoxiiAPKFLYifczx9kTzHQPAl8v33xZVfl374R6F+QxRQw78X5U7zCZXxWBn0k6WlV+U9WzYeNeBXnGMSfevc6xYZo2PdTfywm9VZTv97bS3jbfxUUMLgPpbae0mc8XynmK/b+LowdBTim/dttXtXafNwcErJLYCb1VlT+tiWNNQeyaKLs+yk687ZJzDggcT+BOSZ8ssvxkDTxrCGIPVbNqYXJwQMBLwESxivI1b4eIdq0Euf8xH6POj5g4MaYlYL+j2Mcv+y/9mV/ZgtgTQKxSWMXgMpBp93TKwu2X+aPnKXekjJD4bF57mvm7ihj2bw4IZBG4p3z0eock+3fokVFBHleu6Jz1wQehCSKYm4B98/Xq6Gu+MgS5UtIV7mXREAJxBOw1E3YVcdiRIYg9YdxeL8YBgdYErpJkf6DDDgQJQ0mgDgggSAdJYAr9EkCQfnPDzDoggCAdJIEp9EtgCEHsBN1O1Dkg0JpA+Dl1eMBCxO7nsEfunH4CQnzb1XoLjTnekRNM257LZQ/tuDd6eVmCeOd5lqTrJNkDGDggcDyBb0iy3zbSLiU5EfK1BbH52SvN7HlKHBA4lsAvJD1v7Ydm9yCIQeHXd+Q4nsCLe/jD2YsgBsdeA2Z3F3JAwJ58cqgHDD0JYjzs7Ub2+rMn9ACHOTQlYO8isRf32P3o72w68gGD9SZIL1yYBwT+RwBB2AgQoIKwByCwjAAVZBk3ek1CAEEmSTTLXEZgREEeWn5A2uUhEF+UdMsyZFprfLtsx24p3eWwl9ss/VU6YvzPS7p1lwW07juaIHbt1uGgS1PsRZRvqgS+1viXS3q7pNMq53t8899Kend5tXNNqKjxbcz3S7qsZvA1244miP1OYi/MiTjsocmPlPSHimBrjf+joD8KtlSrnPaO+JojcvzbJZ1ZM/iabUcTJPp+d3uI3YmuFD02P2uN/5/gTVKb97XHD16+P1wtKH/knJZrbdCjq1lr/LU36Nrj5+wmR1QEoYI4tokQxEOpgzZr/QWngsQmf5g/zMNMtOQHQWI2am3eqSAx3NOjIEgMYgRxcqwF5Qyb1gxBYtDW5p0KEsM9PQqCxCBGECfHWlDOsGnNECQGbW3eqSAx3NOjIEgMYgRxcqwF5Qyb1gxBYtDW5p0KEsM9PQqCxCBGECfHWlDOsGnNECQGbW3eqSAx3NOjIEgMYgRxcqwF5Qyb1gxBYtDW5p0KEsM9PQqCxCBGECfHWlDOsGnNECQGbW3eqSAx3NOjIEgMYgRxcqwF5Qyb1gxBYtDW5p0KEsM9PQqCxCBGECfHWlDOsGnNECQGbW3eqSAx3NOjIEgMYgRxcqwF5Qyb1gxBYtDW5p0KEsM9PQqCxCBGECfHWlDOsGnNECQGbW3eqSAx3NOjIEgMYgRxcqwF5Qyb1gxBYtDW5p0KEsM9PQqCxCBGECfHWlDOsGnNECQGbW3eqSAx3NOjIEgMYgRxcqwF5Qyb1gxBYtDW5p0KEsM9PQqCxCBGECfHWlDOsGnNECQGbW3eqSAx3NOjIEgMYgRxcqwF5Qyb1gxBYtDW5p0KEsM9PQqCxCBGECfHWlDOsGnNECQGbW3eqSAx3NOjIEgMYgRxcqwF5Qyb1gxBYtDW5p0KEsM9PQqCxCBGECfHWlDOsGnNECQGbW3eqSAx3NOjIEgMYgRxcqwF5Qyb1gxBYtDW5p0KEsM9PQqCxCBGECfHWlDOsGnNECQGbW3eqSAx3NOjIEgMYgRxcqwF5Qyb1gxBYtDW5p0KEsM9PQqCxCBGECfHWlDOsGnNECQGbW3eqSAx3NOjIEgMYgRxcqwF5Qyb1gxBYtDW5p0KEsM9PQqCxCBGECfHWlDOsGnNECQGbW3eqSAx3NOjIEgMYgRxcqwF5Qyb1gxBYtDW5p0KEsM9PQqCxCBGECfHWlDOsGnNECQGbW3eqSAx3NOjIEgMYgRxcqwF5Qyb1gxBYtDW5p0KEsM9PQqCxCBGECfHWlDOsGnNECQGbW3eqSAx3HeKcrakiyWdJenUAyKdt9Mo9+18ZEGsyPGvco5/hbOdt1ntuiPXbHPcb/x7JN0m6asHtPGuMaRd7V+SkEH3CHKRpM9kBSfukAQOS3rb2jPvQZALJd2wNgjG75LAdZIuWXNmPQhyraSXrQmBsbsm8DRJ31trhmsLcoqku9ZaPOMOQcDO065ca6ZrC2Inf/bNFAcE9iOAIOwNCBxAwL7xOn8tQlSQtcgzrpcAgnhJ0W5KAlMLYhm3byjOnTL1LNpDwD5e1f6w6YnrarP2R6yjk3yPpHNcM6bRLATukHSNpJvWXHAvgqzJgLEhsC8BBGFzQOAAAgjC9oAAgrAHILCMABVkGTd6TUKghSCnSzok6amSzpiEK8vMJXC7pDvLLRJ2/0jakS0I93mkpY7AhYDdZPfZLBqZgthdgTdLOi1r8sSFgKR7JV0g6TsZNDIFsUuUo28VzWBAzPEJ2D1Fl2YsI1MQ+4xI9cjIGjGPJ3C3pJMzsGQKEv0kjIz1E3M7BFL2ckrQwhxBtrP5RlhJyl5OCYogI+ynzc0xZS+nBEWQzW2+ERaUspdTgiLICPtpc3NM2cspQRFkc5tvhAWl7OWUoAgywn7a3BxT9nJKUATZ3OYbYUEpezklaKHJL+kjbKttzDHt2VmZghj6F0m6bBs5YBWdErha0vVZc8sWJGvexIVAEwII0gQzg4xKAEFGzRzzbkIAQZpgZpBRCSDIqJlj3k0IIEgTzAwyKgEEGTVzzLsJAQRpgplBRiWAIKNmjnk3IYAgTTAzyKgEEGTUzDHvJgQQpAlmBhmVAIKMmjnm3YQAgjTBzCCjEkCQUTPHvJsQQJAmmBlkVAIIMmrmmHcTAgjSBDODjEoAQUbNHPNuQgBBmmBmkFEJIMiomWPeTQggSBPMDDIqAQQZNXPMuwkBBGmCmUFGJYAgo2aOeTchgCBNMDPIqAT+C2EbW+dIwI/4AAAAAElFTkSuQmCC;" parent="WIyWlLk6GJQsqaUBKTNV-1" vertex="1">
          <mxGeometry x="180" y="374" width="50" height="50" as="geometry" />
        </mxCell>
        <mxCell id="jZZy9cJ6slIVJ12cToO3-21" style="rounded=0;orthogonalLoop=1;jettySize=auto;html=1;startArrow=none;startFill=0;" parent="WIyWlLk6GJQsqaUBKTNV-1" source="jZZy9cJ6slIVJ12cToO3-5" target="jZZy9cJ6slIVJ12cToO3-6" edge="1">
          <mxGeometry relative="1" as="geometry" />
        </mxCell>
        <mxCell id="jZZy9cJ6slIVJ12cToO3-11" style="edgeStyle=orthogonalEdgeStyle;rounded=0;orthogonalLoop=1;jettySize=auto;html=1;entryX=0;entryY=0.5;entryDx=0;entryDy=0;shape=flexArrow;startArrow=block;" parent="WIyWlLk6GJQsqaUBKTNV-1" source="jZZy9cJ6slIVJ12cToO3-6" target="jZZy9cJ6slIVJ12cToO3-1" edge="1">
          <mxGeometry relative="1" as="geometry" />
        </mxCell>
        <mxCell id="jZZy9cJ6slIVJ12cToO3-15" style="edgeStyle=orthogonalEdgeStyle;rounded=0;orthogonalLoop=1;jettySize=auto;html=1;entryX=0.5;entryY=0;entryDx=0;entryDy=0;" parent="WIyWlLk6GJQsqaUBKTNV-1" source="jZZy9cJ6slIVJ12cToO3-6" target="jZZy9cJ6slIVJ12cToO3-7" edge="1">
          <mxGeometry relative="1" as="geometry" />
        </mxCell>
        <mxCell id="jZZy9cJ6slIVJ12cToO3-36" value="2 数据采集&lt;br&gt;&amp;nbsp; &amp;nbsp; &amp;nbsp;业务联动技术支持" style="edgeLabel;html=1;align=center;verticalAlign=middle;resizable=0;points=[];" parent="jZZy9cJ6slIVJ12cToO3-15" vertex="1" connectable="0">
          <mxGeometry x="-0.0496" y="4" relative="1" as="geometry">
            <mxPoint as="offset" />
          </mxGeometry>
        </mxCell>
        <mxCell id="jZZy9cJ6slIVJ12cToO3-6" value="" style="shape=image;verticalLabelPosition=bottom;labelBackgroundColor=default;verticalAlign=top;aspect=fixed;imageAspect=0;image=data:image/png,iVBORw0KGgoAAAANSUhEUgAAAMgAAADICAYAAACtWK6eAAAAAXNSR0IArs4c6QAAHW9JREFUeF7tnQmYJEWVx3/ZGTU9rnI4CDI4coMi9yU4KwsqKMgpAirggYhcCjIKeLEqXrggKIKsAyi4nuCBILCcIsuxyIqAouKB3AweKIfuzFRkh9+byGZ6mq6uiMijqrIivq+/cZf3Xrz4R/4rMiNevJcQW0QgItARgSRiExGICHRGIBIkPh0RgWkQiASJj0dEIBIkPgMRgTAE4goShlvUGhIEIkGGZKLjMMMQiAQJwy1qDQkCkSBDMtFxmGEIRIKE4Ra1hgSBSJAhmeg4zDAEIkHCcAvVUqOwRgZrJLCGsf8uGIMFI7CgDQuwfwtDO4h65SIQCVIunuPWRlLYOYHtxokArAG8wLG7v+VEWZDAt9pwEfCoo24UKxGBSJCSwJwBLxmDnYGdgFcCM0oyPW7m8gS+34YrgPtLth3NdUAgEqTAo6EsIV6VE2KLAqZ8VX+YwBVt+C7wiK9ylHdHIBLEHaunJVsgZDjGwIEB6mWqPAycreFLkShlwrrUViSIH64rK5gn5ABG/VQrlRaizNcwPxKlXJwjQRzxbMERYzAvgXUcVXohFolSMuqRIF0ATWGPxK4YO5SMfZXmHk7gxLZ99YqtAAKRINOA14KjDXyuAL49VTVwZgbv6qkTA955JEiHCVRwCvDeAZ9fcf/HGl4NLG7AWGofQiTIMyGfpez26SC9UnV7cB5LYKc23NZNMP73ZRGIBJmARws2NXB7Ux8SA2/N4KtNHV8V44oEyVFtwVEGPl8FyBNtGrg3gXvzf+9LYC0Da2H/5lTdfwLz2nBa1f00xX4kCNCCd5oKdnwSuG8MLk3gQg33Yv+mazNGYS0NG8gJfWJDVl5SwcM2V8PNFdhtnMmhJ4iCHYGrSpzZnwLXAJdruK6o3RnwYmO/h7Y38Mai9sb1U1h3Efy+LHtNtTPUBJkJa2u4G1AlTPAlBuZn8MMSbE1pQsEr8p21XUvo40ENGwJPlGCrsSaGmiAK7irhFaZyYkx++lrwNmO3oDcq8mTKq18b9itio+m6Q0sQBd8H9iowwbcaOLHKFaOLb8vlcWEfLTAGDHwxgyOL2Giy7lASRMFngONCJzb/5ZWH6k+hNsrSa8FB8pADMwvY/JiGQkQr0Hdfqw4dQRS8DLgpdFYMnJPBIaH6VeiNwnr5SrZ+oP0/K9hmIdwTqN9YtaEjSAu+bmD/wBk9RcOxgbqVq7Xg2yb8m+I0bUP5Y5uAwFARJL8BeHngE/B5De8J1K1NTdlDwBA/2wm8tN3gSIKQSRg2gsgWbMgW6c0a5oYA3Aud0A0IA+dm8I5e+NyvfQ4NQVLYL4Fv+06Egd9lsJ6vXo/lWwp+AmwW4McOGn4coNdIlaEhiILrge08Z1HS7+ym4UZPvZ6Lt2BzA9cCK3o68x0N+3rqNFZ8KAjSgkPklNt3Fg3sk9nQ94FsLThYdt18nTfw2gxCv9V8u+tr+aEgiIJLZCXwmYk8YdubfHT6UVbBZcAuPr7Fm4hL0RoGgsxR8IDPA5LLNiLiNSQYU0LxMxt+P/St8QTJ45a+4jPTBs7I4N0+Ov0sm8JZCRzm46OB3XsYRuPjaqWyw0CQC4zfR+djKWy7CH5bKfI1Gh+FdTMbPbCya7dxy9ci1XSCLK/gcdeHIpdrZFxSCmcmcIQHFgs0zPaQb6RoowmSwr4JXOAzcwls24ZbfHQGQTaFvRP/HbmdNFw9COOrysdGE6QFvq9Xd+iww7Wq5qdUuwr+DKzkatTAWZnfquNqemDkGk0QhVx38Gof1/DvXhoDJNyCbxl4g4fLt2vY3EO+caJNJsgqyrPoTFNfr8af2oBXzsdHYLsxeI62ZRYk9+9QJaBrLEFmwMZjcKfHT9ojGlbzkB9I0YBVdfI4/5IT5REDkgNYiHO1tmEtjWuNJYiyhW18PjAv02GRvgP1UKRwj+TiqsDpvxn4HnBZZsny1wr6qN1kYwmSwv4JfN0VUQPnZXCQq/ygyin7oyE/HlW2RYBUwbqmbUkzsPUVG0uQFrzH+GUQPFkXuKde5dNWpu0Uzk5qvPMhyfMkMkHDGYNYvbexBFHwaeD9Hg/XcRpO9pAfSFEFHwQ+2QPn70zgC+2A6OIe+Pp0l40lSArnJvB2V3ANHJTBea7ygyqXwpsS+EYP/b8+j3W7sIc+OHfdWIIom+HQ+XqtgV0zGxre6NaCzQz8rA8G+T1ts8M81ge+dHShyQSReuJSOMapGdgzg4udhAdcqISt3rIQ+NkIHLgYflmWwbLtNJkgsoTv4wpYAke2bQK2xjdlD/z6JRBRrjXvo23C775rg06QmSnsnsBWBlZKbJyR/M0C1gae5YH4SRo+4CE/sKIjcNRIDbVQfACSmvOZx7a8j+0isoNIkNkp7DgCu3ve85gWpwS+1oY3FwFzkHRTOENWzT7z+X0aPttPPg0MQVrwDgN7ALtXBOB12pYXGJqm4CPYm5OdInwl97CEkjxlYHYCq3quyt5YJnBoOyDBhndHjgp9T5D8HoNMYtVFNYf2gpCagG0CT7UtKRYA2RTP0QqjsGpmv2EkEYb8YIXmBO70mG6n4QbHZ7hSsb4lSD5pQoy9K0VgqfExDWlNfTWqmxZsY2zmFCHLFmUMbgQ2Xgy/KMNWERv9SJDlUji1znCIcQB1868gF3lWXHRnKDgKOLqEgqQPa9gGeNCl46pk+oogUo9vzJ5mCzC1t0iQ0iCXVEtCEiHLjAJWJYz+dfINVMBGIdW+IUgeni73x2WLtictEqRc2FuwRV7cp8gPXk9TofYFQVJ4SwLnlzs93tZu0P65e707GUYFBT/A7kAGNal5kkFPYrd6ThBlD+c+FYRciUojsNdiO5GxVYBACqcn4cn4rtewfQVudTXZU4IE3JHuOqBAgRO1PROIrUIEUtglCQwITeCQXoTK94wgLdja2BoWVTU55JKcvCPAmh3KANw9BqePDUkMVlVA+9hN4W0JeKWCze3fme9qLfTpr6hsTwgyCutk8Luizk/Q/xVwqfyl8MAiuzUo1z4nthVbsKbJ62Wk8PAi+E2JPkRTjggo+0odEvd2rIZTHLspRawXBJmV39WQarNF2hPAaQlc3sRMiEWAGQRdZeuP7Ozjq1zfbdsjgNruuNdOEAUXAXv6ADNZVhIry2FiP98jKDK+YdDNt4Bv9j0nkQ/9tr3fXkurlSAteLeB0wuM7A7geA1yGSq2AUdA2RwA7/McxiW6wJaxZ1+1ZneflcItCazr62QuL+cUrwf+GKgf1foPATlxl1Vkjodri/MEf5LArvJW2wqi4KOEb6VerAu+llWOZOwgCAFlVxCvbDJ1JtiohSB5ARcpKRASRtLIeh1BT1MzlSTAUVYRnyjg2sJPaiFIgVPUSI5mkmKZUSmbp0vydbm2JzSs4CpcRK5yguSrh3c5s1ibosi0DpZufvfnR55ev0bDlZ463uKVEyRw52ro61J4z+SAKwQk1f609lt1ghCqnCAhdboTOLpdbDs4CIyo1DsEfGso1pVsvGqCPE+BxEQ5NwP3ZLaqkZyUxzYkCAS8Zl2p4TVVw1MpQVrwdjn19hzECRo+4akTxQccgVF4UQa/9hjGzzVs4iEfJFopQUIuyqTw4kVwd9BootIgI7CCAsmy6Nr+ouF5rsKhclUTxLeI5o0aXh46mKg32Ago+IdP3i0No1XXTKySICvlZYd9Zi2ee/ig1TBZ350sbUvJ3VslDJURZBTWzzxflUZgwxihW+V097dtBTcCcz28nKvtKXxlrTKCKJD7Hjd5eP64zi8zeehE0QYhoECitZ0/vEdgk8Xw8yohqIwgKeyWwCUezteyK+HhTxStGQFlI7VXdu1Wwyp4HiO42h6Xq5Igvql8LtU212tsw4lAqkB7DF1raHnIB4lWRpAWHGPgVFevYuyVK1KNlXuB8kgzmsADbVi9ajQqI4iCD+F34Dc0BWyqntRBtN+yRZBu9fD9Vg0v9ZAPEq2MIC04TFYFV6+k8mobDnCVj3LNQiCv/3K2x6hquURXGUECksLF1J8eT0fTRBV816fUhYEvZXBY1ThURhAFr8SjMGMC97dhjaoHHO33JQLPUiB3zH1qStZyqFwZQVqwqYHbfaYjZlf3Qas5sinskXjmRa7rULkygkimCmVTf/q0nWNKHx+4miEbUFD0Lg0b1TH6Kgkiy6YEn/m00zTM81GIsoONQB6SJCEmPpG5tbxeCbJVEgRla8xt6DGFtf0yePgURStEIIX5krnds4vKY7DG/amaIN65sBLYNuba9XxcBlRc2dy8kqPXp9X6I1opQVqwpYH/8xm9gfkZHOqjE2UHEwEFVwOv8vT+VA3v9dQJFq+UIOJVwGuWvPdt1YafBo8qKvY9AgqOB04KcHQXDf8doBekUgdBBAQBw7nFVcQZqoEUDDhEXjLOBC5sw351DroOguwIXOU7KAN7Z/B9X70o3/8IKFgAPD/A0+01XB+gF6xSOUHy1ywptba1p5dPjsDcxXYnLLaGIKDsJTrv4kkGzsn8d7sKo1YLQVpwkIEvB3j7kPZLjR/QRVSpCwEFnyXsnGvhCGyzGO6sy9fxfmohSL6K/Bj4t4AB3qJh2wC9qNI/CKyq4NuB8y+jOEXDsb0YTm0ESeGNCXwzcJAPjcCOi/0SiwV2FdXKRCCF1yfwX56BiBNdeDSvbntfmX652qqNIPkqIqXTXu3q3GS5BA5uh72qhXYZ9QIRkEyJGo5O4PBAE0vUEji0DfOL2CiiWytBUtgzsUU8g5ts9RmQmK1K070EOxgVn6vgaOAo4LkF4aj1UHAqX2sliDhQoJjOZP+FJHLnXWqix9Z7BFZuwT7GkuNFJbhzmYZdS7BTyETtBMlftS4DdinkuVWWXK7XJnBNGy6sOgVMCf42zYSQYl9js6xLyMizyxhgnuF/nTJsFbXRE4LkK8lvC1S87TTu6xJ40MCDkvViDB5MIZH/uyhQw6pvYFYC64/BkwmsCsyWf4393ztUgUueQPDxKmz72uwZQST+37d2iO/govzgIZDAlm24rV887yVBJOuX97XcfgEu+lE6Av/QsB7wcOmWCxjsKUHE79AinwXGHFX7DwHJqrkHMNZvrvWcIDkgSsHFJX249xvG0Z/pEfikhg/3K0j9QpAl+Cg4ETihX8GKfpWLQALvasOZ5Vot11pfEUSG1oJDDfxnucOM1voMgSsNnJH5Zf/vyRD6jiD5SiJFVN4HvK4nqMROq0LgJzkxJDZrIFpfEmQcuRSkhIIQZeOBQDM62QmBuxM4ow1nDBpEfU2QHMzllA11FqL4pKYctLlonL8GfpfA+Rq+APTFwZ8vyINAkCVjasHmxqaJkdPbV9j/V2z9hoCQIk/lc3nmn9Kn34ZTbeK4Cke7Qgpy130n+Utg7Qr7iqa7I/BrbG7dHzQtynpgVpAuc7T8DJgzBi9MYI6BFxqYI/dHus/tMhKVpxoysFoCs139MvBIUv3p8nLA+q4+Ab8EDk/hkUXwCPCUh+5AiTaFIFOCrsD4zEYd2eUV+GabrDwPrbKvrT/ywOo6bV9zG98iQSZMcSSI8/MeCeIMVR8LxhXEbXLiCtIZp7iCxBVEQnziK1YHjkSCRIJEgkyz0EaCRIJEgkSCuL2Lx490N5yA+JHuDFUHwRZsZmAvOZNIYHWW/knIwf3jfwZuzmw6+yeL9jlZP36kuyEav0Fq+khvwRbGRuDK7bBN3KbHSkm+K9mLb8N3yspOEgniNgN9TpAVFWwjP7IGVp/w7/0G7pfy4fKvBkmQ/le3EbtLlfINMgrrZXAk8C6b+iq8Gfj9CJzahi+GW7GakSBuCPYbQfLSbNvncXc+eZlvAa438JPM/tAWbkUJIldlP4IlR9EsepMHc51kUMzsVdygFgniBlu/ECT3Q56lfdw8n1aq8POTv9kEuzJLwXnA7sEW3BRP1nCcm+iyUpEgbqj1miAzYKMM5iVwkJvH7lIJfE2yw7fhDnetpZJBK8hMWEvb4pyzQjoN0LlJw7/66kWCuCHWS4IomGvg/AqSCE4c/GMJnBDy2u5NkBZsY+B/3aAvV8p3GzYSxA3/XhEkhV0SkDS0tTQDZ2fwTp/OvAiSrxz3+HRQsuzlGl7rajMSxA2pXhAkvyX6H24eliolObh2c7XoQ5Bn5/XlvLZvXR3xkHP+JokEcUO1boKk8NoELnXzrnwpA2/JbFGfrs2ZICnMT3pQRHGqEUhRlrZDaqBIkK7zv0SgZoKsqUC2Y1dx864yqVdqhzswTgRR8HLgfypz1d/wL/KyXP+YTjUSxA3YOgmibGnvvdw8q1TqN9qWbJg2878TQVrwLQNvqNRdf+PHaTg5EsQfuMkadREkhQPzeoXFnS7HghRhmjedqa4EKeF9UX4x7sxPN2+cAbMz2CqxddPlHkLQN42EGLThpcCjnQYYVxC3p6gmgozm37BbuHlVm9Tc6RJNdCVIC75q4M0B7i42sHc2/cfYci04M9C+xG91/BZpwTHGlmhzbVJNVYrCVNqG9U66gvcDnw4FV0KQElsnXRJr3AhsKbVEDGzpmXBiGRckBrAN+3XyqxtB/kXZrBXLew7sZm1romsXPWXfBa92kZ0k88c8w8ZkVTnA9F2Z7tSwaYAPXipDTBBJDRRSu/AhA0dl8L1OQKfwNuAjCazpNRm58Ahsshh+PpXutAQJrEr7lAZJI+PVZsAmY4HhAF4ddRa+SNeQC7gfCTIDNhizqXxc20MaNnC9oqBsFMQNrsbH5QycmdkAWKcWgO0Suwkc0YazvAkS8nEur0uZjX/xbgo+Q2DclXdnkxQSOKYNnytqp5t+wCRWnvZHfFawCJjRzf/x/y4xTgbOdZE38NbE/sr7tKAVPQ+eldRKzi2Bb7ThAG+CKPurIr8Urq3oZL5AgSzFz3HtsCy5BDZvw+1l2etkp48JciuwVdXjd7U/Ahssts+Cd1PwELCaq2K+4bNGCEEkY55zaV8Du3X5KO/qs7IfYFL+oLZm4LysgkjSqQbQxwT5FPCB2kCfvqNjNZwS6ksL3mngSz76nSrrTvcNspKCP3t28nxAPpyDWwpnJXBYsAFPRQP3ZjZL4L2eqkHifUwQqXUuV5973rT92L4v1JGZsLaG3/vod/pQ70iQPJu6TzleOZkM2aVYZhwpvDmBr/oMroisgf0z+GYRGx66qyg4O7+S7KrmHHvmarCD3PIK7gLmFLRTVL2s50hKL6zj6kynt59hJ8jxGiqPKG3BwQZeX6BI6cUJXNx2/Ch2fSgmyylbg2Xa6IRQ2656CXyzDfu7yneSU/bKrWDu1DrtZA3zK1blqWsUyGvLMdh/y2hXABIeIf9W0WYouBno5Wn3Z7UlaqGm7CGxYO/aPqDhpMnC056DKJvWvnEf6VIkNIPDXZELkBtN4cyA8gtOXcn2agZHA393UvAQSmHfBC7wUClbtJQfLt/NHgMHZPANX4LUvc07W8FvKtzmvcTA/Ax+WPasTrAn3xlyV3+XCvsQ03cq2Gsh/KHsfhQczxS/pmX308Hek9pe5XaKwuhgo6XgMc/naDs9xWHmtCtICy4wsK8PMAZ2zQKvUQbs8Li4Jh+eUv3o+gpfTZb4MQrrZvBbF6fKkklg27a9X1FqU7Z615WlGnU3Nm0AYTczcs89j9fqJvr0f9cg5yCS0HCZ1i3UxHu5laCyDNZ19mypoKweD3vqPQHsOYXO4hQeXWQjfWupfhQQEes51M7iI7DhYr9QEae+851MOR+R2pB1Nvkxk7xYQS2Fr/ie3HfKd9AtWPF5Cv4U4KX3ibqyWVIkMtOnSU28nl++6SU5xsGqiiRiPy/HfQSwjc/kFJGV6rht//AUCZmR2pVXefZ9g4btptLpRhDpUF5PJJWob5M8REdqezLesSk4DXiPr/FcvtCJa2Cfy6i1YCtjv2nkkLRnTVbuFPaoYiUZH5QENRrYycA6CTzfuI9ZsPEJWRrv8jXa4zUv5IAw7+gk3SGKoCtB8j38cwrM/HQXpiQkfrNA24sSmNsGn8PMwK6mJfhFHV7zSu/LwWBfrKhT+LlaHh/lMIRniHxQO9wjKRKBMV2IVFeCiLvKhiCUtZcfAtJUOh1ZX1YH3ewoG6JybTe5mv+7UzKCmn0q8iYirl6bJze/rW2TVC9pUkEA2NrYV7HQ+L0HNWwESNWBZzRXgvRNnI6MIN8IeFlZWeBDH5YCty2X6TK/LZcVuRk3blDufLfhLaFjqkqvxO802XQZ/171vnc0eXwJzGvb1/wpmxNBRDOFc6o6+PKdlASODEkj6dvPdPL5t4eEiIe2jxm4I7NZKuXWprRVUtg6v68vScGDmui37UPUVy0/PJWP/X5pcvN12pXHmSDAyincVHEO1a7A+d4y62owUEDBh4GPB6j/RRJ+T5coIP9Bkgwgcsst5G7MJzScEOBbpSqjsE5mQ1lWrrQjR+MG9stsXZqOzYcgIQnGHF11FvuVhpc4S1coqOwvv++2523acys7zwQir5M+Leg2nk8HobItOMx0uN4aajNQz+kb1osg4kgLjpBf8UCnCqlpmA0sKGSkBOWAO9zSq9Z2NZCrrT5NarBIzJXzdVgxXtcNSZ+BjMsW2XEK6W+yTgJfb8OBLra8CSJGUzggr7vg0kcZMn9P4OV1XIl1cTYkJEYugbU9b7lNeKB2Tfzjx7wPa13GXpaMgst7cEIv7j+mYSXXcQQRRIwrm9ZHzjiqrhFylYZdgbbroKqWS+HcBN7u0c93tGdM22Tbyqa9kfqPTs3AlzM42Em4R0IpnJ7Au2vsXlLWbuzTXzBBpJMWbGpAYnWcSxJ4OCdxVnL3wStDhYf9YFFlQxkkpMG1vV/bjC3BLWDVulrbgMO+biH3x0MGlEdxH+qrW4gg452l8IbE5i+SJNeFm9x3SOHUKsMmijip4G7PM4tX6YIHigEpYEu5uloEJ1fd/PmRhBFVJO67y8DJGZzv6s9EuVIIMm6wBYcYu5pIzt0VPR2Sgcg28nerDkv39OsZ4gr+H5jpakfbzJRF68CvoOBvrn0CCzU8y0O+16KSu/dIA0cmsHYJzoy/gcjNQvnfQa1Ugkz0ID853cHAC6W2NUv/5Ehf4u6X/Bn4WQtuXAi9rFzlBZ6yO2nOwYlFcjyNOyaFLsc6pMfs4HwtuYa9gHMTlghyeRuR4rAhV3/l/s/VIzC/jDeQygjihsVgSikbDyTZ6Z1akWyTE1bnQ+WqsFOHVuhWbbPfD2zLoxXkvo9878mP7FTJ4OQOkfzYXiE7fWVHEESCBDw+vhkzgNO1vUMe3ALODuRVtYx648E+V6CoZsLqGlZXcP9CS4wiV3O7uhgJ0hWiZwoEZMyQk23ZwAj9DpmZn6hv7uFu1+IwHraGVjQSJGDqQzJ/FImyVfAh4BM+rnbK0uFjI8ouiUiILQCB5VTYzsiOGq7x6S8wrEXeO2QXcco7Dj79D7tsJEjgExCS8UW6SmHdRY55YxVIkOJNAS561ZMPsD80KpEggVPdgsMNfDFE3eU+i7LZzd8baP+oNnwhRDfqLItAJEj4EyFpiuRSknMdikldXS2Z5RO419g6GGNyQJYnRFjPM5RloumHta3zMX4JK3yEUTN+gxR5BgLio4p056rb11G8roPoF7m4ghSbiaKrSLHen6kdV4+SEY0EKQhon60icfUoOJ+T1SNBSgA0dEerhK4nmjhVB37Ul+xHo8xFgpQ0nQp+AWxYkjlfM9dov/spvvaHVj4SpMSpV0tSdtXfOiVert+T5vUYCVLynCpb+qHq2iDjXvdt9pKSYe2ZuUiQCqBXtu7hsRWYftpkkdiuKv1qmu1IkIpmVNIjjcE8n0qrLq5ImtIROLXXmSVdfG2CTCRItbO4soJ5eTHJ0YJdST4tCWGXK6QhNVsKdj+c6pEgNcx7C7Yw9gqpfJv4ZmO8TkqhJXBFr0s91ABV33URCVLzlEiRlwx2NbC6gRVGYAX5V9xI4PExeFz+TeAPbbgEeKBmF2N3ExCIBImPQ0RgGgQiQeLjERGIBInPQEQgDIG4goThFrWGBIFIkCGZ6DjMMAQiQcJwi1pDgkAkyJBMdBxmGAKRIGG4Ra0hQSASZEgmOg4zDIF/AoeS7SOPZ5EGAAAAAElFTkSuQmCC;" parent="WIyWlLk6GJQsqaUBKTNV-1" vertex="1">
          <mxGeometry x="380" y="119" width="50" height="50" as="geometry" />
        </mxCell>
        <mxCell id="jZZy9cJ6slIVJ12cToO3-7" value="" style="shape=image;verticalLabelPosition=bottom;labelBackgroundColor=default;verticalAlign=top;aspect=fixed;imageAspect=0;image=data:image/png,iVBORw0KGgoAAAANSUhEUgAAAMgAAADICAYAAACtWK6eAAAAAXNSR0IArs4c6QAAFcpJREFUeF7tnQfwPTURxz+igApWVFQQxYZKsaIIimUUe2+jiChiwwZ2miiIZey9V8SCvSsoYEGKBQt2RQRFUaSIqCiI88W88c/z7t4lt7nk3tud+c+PGZLd7Dfve3dJNruXwMURcARaEbiEY+MIOALtCDhB/NfhCHQg4ATxn4cj4ATx34AjkIaAv0HScPNeK4KAE2RFJtrdTEPACZKGm/daEQScICsy0e5mGgJOkDTcvNeKIOAEWZGJdjfTEHCCpOHmvVYEgVoIsimwOXBl4ErAFYC1KpyDfwBnAGcCpwFfq3CMPiRDBEoSRGR4BLAjsI2hT2OqElkOAQ4GjgIuHNO428qPQAmCbADsDewGrJvfxdEsfB94LvCl0Sy6oewIjE0Q/YD2DJ9Q2Z0rZOBI4GnADwvZd7OGCIxFkGsAH5/wp1Qs5P8EdgUOiu3o7etCYAyCaH3xaeCqdbk+ymjeHN4m549izY2YI5CbIFsBxy3ZWiN2Ej4JPCC2k7evA4GcBLk6cDygv6su+wH7rzoIU/Q/F0G0O6U3h94gLv/d/n0goLeJy4QQyEUQPS33nRAOYwz1bODagP66TASBHATRAeDJwHoTwWDMYR4I7DOmQbc1DIEcBHkN8PRhw1ra3ueGt8ifl9bDJXPMmiDrAGcBl1kynCzd0UHpSy0Vuq58CFgT5O7AF/INdyk0Hw1suxSerIAT1gTRwdgTVwC3IS5qR+tqwOlDlHjfcRCwJsipgMJKXLoReAzwHgepfgQsCaJQkj/W73IVI3wtsHsVI/FBdCJgSZAbAD93vHsh8D5g514tvVFRBCwJsnU4PS/q0ESMfwa470TGutLDtCTIHQDdhXBZjIBwutPiZt6iNAKWBLkjcERphyZi/6uA8HKpHAEnSJkJcoKUwT3aqhMkGjKTDk4QExjzK3GC5Me4yYITpAzu0VadINGQmXRwgpjAmF+JEyQ/xv4GKYOxiVUniAmM0Ur8DRINWZkOTpAyuDtByuAebdUJEg2ZSQcniAmM+ZU4QfJj7GuQMhibWHWCmMAYrcTfINGQlekwNYJ8FzgnM1TC5CbAVTLacYJkBNdS9RQIcgLw7BAIqfocY8kmoTzDSzIYdIJkADWHytoJogwpe+RwPELntYDPA1tE9FnU1AmyCKFK/n/NBDkmJDeooSjNjYEfAJcymjcniBGQudXUTJDrAr/ODUCEfhX9eVFE+66mThAjIHOrqZUgWndsmdv5SP0bA6dE9mlr7gQxAjK3mloJ8kbgKbmdj9SvZHh/i+zjBDECrJSaWgnyDuBxpUBpsat0RkprZCH+BrFAcQQdtRLkMGCHEfyPMXEv4LMxHTraOkGMgMytplaCnAeodvrvcwMQoV81Fq0qRTlBIoAv2bRWggiTjwAPLQnOGra3A75hOBYniCGYOVXVTBD5/XLgOTkB6KFbB4X65NusR9u+TZwgfZEq3K52ggieQ4GXAYePjJWHmowMeI3mpkCQGW4qOqPzkdziwYq5EZ6Q/ikRZEKwLhyqf2IthKiOBk6QMvPgBCmDe7RVJ0g0ZCYdnCAmMOZX4gTJj3GTBSdIGdyjrTpBoiEz6eAEMYExvxInSH6Ma3iDqDSF6iJeCVAd+0uXcbvT6r+Bs4EzgDPDjuVJpcfpBCkzA7nfIJrX2wM7Ag8JxCjj6TCr3wTeD3w4EGeYtoTeTpAE0Ay65CTIPUId9q0MxlmLCsXm6QqELqzp7TKaOEFGg/pihnIQ5GbAq5e8MI8+wUSSV4w1bU6QsZC+uB1rgjweeD2wThl3RreqfAWq8fin3JadILkRbtZvRRARQpfLdirjRlGrugpxH+A7OUfhBMmJbrtuK4KoWu69y7hQhVWtTW4LHJ9rNE6QXMh267UgyAuB55cZflVW9Sa5aa7PLSdImbkeShC9NfT2cPkvAscB2wN6o5iKE8QUzt7KhhDkCsBvAP11+R8CepseYA2IE8Qa0X76hhBEl8dK37Ls5+W4rc4FNgqn8WaWnSBmUEYpSiXIhoDCL2oMFYkCIFNj8yvaTpBMM7VAbSpB9gIOLDPkSVhVYr/LAxdYjdYJYoVknJ5UguiA7DZxplau9d1CHgMTx50gJjBGK0khyAbA6dGWVq/DG4CnWrntBLFCMk5PCkGUivVtcWZWsrXSw2qxbiJOEBMYo5WkEETRrLtFW1rNDrr3cpaF604QCxTjdaQQ5OBQEi7e2ur1MKst4wQp8+NJIcjngHuWGe7krN4SUMHXwTIVgmj35gjg6JGq3N4I2DoEAl51MMr/ryCFIPL/jhnGsowqhZMwHiy1E+QPwO7hyuVgZxMUaE9dJ9dPACyxSiHIkYDulrssRuBOoSry4pYLWlhOulirp5yVqOTz5sCJVgoH6FGcj6JnrcQJYoVks56VIIj2srWnXYOouu23Q1i1xXicIBYotutYeoL8NUSrKhVMLfLYcHvPYjxOEAsUV5ggKnWm65Q1iXZG9BaxECeIBYorTJBXAs/Ki2G09ssBf4nu1dyhNoKcDBwL/AS40MjHNjXC8daAHjiqHJxDlv4Tq6bya7MJvIVhgoBaCKKLV8qIoiJFY4tC9l8APANY29j40hNET7NtjEEbqm7Z1iA6W7oz8PehwAzsr/MmXZm1lKUniBbnylZhDVzqJCzbLpZu3ynzYg1b6JqTfYH9Uyenod/SE0Q+nwKouqz+lpZlOwd5MbB3aVDXsL8eoJ1LK1kJgggs1SVUBj0lMS4hOkl/aThJX8twAKXXIHcBvmLoj4UqJYDTOs9CVoYgM7C+DnwU+IEFegt0zIp4apdF6XVqicWyDDXRTpLlE9tiWpQ69SkWioCVI4gRbtWoKf0GuV5F64/ZpFiG8ztBqvmppw2kNEG0e2UZN5eGwsV76QxGUdQW4gSxQLGgjtIE0dP6kQX9nzdtHejqBKloclOGUpogGvP9gU+lDD5Dn18BugVoJU4QKyQL6amBIHJ9F+DdhTCQWW2AKBGFyGopThBLNAvoqoUgcl1JsFUD8BOAEq/lFu2gKbfXtiHMJEeOYSdI7lnMrL8mgmR2tYh6J0gR2O2MOkHssGzS5ATJi2927U6QvBA7QfLim127EyQvxE6QvPhm1+4EyQuxEyQvvtm1O0HyQuwEyYtvdu1OkLwQO0Hy4ptduxMkL8ROkLz4ZtfuBMkLsRMkL77ZtTtB8kLsBMmLb3btTpC8EDtB8uKbXbsTJC/ETpC8+GbXvswEOQ1QVv7fr/FX15ivGf5dI/xVFahc4gTJhexIepeFIEo4p0jg7wVCiBQxcp1AFl2Yul/IuBjTv62tE8QCxYI6pkqQ80M2FGW+/DhwpjGGuh+iuyEiizKvrJuo3wmSCFwt3aZGEGVU+SAgYliTom1OLgvcA3gMcK/IiXOCRAJWW/OpEETZ7FXh66jCAN4KULK7u/YchxOkJ1C1NqudID8F9gE+VhmAtwNeAuhvl6wsQVS59JzMkzZLHHeVjHZqJcipgNKsvtPI9ysD1wprCaWQjV3Etw1DaYsO7EhwvlIEOQF4dijKqLqFY8kmoS65nljWUiNBlOFkp8QHkH6weqorM8nGgRT6q3XEvKjkgv79DjgpFCU6LNHubsAbG2ysDEFeA+xh/euM1Kcn4OeBLSL7dTWvjSDKrv6iCP+EhdYDO4TKuxaFcFTiW9vGIkvMmkf5fPUpqC3jmawEQZSPd/uIScvZdEvjvMC1EESfqw8FvtgDvPWB5wKPAzbs0X5IE5VnOATYr2d2f2VGUfqiBwSjK0EQva5/PQRl474qFxDzlK39DaJPV505KGnbInlmKJeQ8/S7bQyvDusNZfpfJPraeNUqJK/+PnCzRWiM/P8VKqHvZgsp/QZRpvxHA3pSd8nOobCN1mMlRZnoXw6oduWiMatilapm6QEwWLRjYyWW+VW18LJKhW/ln76zrRKrlSSI3oJac3SJdvB0KKg5rUlUbFTVj8cog3GR37US5B3hW7emyVGQnbZBLaQUQd4fdqq6fFBdlE+G3SgLX611nAfozaYYsOxSK0G0k6EdkppE4Q6q324hJQjyrVDS7l8dDmibVw+ndSyczKxDO5wqFX5BTju1EkRPiU0ND5YsMFRw3myXZKi+sQmiA7qbAn9qGbiKlKrC0xOHOjZyf+10PqjDr8HDqZUgckzbfA8b7KGNAsv1lUY0JkG0blLF4LbvdkXQ6pBQbaYo+uzVukRRFuZSM0HkrHYunmPudZxCHRTqk2+zuG6drcckyAND5va2AemArraa9LFQK8JYB4Y6mTeV2gkiZ3W6+jLgcFPPFytbhlATxVUd0OHqe8KCdzEa9bf4YXgLLtoGjvJkCgSZOaSDIpO97QUILUuwoj6ptO5oE4Wx6xBumeTT4bKVmU9TIoiZ0xUoGuMTq6vEmkIxvgxY1n6vANaLhtDnnKf3WJ0gvaEybZibIF2RCDcEtOV7eVOP6lKm3Uad5QwWJ8hgCJMU5CbI3YEvtYxMkbIqfzZUtGX8AkBZTB4BaDMgRY4F3hzeZvrs2ypFyVwfBWFe2+J6sBPEYDYSVOQkiAjQduNOxPlCwnjnu5wVMpD8Yo3/oajg2NPtV4S7PmvqV4aUrrVT3+HrHs9efRu3tXOCDEUwrX9OgujMRvqb5HijINDHA29vMKBzqw/1hKTtro/WTiooaiFXD2+4ZF1OkGToBnXMRZCuOzQPDgGIgwYeOut+TNuO4o6AYr665LUhGURTG4XUn2ExSOB1wNOH6HKCDEEvvW8ugjwVeEPLsH4O3CB9yBfr+YwFW8SK6Xpfi61Fkdp6O73VaJxSo4Pe36bqc4KkIjesXy6CbNQScay7H7pxZyW6b6F1Tld4h/JZvWvO4JuAJ3cMQmEv3wSubzXQkIBi11R9TpBU5Ib1y0EQ/VgVqt4kxwG6SGQp+gzSekcn2G2yS4gO1u9MZHlsR1tlQNEGw40sBxmifbWlnXSXxwliPBs91eUgiK4EK7navGihapVuZ163ohuUN+DHHX4rQvjmwBMWkEOhRBa7V01mtMOmC2DR4gSJhsykQw6C6Pyg6Wlu/U0/D4DOQ3Su8stEZJRwQZsLWvjnkoOBR6Yod4KkoDa8jzVBTgSu1zKszwD3Hj7kizQoFekRDZ8rKnfwlkQbClWf/zS8XEi8oDePhejcJinhhBPEAv54HdYEaTpw06jWA5TwwEJ0vvFwC0UROpRNRb5ZyB2Ar8UqcoLEImbT3pogbd/YiknSTUgL0eL5ZxaKInVoMyDp6T9nRxlRdEU3SpwgUXCZNbYmyHZhe3R+gFq072k0aqUR1fbu2KLPurbduZix6O2ht0iUOEGi4DJrbE0Qpd1Uvtt5eS/wKKNR3wT4iZGuGDXaBLBIJN61TmsdjxMkZqrs2loTpG0evwIosbSFKGOh1gRjygtDtnkrm9G/9+gOHSO1TmxgBUqNeiwJoh0k5exqEq0ZdP/DShRj1SdVqexpcd20QaCEgIveCJcOGwLWGR2vFpsBxQli9dOJ02NJEH2jt52S6352UwmCuNGmtRZpRd55UXEeywQYMaPTWiYq+4kTJAZeu7aWBNHNuaZ8XVe0uDA0wOUaCaLioLq33lucIL2hMm1oSZC26NjNR0py0QZMjQRRoKQCJnuLE6Q3VKYNLQmi1D2KnJ2X2wDHmI46TlmNBHleSCHV2xMnSG+oTBtaEkTVr5rKJCt1q7Y2S0mNBNGDRA+U3uIE6Q2VaUNLgiiUXW+LedFOkPXBXlssVhM4Q3axrGOxZuO7W0hE2HsynSC9oTJtaEkQHRCuWZ9vzYEqJacW6xYy9VgsYdAW8dyKjxPE4qcTr8OSIKr821ZEUyffVheQSsVi6SxFQZcWohuLp8cocoLEoGXX1pIgGpV+QE035nQJSVkULaRULNZ3QmJqCx+if+/RHTpG6Sfp/afQmiBakDdlNv+AYYh6qVgsndyroOtQOQWIPpl3ggyFPa2/NUFuHdKJzo9G2UcU5m0hSeHiAw0rjkzxZBaiXFvR2R+dIBbQx+uwJojue7+tYRjWW716I6nYzh97uHxkSxuReVH4i9Y7ugXZtH3dw3RjE1251dXbKEkliLJEaGtRVyJnzmonRcUVXRYjoJ2nqP34ULZZ+WabpO0sRG1VBiHnfe82b2s7B9GlK129jZJYgjwJUHKyG0dZ8cZjILB+Sw3x/XuUfc4xvpoIolIPd01xsi9B9HZQ4rHa6man+LysfdpKrak0mXaCxpaaCKIQe8WsRUsfgugzStnudDLrUi8CeoApUVuTnBxScI45+poI0pZxciEefQjyI0BbfC51I6CrqboQ1CT7hVoeY3pQC0G0C3aXVMcXEUTFM0tXmU31bRX7tSVv0EGi3iJK7zmW1EKQ6EtSawLURZC1w6JPf12mgYC2YVV+oElUBkA1OcaSGgiSdPbRlyC6xqlIUZfpIPDvsKXblCtXDzqFv288kjulCSIstNuqsg/J0vUG0cr/9cmavWMpBA4BVOmpSXRYdtBIA2sjiHUiiTZ33gkklz2YKe0iiE4dVZzRZVoIXAhs0ZJxXWWf9XYZI2mCSCqyzst5wDqZIVWEs2qM/G6onS6CKP6/7Uk01K73z4tAWyIHWdW5iLbt1807BI5uqKZrWX+wa/i7hcq5g13sIoh2r7SL5TJNBEQEFe0s+amleu0qnKOIXNUR0Wf7ojisoWh3nQdF6+4iiFXJ4OhBeQcTBD63oOyB1pf6wS6T6IGgGMF/WTnVRZCclYmsxu96uhF4CPDRliaXBL4BbLMkIOqgVBWqTKtpLToo1OuxKaXMkmC69G7oluGtOpJO6+RdT91rThyJC8J6x/xYYhFBhNuxgGL4XaaJgM4BdJrcVkhH/0/RrlbJHUqgpCq+ymRvLn0IokCvQz0eyxz7MRWqiM6DOgwqWltrlqnF3J0TbgmK4FmkD0FkWKewzw/FWPTt6jI9BFS6QCUM2kT3ST4M3HMirmlnTHmu+mabT3KrL0FmyvU61gHiGAdNSQ55p1YEzg9brTqfaBP9Hg40rEqVazqUrUUJu/+Sy8BMbyxBZv0UFaoFnuo8XCr3IF2/GQKqa95UKnregIp1KvCxRtHZnHLsjiKpBBllcG6kKAJalxwQwo0UolJalIh7j7ETcjtBSk97/fYV16VioKpnXkJ0Gr932EQY3b4TZHTIJ2tQJ9TKjaVLWWOIFt/7AooJVABmEXGCFIF90ka1FaxKTQo81J0hy9+QSKG8W/qnU37d6Sgqls4VdcSNF0Fgw7CbJMIoC2JsGLveDCqpMCPFCUW86DDqBKltRqY9HmVP3yD80w7n7L+106kdNP1TdvUzwn+fWru7TpDaZ8jHVxQBJ0hR+N147Qg4QWqfIR9fUQScIEXhd+O1I+AEqX2GfHxFEXCCFIXfjdeOgBOk9hny8RVFwAlSFH43XjsCTpDaZ8jHVxQBJ0hR+N147Qg4QWqfIR9fUQScIEXhd+O1I/AfUXYYBVdzhucAAAAASUVORK5CYII=;" parent="WIyWlLk6GJQsqaUBKTNV-1" vertex="1">
          <mxGeometry x="380" y="374" width="50" height="50" as="geometry" />
        </mxCell>
        <mxCell id="jZZy9cJ6slIVJ12cToO3-12" style="edgeStyle=orthogonalEdgeStyle;rounded=0;orthogonalLoop=1;jettySize=auto;html=1;entryX=0.5;entryY=0;entryDx=0;entryDy=0;" parent="WIyWlLk6GJQsqaUBKTNV-1" source="jZZy9cJ6slIVJ12cToO3-8" target="jZZy9cJ6slIVJ12cToO3-6" edge="1">
          <mxGeometry relative="1" as="geometry" />
        </mxCell>
        <mxCell id="jZZy9cJ6slIVJ12cToO3-13" value="系统开发维护&lt;br&gt;技术支持" style="edgeLabel;html=1;align=center;verticalAlign=middle;resizable=0;points=[];" parent="jZZy9cJ6slIVJ12cToO3-12" vertex="1" connectable="0">
          <mxGeometry x="-0.0667" y="3" relative="1" as="geometry">
            <mxPoint as="offset" />
          </mxGeometry>
        </mxCell>
        <mxCell id="jZZy9cJ6slIVJ12cToO3-8" value="" style="shape=image;verticalLabelPosition=bottom;labelBackgroundColor=default;verticalAlign=top;aspect=fixed;imageAspect=0;image=data:image/png,iVBORw0KGgoAAAANSUhEUgAAAMgAAADICAYAAACtWK6eAAAAAXNSR0IArs4c6QAACvRJREFUeF7tnU2od1UVh39CEFGRAyECwQoaWANTB2JC1ERELAtqUBg0iEBEKMRZhOGggUbhQBQJgz4QB5VNaiAYlFqDPqAPGygFYhkNCnKQo2LDvS+X3o+z1977rH3WXs8BUXCts/d69no85733/19eJi4IQOCiBC6DDQQgcHECCEJ3QOASBBCE9oAAgtADEGgjwBOkjRtZSQggSJKDpsw2AgjSxo2sJAQQJMlBU2YbAQRp40ZWEgIIkuSgKbONAIK0cSMrCQEESXLQlNlGAEHauJGVhACCJDloymwjgCBt3MhKQgBBkhw0ZbYRQJA2bmQlIYAgSQ6aMtsIIEgbN7KSEECQJAdNmW0EEKSNG1lJCCBIkoOmzDYCCNLGjawkBBAkyUFTZhsBBGnjRlYSAgiS5KAps40AgrRxIysJAQRJctCU2UYAQdq4kZWEAIIkOWjKbCOAIG3cyEpCAEGSHDRlthFAkDZuZCUhgCBJDpoy2wisJshbJH1M0u2S3inp8jN/vaENkVvWa5L+deavn0j6kaTfue2Ahc4jsIogt0n6tKSPSCqSrHQ9K+lpSY9K+ttKhUWoJbogRYzPn4gRgXfPHv8q6TFE6UFoz40qyJslfUvSJ+wlh88oonxZ0jfDVxKggIiCvEPSDyTdEIDvnlu8T9JX9lyAe0vRBClS/IKDO0egCFJE4dqJQCRB3i7p1Z04RL7trZJ+HLmAI+89kiC/kfT+I8OcuLebJD03cf1ll44iyNclfWHZU+gv7EVJH5f0+/5bcYezBCII8iFJz3BsmwS+I+kzm1EEmAhEEOQpSR81VSWV17FfSXpB0q9P/vnfxnt4h79H0rWSrjv5+80NGyifICi/fecaRODogtwh6dvGWr8k6WuS/mPMO1r4vZLul/RGw8Z+KunDhnhCNwgcXZDyB88bDaf43pOnhiHl8KHfk/Qpwy5L7BOGeEIvQeDIglwp6WXD6X1Q0s8M8ZFCLa+Zj0i6M1JxR97rkQX5pKQnK+GVj118rjI2YtjbJL0iqXzEZuv6k6Srt4L493UEjixI+WBeTdM/L+kDdeWGjiqfVv5uZQXvkvSXyljCgr5i1f5isLxOlNeKDFdp+qsqCi2/E/lhRRwhGwSO/AT558mXnbYOMdNvkctHSm7ZAiLpi5K+URFHSFBByjcBiyA111sllW/jZbgelHRPRaFFjiIJVyeBoz5BymeuyivW1lV+EVh+tJvlKj/CLT/23brK61V5zeLqJHBUQWo/XpLtF2Nw6Wx4azqCWInNjUcQZ/4I4gy8czkE6QRoTUcQK7G58QjizB9BnIF3LocgnQCt6QhiJTY3HkGc+SOIM/DO5RCkE6A1HUGsxObGI4gzfwRxBt65HIJ0ArSmI4iV2Nx4BHHmn1GQr57M8n23pDc58z5drny348+SyrSW7xv2UCuI4ZbDQ5eaUp9NkP8Ob4f+G94l6eHK20QQ5GKlhJxSn0mQ8u3E8i3Fo10vnXzv/h8VG4ssyGl5oabUZxHkCkk1DVjRo7uE1H7pawVBzopy+Cn1WQS5RtJvd2ntMTetHfq2kiCn5A49pR5BxjR4710yC1LYHXZKfRZBeMXqVXj//ENOqc8iSDnehyTdvf85m1f4g6TrJb1ekbniK9bZsg83XyCTIOUgHpf02YpG9Ax5n6Q/Vi64uiCHm1KfTZDSh0WQMuS5NFsZDjHj+qWkn0t6QNLfDRtYXZCCovbPYwZs7aEZBWmnNT+zVpCZ39Vfako9gsxvessOIgjy//WEnlKPIJb2nB8bUZBTaiGn1CPI/Ka37CCyIKXOcFPqEcTSnvNjowsSbko9gsxvessOogtSag01pR5BLO05P3YFQQrFMFPqEWR+01t2sIogYabUI4ilPefHriJImCn1CDK/6S07WEWQMFPqEcTSnvNjVxEkTB0IMr/pLTsI01gbRYWpA0Es7Tk/NkxjIci+zbJKI4ymtAqXMHXwBBndwvveL0xj8QShEfYlcOG7I4gzdZ4gzsA7l0OQToDWdASxEpsbjyDO/BHEGXjncgjSCdCajiBWYnPjEcSZf0ZBMkx3b/lOeguXvafUt9QxVKFsgmSZ7m5trBFc9phSb61jqBzlZpkEyTTd3dJYo7jsMaXeUsdwOTIJkm30aG1jjeYyekp9bR27yJFJkGzT3WsbazSX2qFvYX7YkOUVa3QjjP4v1qzGGs1lVh2jz+Pc/bIIMvpVYvSBzHo1Gc1lVh2jzyOdIKXgTNPda1+xRnLZY0q9pY5dJMnyBDmFl2W6u7WxRnDZY0q9tY7hkmQTpADMMN29pbFauOw9pb6ljqGSZBRkKEDnm4X56c8GlzB1IIhzh3cuF6axEKTzpFcBuC+G8+6OIM7AeYI4A+9cDkE6AVrTEcRKbG48gjjzRxBn4J3LIUgnQGs6gliJzY1HEGf+COIMvHM5BOkEaE1HECuxufEI4swfQZyBdy6HIJ0ArekIYiU2Nx5BnPkjiDPwzuUQpBOgNR1BrMTmxiOIM38EcQbeuRyCdAK0piOIldjceARx5o8gzsA7l0OQToDWdASxEpsbjyDO/BHEGXjncgjSCdCajiBWYnPjEcSZP4I4A+9cDkE6AVrTMwrSMsXcynUr/ohT0Vu4HLGOLfamf59NkBFTzE2AK4KPMBV9BJcj1FGB2xaSSZBRU8xthLejZ09FH8Vldh3bpBsisggyesRmA+pLpswa2Tmay6w6Rp/HuftlEWT0kObRBzJr6PNoLrPqGH0eCLIb0bYbz2osBNk4ryxPkNGvEm0aXDxr1qvJaC6z6hh9HumeIKVgprtfuI1GcWG6+26ann/jvX4hNmKK+WgMR5iKPoLLEeoYfTap/ieep/BappiPBn/EqegtXI5Yx9CzyvJnkKHQJt5sryerd0lh6kAQ79boWy9MY22UGaYOBOlrWO/sMI2FIPu2xiqNMJrSKlzC1METZHQL73u/MI3FE4RG2JfAhe+OIM7UeYI4A+9cDkE6AVrTEcRKbG48gjjzRxBn4J3LIUgnQGs6gliJzY1HEGf+COIMvHM5BOkEaE1HECuxufEI4swfQZyBdy6HIJ0ArekIYiU2Nx5BnPkjiDPwzuUQpBOgNR1BrMTmxiOIM38EcQbeuRyCdAK0piOIldjceARx5o8gzsA7l0OQToDWdASxEpsbjyDO/GcK0jJN3BkPyx2UQOtUeXM5swQZMU3cXCwJSxKwTJU3A5ghyKhp4uZiSViSgGWqvBmAtyCjR12aCyZhSQK1I0/NxXsLMnpYsrlgEpYkUDv821w8gpiRkXBAAssIwivWAbtrgS0t84pVzmLUNPEFzpUSBhCwTJU3L+f9inW6wRHTxM3FkrAkActUeTOAWYKUjbZMEzcXSMKSBFqnypthzBTEvFkSIOBNAEG8ibNeKAIIEuq42Kw3AQTxJs56oQggSKjjYrPeBBDEmzjrhSKAIKGOi816E0AQb+KsF4oAgoQ6LjbrTQBBvImzXigCCBLquNisNwEE8SbOeqEIIEio42Kz3gQQxJs464UigCChjovNehNAEG/irBeKAIKEOi42600AQbyJs14oAggS6rjYrDcBBPEmznqhCCBIqONis94EEMSbOOuFIoAgoY6LzXoTQBBv4qwXigCChDouNutNAEG8ibNeKAIIEuq42Kw3AQTxJs56oQggSKjjYrPeBBDEmzjrhSKAIKGOi816E0AQb+KsF4oAgoQ6LjbrTQBBvImzXigCCBLquNisN4H/AXgUI/Z7Vj+YAAAAAElFTkSuQmCC;" parent="WIyWlLk6GJQsqaUBKTNV-1" vertex="1">
          <mxGeometry x="380" y="4" width="50" height="50" as="geometry" />
        </mxCell>
        <mxCell id="jZZy9cJ6slIVJ12cToO3-14" value="SPD运营服务企业" style="text;html=1;strokeColor=none;fillColor=none;align=center;verticalAlign=middle;whiteSpace=wrap;rounded=0;" parent="WIyWlLk6GJQsqaUBKTNV-1" vertex="1">
          <mxGeometry x="430" y="14" width="60" height="30" as="geometry" />
        </mxCell>
        <mxCell id="jZZy9cJ6slIVJ12cToO3-17" value="医疗供货商" style="text;html=1;strokeColor=none;fillColor=none;align=center;verticalAlign=middle;whiteSpace=wrap;rounded=0;" parent="WIyWlLk6GJQsqaUBKTNV-1" vertex="1">
          <mxGeometry x="172.5" y="169" width="65" height="30" as="geometry" />
        </mxCell>
        <mxCell id="jZZy9cJ6slIVJ12cToO3-19" value="公立医院" style="text;html=1;strokeColor=none;fillColor=none;align=center;verticalAlign=middle;whiteSpace=wrap;rounded=0;" parent="WIyWlLk6GJQsqaUBKTNV-1" vertex="1">
          <mxGeometry x="566.25" y="169" width="77.5" height="30" as="geometry" />
        </mxCell>
        <mxCell id="jZZy9cJ6slIVJ12cToO3-20" value="SPD信息系统" style="text;html=1;strokeColor=none;fillColor=none;align=center;verticalAlign=middle;whiteSpace=wrap;rounded=0;" parent="WIyWlLk6GJQsqaUBKTNV-1" vertex="1">
          <mxGeometry x="366.25" y="169" width="77.5" height="30" as="geometry" />
        </mxCell>
        <mxCell id="jZZy9cJ6slIVJ12cToO3-23" value="融资平台" style="text;html=1;strokeColor=none;fillColor=none;align=center;verticalAlign=middle;whiteSpace=wrap;rounded=0;" parent="WIyWlLk6GJQsqaUBKTNV-1" vertex="1">
          <mxGeometry x="375" y="434" width="60" height="30" as="geometry" />
        </mxCell>
        <mxCell id="jZZy9cJ6slIVJ12cToO3-26" style="edgeStyle=orthogonalEdgeStyle;rounded=0;orthogonalLoop=1;jettySize=auto;html=1;entryX=0.5;entryY=1;entryDx=0;entryDy=0;" parent="WIyWlLk6GJQsqaUBKTNV-1" source="jZZy9cJ6slIVJ12cToO3-24" target="jZZy9cJ6slIVJ12cToO3-7" edge="1">
          <mxGeometry relative="1" as="geometry" />
        </mxCell>
        <mxCell id="jZZy9cJ6slIVJ12cToO3-24" value="" style="shape=image;verticalLabelPosition=bottom;labelBackgroundColor=default;verticalAlign=top;aspect=fixed;imageAspect=0;image=data:image/png,iVBORw0KGgoAAAANSUhEUgAAAMgAAADICAYAAACtWK6eAAAAAXNSR0IArs4c6QAACvRJREFUeF7tnU2od1UVh39CEFGRAyECwQoaWANTB2JC1ERELAtqUBg0iEBEKMRZhOGggUbhQBQJgz4QB5VNaiAYlFqDPqAPGygFYhkNCnKQo2LDvS+X3o+z1977rH3WXs8BUXCts/d69no85733/19eJi4IQOCiBC6DDQQgcHECCEJ3QOASBBCE9oAAgtADEGgjwBOkjRtZSQggSJKDpsw2AgjSxo2sJAQQJMlBU2YbAQRp40ZWEgIIkuSgKbONAIK0cSMrCQEESXLQlNlGAEHauJGVhACCJDloymwjgCBt3MhKQgBBkhw0ZbYRQJA2bmQlIYAgSQ6aMtsIIEgbN7KSEECQJAdNmW0EEKSNG1lJCCBIkoOmzDYCCNLGjawkBBAkyUFTZhsBBGnjRlYSAgiS5KAps40AgrRxIysJAQRJctCU2UYAQdq4kZWEAIIkOWjKbCOAIG3cyEpCAEGSHDRlthFAkDZuZCUhgCBJDpoy2wisJshbJH1M0u2S3inp8jN/vaENkVvWa5L+deavn0j6kaTfue2Ahc4jsIogt0n6tKSPSCqSrHQ9K+lpSY9K+ttKhUWoJbogRYzPn4gRgXfPHv8q6TFE6UFoz40qyJslfUvSJ+wlh88oonxZ0jfDVxKggIiCvEPSDyTdEIDvnlu8T9JX9lyAe0vRBClS/IKDO0egCFJE4dqJQCRB3i7p1Z04RL7trZJ+HLmAI+89kiC/kfT+I8OcuLebJD03cf1ll44iyNclfWHZU+gv7EVJH5f0+/5bcYezBCII8iFJz3BsmwS+I+kzm1EEmAhEEOQpSR81VSWV17FfSXpB0q9P/vnfxnt4h79H0rWSrjv5+80NGyifICi/fecaRODogtwh6dvGWr8k6WuS/mPMO1r4vZLul/RGw8Z+KunDhnhCNwgcXZDyB88bDaf43pOnhiHl8KHfk/Qpwy5L7BOGeEIvQeDIglwp6WXD6X1Q0s8M8ZFCLa+Zj0i6M1JxR97rkQX5pKQnK+GVj118rjI2YtjbJL0iqXzEZuv6k6Srt4L493UEjixI+WBeTdM/L+kDdeWGjiqfVv5uZQXvkvSXyljCgr5i1f5isLxOlNeKDFdp+qsqCi2/E/lhRRwhGwSO/AT558mXnbYOMdNvkctHSm7ZAiLpi5K+URFHSFBByjcBiyA111sllW/jZbgelHRPRaFFjiIJVyeBoz5BymeuyivW1lV+EVh+tJvlKj/CLT/23brK61V5zeLqJHBUQWo/XpLtF2Nw6Wx4azqCWInNjUcQZ/4I4gy8czkE6QRoTUcQK7G58QjizB9BnIF3LocgnQCt6QhiJTY3HkGc+SOIM/DO5RCkE6A1HUGsxObGI4gzfwRxBt65HIJ0ArSmI4iV2Nx4BHHmn1GQr57M8n23pDc58z5drny348+SyrSW7xv2UCuI4ZbDQ5eaUp9NkP8Ob4f+G94l6eHK20QQ5GKlhJxSn0mQ8u3E8i3Fo10vnXzv/h8VG4ssyGl5oabUZxHkCkk1DVjRo7uE1H7pawVBzopy+Cn1WQS5RtJvd2ntMTetHfq2kiCn5A49pR5BxjR4710yC1LYHXZKfRZBeMXqVXj//ENOqc8iSDnehyTdvf85m1f4g6TrJb1ekbniK9bZsg83XyCTIOUgHpf02YpG9Ax5n6Q/Vi64uiCHm1KfTZDSh0WQMuS5NFsZDjHj+qWkn0t6QNLfDRtYXZCCovbPYwZs7aEZBWmnNT+zVpCZ39Vfako9gsxvessOIgjy//WEnlKPIJb2nB8bUZBTaiGn1CPI/Ka37CCyIKXOcFPqEcTSnvNjowsSbko9gsxvessOogtSag01pR5BLO05P3YFQQrFMFPqEWR+01t2sIogYabUI4ilPefHriJImCn1CDK/6S07WEWQMFPqEcTSnvNjVxEkTB0IMr/pLTsI01gbRYWpA0Es7Tk/NkxjIci+zbJKI4ymtAqXMHXwBBndwvveL0xj8QShEfYlcOG7I4gzdZ4gzsA7l0OQToDWdASxEpsbjyDO/BHEGXjncgjSCdCajiBWYnPjEcSZf0ZBMkx3b/lOeguXvafUt9QxVKFsgmSZ7m5trBFc9phSb61jqBzlZpkEyTTd3dJYo7jsMaXeUsdwOTIJkm30aG1jjeYyekp9bR27yJFJkGzT3WsbazSX2qFvYX7YkOUVa3QjjP4v1qzGGs1lVh2jz+Pc/bIIMvpVYvSBzHo1Gc1lVh2jzyOdIKXgTNPda1+xRnLZY0q9pY5dJMnyBDmFl2W6u7WxRnDZY0q9tY7hkmQTpADMMN29pbFauOw9pb6ljqGSZBRkKEDnm4X56c8GlzB1IIhzh3cuF6axEKTzpFcBuC+G8+6OIM7AeYI4A+9cDkE6AVrTEcRKbG48gjjzRxBn4J3LIUgnQGs6gliJzY1HEGf+COIMvHM5BOkEaE1HECuxufEI4swfQZyBdy6HIJ0ArekIYiU2Nx5BnPkjiDPwzuUQpBOgNR1BrMTmxiOIM38EcQbeuRyCdAK0piOIldjceARx5o8gzsA7l0OQToDWdASxEpsbjyDO/BHEGXjncgjSCdCajiBWYnPjEcSZP4I4A+9cDkE6AVrTMwrSMsXcynUr/ohT0Vu4HLGOLfamf59NkBFTzE2AK4KPMBV9BJcj1FGB2xaSSZBRU8xthLejZ09FH8Vldh3bpBsisggyesRmA+pLpswa2Tmay6w6Rp/HuftlEWT0kObRBzJr6PNoLrPqGH0eCLIb0bYbz2osBNk4ryxPkNGvEm0aXDxr1qvJaC6z6hh9HumeIKVgprtfuI1GcWG6+26ann/jvX4hNmKK+WgMR5iKPoLLEeoYfTap/ieep/BappiPBn/EqegtXI5Yx9CzyvJnkKHQJt5sryerd0lh6kAQ79boWy9MY22UGaYOBOlrWO/sMI2FIPu2xiqNMJrSKlzC1METZHQL73u/MI3FE4RG2JfAhe+OIM7UeYI4A+9cDkE6AVrTEcRKbG48gjjzRxBn4J3LIUgnQGs6gliJzY1HEGf+COIMvHM5BOkEaE1HECuxufEI4swfQZyBdy6HIJ0ArekIYiU2Nx5BnPkjiDPwzuUQpBOgNR1BrMTmxiOIM38EcQbeuRyCdAK0piOIldjceARx5o8gzsA7l0OQToDWdASxEpsbjyDO/GcK0jJN3BkPyx2UQOtUeXM5swQZMU3cXCwJSxKwTJU3A5ghyKhp4uZiSViSgGWqvBmAtyCjR12aCyZhSQK1I0/NxXsLMnpYsrlgEpYkUDv821w8gpiRkXBAAssIwivWAbtrgS0t84pVzmLUNPEFzpUSBhCwTJU3L+f9inW6wRHTxM3FkrAkActUeTOAWYKUjbZMEzcXSMKSBFqnypthzBTEvFkSIOBNAEG8ibNeKAIIEuq42Kw3AQTxJs56oQggSKjjYrPeBBDEmzjrhSKAIKGOi816E0AQb+KsF4oAgoQ6LjbrTQBBvImzXigCCBLquNisNwEE8SbOeqEIIEio42Kz3gQQxJs464UigCChjovNehNAEG/irBeKAIKEOi42600AQbyJs14oAggS6rjYrDcBBPEmznqhCCBIqONis94EEMSbOOuFIoAgoY6LzXoTQBBv4qwXigCChDouNutNAEG8ibNeKAIIEuq42Kw3AQTxJs56oQggSKjjYrPeBBDEmzjrhSKAIKGOi816E0AQb+KsF4oAgoQ6LjbrTQBBvImzXigCCBLquNisN4H/AXgUI/Z7Vj+YAAAAAElFTkSuQmCC;" parent="WIyWlLk6GJQsqaUBKTNV-1" vertex="1">
          <mxGeometry x="380" y="524" width="50" height="50" as="geometry" />
        </mxCell>
        <mxCell id="jZZy9cJ6slIVJ12cToO3-25" value="天阳" style="text;html=1;strokeColor=none;fillColor=none;align=center;verticalAlign=middle;whiteSpace=wrap;rounded=0;" parent="WIyWlLk6GJQsqaUBKTNV-1" vertex="1">
          <mxGeometry x="375" y="556" width="60" height="46" as="geometry" />
        </mxCell>
        <mxCell id="jZZy9cJ6slIVJ12cToO3-29" value="银行" style="text;html=1;strokeColor=none;fillColor=none;align=center;verticalAlign=middle;whiteSpace=wrap;rounded=0;" parent="WIyWlLk6GJQsqaUBKTNV-1" vertex="1">
          <mxGeometry x="175" y="424" width="60" height="30" as="geometry" />
        </mxCell>
        <mxCell id="jZZy9cJ6slIVJ12cToO3-30" value="1 供货" style="text;html=1;align=center;verticalAlign=middle;resizable=0;points=[];autosize=1;strokeColor=none;fillColor=none;" parent="WIyWlLk6GJQsqaUBKTNV-1" vertex="1">
          <mxGeometry x="275" y="110" width="60" height="30" as="geometry" />
        </mxCell>
        <mxCell id="jZZy9cJ6slIVJ12cToO3-31" value="1 下单" style="text;html=1;align=center;verticalAlign=middle;resizable=0;points=[];autosize=1;strokeColor=none;fillColor=none;" parent="WIyWlLk6GJQsqaUBKTNV-1" vertex="1">
          <mxGeometry x="480" y="110" width="60" height="30" as="geometry" />
        </mxCell>
        <mxCell id="jZZy9cJ6slIVJ12cToO3-32" value="下单&lt;br&gt;退换货&lt;br&gt;收货确认&lt;br&gt;支付" style="text;html=1;align=left;verticalAlign=top;resizable=0;points=[];autosize=1;strokeColor=#666666;fillColor=#f5f5f5;fontColor=#333333;" parent="WIyWlLk6GJQsqaUBKTNV-1" vertex="1">
          <mxGeometry x="643.75" y="122" width="70" height="70" as="geometry" />
        </mxCell>
        <mxCell id="jZZy9cJ6slIVJ12cToO3-33" value="产品维护&lt;br&gt;发货&lt;br&gt;物流&lt;br&gt;开票" style="text;html=1;align=right;verticalAlign=top;resizable=0;points=[];autosize=1;strokeColor=#666666;fillColor=#f5f5f5;fontColor=#333333;" parent="WIyWlLk6GJQsqaUBKTNV-1" vertex="1">
          <mxGeometry x="90" y="122" width="70" height="70" as="geometry" />
        </mxCell>
        <mxCell id="jZZy9cJ6slIVJ12cToO3-35" value="0 收款账户" style="text;html=1;align=center;verticalAlign=middle;resizable=0;points=[];autosize=1;strokeColor=none;fillColor=none;rotation=35;" parent="WIyWlLk6GJQsqaUBKTNV-1" vertex="1">
          <mxGeometry x="305.25" y="73" width="80" height="30" as="geometry" />
        </mxCell>
        <mxCell id="jZZy9cJ6slIVJ12cToO3-38" value="" style="group" parent="WIyWlLk6GJQsqaUBKTNV-1" vertex="1" connectable="0">
          <mxGeometry x="254" y="37" width="65" height="69" as="geometry" />
        </mxCell>
        <mxCell id="jZZy9cJ6slIVJ12cToO3-5" value="" style="shape=image;verticalLabelPosition=bottom;labelBackgroundColor=default;verticalAlign=top;aspect=fixed;imageAspect=0;image=data:image/png,iVBORw0KGgoAAAANSUhEUgAAAOEAAADICAYAAAAeEIaEAAAAAXNSR0IArs4c6QAADqpJREFUeF7tnQvQbWMZx39mpJpKxi2XVEKRpouUcotCzsglVG7JZdAoTY3ikHIMEkq5VVSIMl00JJXrYZBcUlGpVFQuxyWEJpNI8z+tfdo+33f2Xnuv9b7P2u//ndmzmbPW+zzP73n/31p7ve96n0VwMwETyEpgkazWbdwETACL0IPABDITsAgzJ8DmTcAi9BgwgcwELMLMCbB5E7AIPQZMIDMBizBzAmzeBCxCjwETyEzAIsycAJs3AYvQY8AEMhOwCDMnwOZNoA0RLgasACzf9720UZtABwncDegzr++78TCaEOGmwB7AmpXolmrcS3doAnEI9ER5PXAucBnwn3HcG1WEKwF7Au8FVh/HAZ9rAh0n8GglxkuBucBddeOpK8ItgB2qz6J1jfl4E5hwAk8CFwBHAjcMG2sdER4AHD1sxz7OBAom8FglRIlxYBtGhM8FTqp+9w3s0AeYgAksIHBlJcaLF8ZkkAhfA1wHPMdgTcAERiZwHLD/TGcvTIRzgENHNusTTcAE+gmcCuwzHZKZRLgOcK0ZmoAJNErgU8DhU3ucSYT3Ass2at6dmYAJiMDewFf6UUwnwrOBHc3LBEygNQLrAdf0ep8qQk3Af7U10+7YBExABLTSZtvpRKjlZjcCLzUnEzCB1gnsCpwlK/1Xwt2B01o3bQMmYAIicDOg29J/9ItQl8htzMcETCAZgcOAOT0Rrgbcmsy0DZmACYjARcDmPREeCHzGXEzABJISeARYsifCPwCrJjVvYyZgAiKwoUS4EXC5eZiACWQhMFsi3KX3qDSLCzZqAmUTOF8inA0cVTYHR28C2QjcJBGeDOybzQUbNoGyCcyTCL8PbFU2B0dvAtkIPCkRaqnaWtlcsGETKJyARHgfsEzhHBy+CWQjIBE+lc26DZuACcxfwG0ReiCYQEYCFmFG+DZtAiJgEXocmEBmAhZh5gTYvAlYhB4DJpCZgEWYOQE2bwIWoceACWQmYBFmToDNm4BF6DFgApkJWISZE2DzJmARegyYQGYCkyrC24De5yFglb7P4pmZ27wJPI3ApIjwV8DVwIXA+QNyvDKwBrBd9Xmhx4QJ5CTQdRHOraoIa+PiUdqKfWLccJQOfI4JjEugqyK8CTgeOH1cAH3nf7jqs8Eu3ZUJDCbQRRF+E/gocP/g8GofsUG185yL4tRG5xNGJdA1EX4O+NiowdY4z3U5asDyoeMR6JIIvw3sMF64tc4+Adiv1hk+2ARGINAVEerJp24VU7cfAbNSG7W9sgh0QYS/Brau5v1SZ0eFU691nY7U2Muy1wUR7tHwU9C6Gd4EuKTuST7eBIYlEF2Emgd8+7DBtHjcOdV8Yosm3HWpBKKLcFtg1In4JnO6I3B2kx26LxPoEYgswiuBtwZJ1WLAb/zbMEg2JsyNyCL8SLAVLKpkrIrGbibQKIHIInwJcEej0Y7X2frAVeN14bNN4JkEoorwCmDjYAlbHrg7mE92ZwIIRBXhecC7AvK9F1g2oF92qcMEoorwDGD3gFyvA94U0C+71GECUUX4hepNiWhoNU2h6Qo3E2iMQFQRHgbMaSzK5jqST4c21517MoG4BWH0wq6mKKK1rwO7RnPK/nSbQNQr4ZnA+wOi1RSFpircTKAxAlFF+ANgq8aibK6ju4AVmuvOPZlA3NtRLRF7dbAELd3SlhrBwrQ7qQlEvRKKw1rAL1IDWYg9vVL1tUD+2JUJIRBZhEcChwTirA2mdgrkT0pX9EqZNtbS54GUhke0pb1ktajiRUFehVtoGJFF+FvgVSMmoY3T/gJoPWtJTb/NTwUu6HDQ7wT2BraMGkNkEYqZNlo6KQC8DwEnBvAjpQunAXumNNiyrWOAj7dsY6Tuo4vw98A6wMMjRdfMSbq10XK1VzbTXSd60b46GwH/6oS3wzupzaJ3G/7wNEdGF6EofBI4Ig2Oaa3od+nhGe3nML1PdRuaw3abNl8X7GHf/Fi7IMInqjcqcvwu0VVYb/jrzfqS2trAjRMasKp0LREpti6IULz+Brw48e3RosCfCnwY0/vjHGmcNunL5dWtdpN9jtVXV0SoIP8IrDZWtPVO1u8iXQlLbK8Fbp7QwDXNooUXYVqXRChomrzXFoi6pWizacPhNds0ELxvLVI/K7iPo7j3CkAP+0K1rolQ8O4B3gdc2gJJzUt+p3ABCus3KsYtIM7apYoJHZvVg2mMd1GEvTC0+5k+TU1f6E3+/S3ABaNE9RonaW50M+CiaAKUP10WofxXmWwJcZyNebWXjSbj3xYxQZl90hsj8zL70IT5Tat1vys10VnTfXRdhD0edWrW6/G0JqK1sbC+NXfkNjMB7XJwSkfFKNEdUP2RDZvjSRHhVMC3VVWc9P0g8LK+z3JhsxHXsX9WDzR+B9wa180FnqnSsh6s6Tf+86L7O6kijM7d/pnAAgIWoQeDCWQmYBFmToDNm4BF6DFgApkJWISZE2DzJmARegyYQGYCFmHmBNi8CViEHgMmkJmARZg5ATZvAhahx4AJZCZgEWZOgM2bgEU4WWNAC9m1SbHWzKqUwC2TFd7Q0axY7cKwKrBB9EpaUUX4OKDt6TSIVKJahVhUL17fKbbhU336l1efVaq3+aNXYzqoeq1r6JFa0IHaP/VoYKmIMUcTod54kPi08Wy0v+IS5iZVpd5ZwZKpjW0PDOZTNHc2B34czSn5E0mEem9N4vtrRFBTfFLJbL0IvG4AX/8MrBzAjy64ELLIawQR3gfs3NKeMW0PjAgbA2tr98+2HeiE9L8ecHW0WHKL8IfAu4HHooGp4c9emXerfgdwcQ1/Sz70BcAj0QDkFKFuP+dEAzKiPzkLiGqnAD28chuOgHYHCFVXJJcIfwm8fjhmnTkq156Wk7IZU6pEa3uOlJtID4wrhwh1O6ANeMLdFgykNfgAPbAZZ+e3wRaeeYTq7uWo0zGKr7nPWQbQM4hQLYcIJ3V3515ivwR8IGGWJ+m2vm1sW0T8g5VahCUMGO3wpXqGz297RFX9qyTAWyJu754o/jpmzo9YsTe1CHUvrsIuk96OAmYnDFJX330T2uuiKZXNVvnvcC2lCM8AtNV8CU1rF1XVaMmEwZ4HfCLgSqOECKY1pTuT4wBN5YRsKUWoHa9VcLOUpqIqWoSQsv29WvSgVTS64whXgSgRjN66Xy3g1hLDxRPZHclMKhFqMKw+kofdPWk74Jzuum/PUxFIJcLvAdunCiqQnQcS35IGCt2uDEsglQhPAvYb1qkJOk6r9rV6380EZiSQSoQHA3piWFrTxL0m8N1MILsI9VRUT0dLayd76qC0lNePN9WVsNSV/kdU0wb1M+MziiGQSoQbA1cUQ/X/geotkUMLjNsh1yBgEdaANcKhFuEI0Eo7xSJsN+MWYbt8J6J3i7DdNFqE7fKdiN4twnbTaBG2y3ciercI201jThE+AWgN6Z3thhiud+00oLWji4bzbAaHLMJ2M5VDhFqZpCfRWq/773bDC9v7swAt3t60miJaNqynCfcd9RRF+6NA297rjYE72jfVKQt6cUCveO0S1WtfCdvNTKor4cPAEu2G0vneT6w2bA4XiEXYbkpSiXCPqnxAu9F0v3ftz6pb1FDNImw3HSlEWOprYqNkTmULfjLKiW2eYxG2Sfd/mxu3vWxNv3c+3W4YE9P7s4FHAT24CdMswnZTkUKE2sBI5QTchiNwI7DWcIemOcoibJdzChGW+prYqJlT1S9tPh2mWYTtpiKFCFWRSZWZ3AYTUI1JFZsN1SzCdtORQoR64hd2O7928dbufWtAW0OGahZhu+lIIUJFoAczekDjNjOBxYDbAS1rC9UswnbTkUqEikJ12VXp2G16AlcB60eEk0qEqkGRuz1VLdNr04/pbLQ9RdEfj2otqH59uLmwNqEP6PuDwOejTUv0+5xKhBlzUKTp2wB9VIvv/gIJrFy9SaG3KcLdfk7Nh0VY4Ah1yLEIWISx8mFvCiRgERaYdIcci4BFGCsf9qZAAhZhgUl3yLEIWISx8mFvCiRgERaYdIcci4BFGCsf9qZAAhZhgUl3yLEIWISx8mFvCiRgERaYdIcci4BFGCsf9qZAAhLhXV1Y5FpgbhxyGQQekwh/BryhjHgdpQmEI3C7RKh30LYM55odMoEyCFwjEZ4C7F1GvI7SBMIROEYiTLkFQzgCdsgEMhPYWCJcA7glsyM2bwIlEtD2iytKhGrXA28skYJjNoGMBM4Adu+J8GDgyIzO2LQJlEhgZ+DsngjXBm4okYJjNoFMBLQF44ay3ROh/vtcYJtMDtmsCZRGYHtAZe2eJsJNgEtKI+F4TSADgafVlOy/EsqXsyLX9s4AyyZNoA0Cug3V7ej8NlWEbwZ+2oZV92kCJjCfwNHA7H4WU0Wof1NxkYMMzARMoHEC3wXeM7XX6USoY04HdmvcBXdoAmUTWA64d1gR6riLgM3KZuboTaAxAuvO9FNvpithz/LlwEaNueGOTKBMAocsbDHMIBEKmUptuRxzmYPHUY9PQKXZvriwboYRoc7fB/jy+P64BxMohsCDgAT4rUERDytC9bMTcKy3whiE1P9uAlxYvSJ43TAs6ohQ/S1fXRX3shiHwetjCiPwc+B44Mw6cdcVYa9vi7EOZR876QTurMR3AvB43WBHFWHPzpLArL6P/t/NBEogoDLk5wCXAXOBh0YNelwRTrWreUVNaehKqVrhve+lRnXQ55lAZgL3APMAffc+FwNXNOVX0yJsyi/3YwLFELAIi0m1A41KwCKMmhn7VQwBi7CYVDvQqAQswqiZsV/FELAIi0m1A41KwCKMmhn7VQwBi7CYVDvQqAQswqiZsV/FELAIi0m1A41KwCKMmhn7VQwBi7CYVDvQqAQswqiZsV/FELAIi0m1A41KwCKMmhn7VQwBi7CYVDvQqAQswqiZsV/FELAIi0m1A41KwCKMmhn7VQwBi7CYVDvQqAQswqiZsV/FELAIi0m1A41KwCKMmhn7VQwBi7CYVDvQqAQswqiZsV/FEPgvTGQP7xZN4MUAAAAASUVORK5CYII=;" parent="jZZy9cJ6slIVJ12cToO3-38" vertex="1">
          <mxGeometry x="8.5" width="50" height="44.45" as="geometry" />
        </mxCell>
        <mxCell id="jZZy9cJ6slIVJ12cToO3-22" value="结算账户" style="text;html=1;strokeColor=none;fillColor=none;align=center;verticalAlign=middle;whiteSpace=wrap;rounded=0;" parent="jZZy9cJ6slIVJ12cToO3-38" vertex="1">
          <mxGeometry y="39" width="65" height="30" as="geometry" />
        </mxCell>
        <mxCell id="jZZy9cJ6slIVJ12cToO3-39" value="3 申请融资&amp;amp;修改账户" style="edgeLabel;html=1;align=center;verticalAlign=middle;resizable=0;points=[];rotation=55;" parent="WIyWlLk6GJQsqaUBKTNV-1" vertex="1" connectable="0">
          <mxGeometry x="306.25" y="260" as="geometry" />
        </mxCell>
        <mxCell id="jZZy9cJ6slIVJ12cToO3-42" value="5 资金服务&amp;amp;风控服务" style="edgeLabel;html=1;align=center;verticalAlign=middle;resizable=0;points=[];" parent="WIyWlLk6GJQsqaUBKTNV-1" vertex="1" connectable="0">
          <mxGeometry x="300.0033333333335" y="424" as="geometry" />
        </mxCell>
        <mxCell id="jZZy9cJ6slIVJ12cToO3-45" value="7 还款监控" style="text;html=1;align=center;verticalAlign=middle;resizable=0;points=[];autosize=1;strokeColor=none;fillColor=none;" parent="WIyWlLk6GJQsqaUBKTNV-1" vertex="1">
          <mxGeometry x="246.5" y="7" width="80" height="30" as="geometry" />
        </mxCell>
        <mxCell id="jZZy9cJ6slIVJ12cToO3-46" value="职责:资金服务&lt;br&gt;&amp;nbsp; &amp;nbsp; &amp;nbsp; &amp;nbsp; 风控服务&lt;br&gt;收入:利息及罚息" style="text;html=1;align=left;verticalAlign=top;resizable=0;points=[];autosize=1;strokeColor=#666666;fillColor=#f5f5f5;fontColor=#333333;" parent="WIyWlLk6GJQsqaUBKTNV-1" vertex="1">
          <mxGeometry x="40" y="384" width="110" height="60" as="geometry" />
        </mxCell>
        <mxCell id="jZZy9cJ6slIVJ12cToO3-49" style="edgeStyle=orthogonalEdgeStyle;rounded=0;orthogonalLoop=1;jettySize=auto;html=1;entryX=0.883;entryY=0.54;entryDx=0;entryDy=0;entryPerimeter=0;" parent="WIyWlLk6GJQsqaUBKTNV-1" source="jZZy9cJ6slIVJ12cToO3-48" target="jZZy9cJ6slIVJ12cToO3-7" edge="1">
          <mxGeometry relative="1" as="geometry" />
        </mxCell>
        <mxCell id="jZZy9cJ6slIVJ12cToO3-48" value="" style="shape=image;verticalLabelPosition=bottom;labelBackgroundColor=default;verticalAlign=top;aspect=fixed;imageAspect=0;image=http://yun.unionpay.com/static/image/up-logo.png;" parent="WIyWlLk6GJQsqaUBKTNV-1" vertex="1">
          <mxGeometry x="580" y="378" width="150" height="46" as="geometry" />
        </mxCell>
        <mxCell id="PS0XnDuhD4DgMV_kXT6x-0" value="职责:IaaS资源&lt;br&gt;收入：按资源使用量收费" style="text;html=1;align=left;verticalAlign=top;resizable=0;points=[];autosize=1;strokeColor=#666666;fillColor=#f5f5f5;fontColor=#333333;" parent="WIyWlLk6GJQsqaUBKTNV-1" vertex="1">
          <mxGeometry x="580" y="429" width="160" height="40" as="geometry" />
        </mxCell>
        <mxCell id="PS0XnDuhD4DgMV_kXT6x-1" value="职责:技术支持&lt;br&gt;&amp;nbsp; &amp;nbsp; &amp;nbsp; &amp;nbsp; 联合建模&lt;br&gt;&amp;nbsp; &amp;nbsp; &amp;nbsp; &amp;nbsp; 画像服务&lt;br&gt;&amp;nbsp; &amp;nbsp; &amp;nbsp; &amp;nbsp; 押品估值&lt;br&gt;收入;实时利息分润" style="text;html=1;align=left;verticalAlign=top;resizable=0;points=[];autosize=1;strokeColor=#666666;fillColor=#f5f5f5;fontColor=#333333;" parent="WIyWlLk6GJQsqaUBKTNV-1" vertex="1">
          <mxGeometry x="435" y="512" width="120" height="90" as="geometry" />
        </mxCell>
      </root>
    </mxGraphModel>
  </diagram>
  <diagram name="模式2" id="yXvsOl5Qk3DTLffmQ0_1">
    <mxGraphModel dx="1014" dy="761" grid="1" gridSize="10" guides="1" tooltips="1" connect="1" arrows="1" fold="1" page="1" pageScale="1" pageWidth="827" pageHeight="1169" math="0" shadow="0">
      <root>
        <mxCell id="960YlaPgqKJxBCtt3S__-0" />
        <mxCell id="960YlaPgqKJxBCtt3S__-1" parent="960YlaPgqKJxBCtt3S__-0" />
        <mxCell id="960YlaPgqKJxBCtt3S__-2" value="" style="shape=image;verticalLabelPosition=bottom;labelBackgroundColor=default;verticalAlign=top;aspect=fixed;imageAspect=0;image=data:image/png,iVBORw0KGgoAAAANSUhEUgAAAMgAAADICAYAAACtWK6eAAAAAXNSR0IArs4c6QAAEJRJREFUeF7tnXnwftUcx18ho8gy1iikUNmyRMrSQgYTsk/S2NNElsneoEER1ZSQRNZB09BinVC27ClFdrJmTSnZM+96fuY7z+9+v/dz7rnnPvc+531mfvP74/s5557z/tzXc+7ZPmcDnKyAFVhVgQ2sjRWwAqsrYED8dliBNRQwIH49rIAB8TtgBbop4B6km27OVYkCBqQSR7uZ3RQwIN10c65KFDAglTjazeymgAHppptzVaKAAanE0W5mNwUMSDfdnKsSBQxIJY52M7spYEC66eZclShgQCpxtJvZTQED0k0356pEAQNSiaPdzG4KGJBuujlXJQoYkPUdvRWwWSX+n2/mhcDPKm17Y7MNyNWy3As4DLg3cN3KX5C/Ap8HXgj8qHItMCBwMPDK2l+EVdq/H3BszdrUDojhaH/79wHe1262nBY1A7LF7BPimsvp2t5a9Rdgc+Cy3kqcUEE1A/J64CUT8tUiq/oU4D2LrMCinl0zIF+bDcoXpf2Unis4BEl1qWZAfgXcqjqPd2vwt2Yzfd1yTzhXzYD8DrjZhH03ZNU13XuHIR84lmcZkLF4Ytz1MCDj9k+R2rkHictqQOJaLY2lAYm70oDEtVoaSwMSd6UBiWu1NJYGJO5KAxLXamksDUjclQYkrtXSWBqQuCsNSFyrpbG8CLj5CFrzTeBLwCVzdbkBcH/gniOoowEZgROGrsKiANEKvrZunAl8GbiipeEbAfcDdgX2XtBhLgMy9Ns5gucNDYj2fh0EfCaz7Q8FDgG2yywnJfsPgTumZFgW25pX0ocC5PvAgcDHe35pHjM7BXm7nsttKs6ADCDy2B4xBCA6tnpk4YbrNKQOfpVMBqSkuiMtuyQgfwD0KaRdsEMkjU9OBjYp9DCPQQoJO+ZiS03z/mY2qB46OojGJJ8DblRAdANSQNSxF1kCkN8COy0wdM7dgC8W6EkMyNjf5gL16/sTS+FyFDZIg/JFJq2dfKHnChiQngWdQnF99iD/AXabxZMaQ9u1XtJnJBIDMgavDlyHPgFR0LmcABBXrtL2XWYLil2k+QiwZ5eMDXkMSE9CTqmYvgC5GLgtcGlG40sAoiOy3wP6CGtkQDKcO9WsfQHSx1pHCUDkl+OAZ/bgIAPSg4hTK6KPQbrK2LSHhpcCRHXTtHNu8kJhroITzN9HD6IV7Ff30PZSgKhqfYxF3IP04OSpFdFHD6J9UH0sCJYE5FHARzOd4x4kU8ApZs/tQfr8VS0JiLafKL7uNTKc1GdbM6oxfNaad/PmAnJ8TwNgeb0kICr/25nb4w3I8Gwu/Im5gOw7myXqoyGlAXkH8IyMihqQDPGmmjUXEO25Oqul8Tou+6YWG62h6F9T0vaVth3BOmvSZvMC4IgMRxmQDPFuCmiTnHaTXi+jnJJZjwH+OPeA3EH67YEft1RaM1yvKtmw2VmQtpk0Ha46KaMeTYP0WwLPyiizdFaNu84GzslZxM0ZgwiMo4Enlm5pD+VvC1zQMyBaqW67w28sgDwwY8uKZGsCRPc6fqMH3wxRhA6tvRz4e+rDugJyH+A0QJBMId1ptu1iZV1ze5CmMue1GAsgdwXOzXBU0yfWlABZB/mDgV+k6NAFEK3Oao/PDVMetGDbEoBoa3vbL+hYANEP2lczfLAMgKj55wN3SdGhCyD6nt8/5SEjsC3xiaXt7TrBt1YaCyC7A5/O8MPUP7FWNl2zee+MapEKiOy1e1VBzaaUmnqQ3FmspwEnBERoG0DfZo3rzfQZq4FmG4Rt1dCUdM51zk09yPbA19sePMK/nw7oByOUUgHZumGwG3rQgo1K9CCHzgZ+fTSt9DrI4YB2HXdNy9SDKFDfxlEhUgHR3L/CZE4tlRiDKACcBn19pNKAyGfyXde0LGOQde1Xrx0arKcCohCYCgowtVTiE+sfs09N/Z+bSgJy3Vnc35yDU8v0iSVfRdawrvJpKiA7zuLJ5r4QQ+cvAYjaoCOtikeVm0oC8mTgvZkVNCBBAXcAvhK0HZNZKUC0jfzRPTS0JCCfnQW+zqmmAQmqp7l/BWGeWioFyL9n+6h+nSlIKUC02q8wRKlfCvPNMSBBB09t9XRds0oBovK1GfFFQf1WMysFyLuAp2bWTdkNSFDEewR2jgaLGtSsJCCaNtQvte796JpKAKI2a3tJzuB8XXsMSNCz2rGrwzdTSyXWQVZq8EngYRmiNAGiYAuamv15x3K1iKfFvD7SMq2DSI9is1ja1q7tw1NLJXuQdVo8G3j7SITpe4uLe5CgY+8MnBe0HZNZiYXCpvZp1+yi9dEesdxbrObbtmwLhcV6EL1o2hE5tTREDyJNfg/cF/jpggTSCUYFrg5vpQjW0z1IUKjoXix9s2qDXFvSlvmmkDRafDuqLTOghcvXBexKj0FWVkGQaAGx7ThuoNpJJgrvo4DVJU515o5BpIdO+LUlfaJqwmNl0pUSe7VlnP39jKBdsR5Elf9BoBI6I60p4bakA1d6oebTW4DntGUG9gBODdgNCci66jxvduIyUL1sEwXPzp1qXqsSuYDcDNCtW21JV2LPX3ut3njLtoyzv682GzifvRggKlhitaUoIBJO2867AvII4JS2ygBDjUHmq6KeUOsQkV/PQDPWM9Gmuw8B2uFQMuWOQXQffdMP4XydmwBRYL7oRaULB0QV/UnAE1FAlrkHWSeTPhH2C4IckPb/JgqYoG3sJT6p5uvhHiTomS2CA9AoIMveg6yUVdurFZ9Kh6y6bk3ZZhbfSr1SibsIV3sN3IMEAVGXHlm4igJSQw/SJK2O6r4fOBG4vEV7/YjsM4seM/99HnRbtpl7kKCEmwG/DNgakIBIMxP1JhcC/5rLshGgHnsMkWMMSNCffQOyyE+s3DPpQcmWwix3HaSaQbqi6UW+n6M9iAGZBj8GJOinWwCalWlLBqRNoWn93YAE/bXaoHo++2XBbfEbzlbD5/NrJ2tbWE/luTGg/WFtaRELhW11mtLfc8cg2lUwP8Zqar8mIeanrRUuNHpITyFWI6nYQmEUkEglh7QZai/WkG0a8lm5PciQdY08qxgg+sWej5IeqdCibQxIngcMSFA/LU79OWg7JjMDkucNAxLUTyFHS+0rClahk5kB6STb/zMZkKB+uhDy0qDtmMwMSJ43DEhQP0Xp0wzV1JIByfOYAQnqdx1AUTzaUs0Hptq0meLfc6d5qzkwFQXEC4VTxGD1Ouf2INVsNbk2EAnWbEAMyEoFqgHkWsEVUQNiQKoE5BrAfwK+NyABkSZk4k+sBGdFzv0akARBJ2BqQBKc9N9AtHADkiDoBEwNSIKTFPK/LSCyAUkQdAKmBiTBSdq2rMH6WsmAJAg6AVMDkuAkTfNquteAJIg2cVMDkuDAvwEKKLBW0qnD4wJlauvKgQ123wA+Ech/x1m0jzbTRQWOa6vXVP6eG/ZHlwy1RW+RFor1temcKNocGwlDq2yvCgpa7DyInq+G9h0cOdiuzmbei9VZuqsy5vYgeU/vP3dRQP46UDS/PmUxIHlqGpAE/S4Brp9gPwZTA5LnBQOSoN/FgK4tmFIaOmiDPkMPBTSW+mdhoTRhotuHX1bw0zd3N29hCZKLL/qJpTPpOps+pTQ0IE3PK61XyevxDEiC93TPw00S7MdgOiQgbwYOWFCjjweeXuDZBiRB1CmG7BxymldTlYrivoikW72OLfDg3GneAlXKKrLoJ9ZFgPb3r5VqXknX1QTvznJf98xPmV2v0L2E5py5g/RqzoNIPkU9nF/MmZfVgPT9isbKMyAxnYr2IL8CbuUeZFUF3IOsL01VPYhuStrcgBgQ4OuxH+yrPsmruKNQeuiyl1sbEANiQJrfAd06elsDYkAMSPM7oFtu267l9SA9+O3Rs5kH6TFBiw7SNeW3lXsQ9yDuQZrfgR8AdzAgBsSANL8DFwBbGxADYkCa34HzAW3dWCvVfAXbMq6D5O7FquYKNkERASQ2VBrOasjzIMsISO5Wk+E8HXtS0UH6d4C7xOoxGisDkucKA5Kg3zmAzh5MKRmQPG8ZkAT9zgbunmA/BlMDkucFA5Kg3zcB3Wc9pWRA8rxlQBL00wa17RPsx2BqQPK8YEAS9PsqcJ8We281SRC0R1NvNYmJWXQW6yvADgZkVQU8zbu+NFVtd/8ysKMBMSBeSW9+B74I3M+AGBAD0vwOfB54gAExIAak+R04A9jZgBgQA9L8DnwW2NWAGBAD0vwOnA48yIAYEAPS/A58GtjdgBgQA9L8DnwKeIgBMSAGpPkd+Bjw8BZAfGAqtqLbt1WplXQfmErwVASQhOIGMfVerDyZvRcrQb9TgT0S7MdgakDyvGBAEvQ7GXhkgv0YTA1InhcMSIJ+HwH2TLAfg6kByfOCAUnQ7yTgMQn2YzA1IHleMCAJ+p0IPC5gfxhwRcDu2Q0X8ugWq8hNSbrAUpdXtqUhb5iqZbv7vWaXlLZpr7/rR/W7AcPdVtkIewSg68fb0jMCV3OojKLnQT4MPL6tprOLPv8csGsKAnEusF0g7ybApQE79yABkdYwye1BngjovWlLh6zyg6f7aHRxU1uKHOYrDsgHATW4LekmXAPSplK/fy+1DmJAEvz0AWCvgL0BCYjUs4kBaT8OXrwHeR+wd8CxBiQgUs8mBmQEgLwH2CfgWAMSEKlnEwMyAkBOAOSItmRA2hTq/+8GZASAvAvQVGZbMiBtCvX/dwMyAkCOB54e8K0BCYjUs4kBGQEgxwHPDDjWgARE6tnEgIwAkLcBWv1uS48Irn6qR9pyrjBdFKpV0ba0EfCJNiNgW0A3Y61MFzWs4AeKajVZxpX03PMgBwNntip3tc+f1GD3WOBPgfxvBbYJ2BVdSVcl9gtUYkwmXknP80buQmHe0/vPXRSQY4D9+69z0RINSJ68BiRBv6OB5ybYj8HUgOR5wYAk6HcUcECC/RhMDUieFwxIgn5HAs9PsB+DqQHJ84IBSdDvcOCFCfZjMDUgeV4wIAn6vRE4MMF+DKYGJM8LBiRBvzcAL06wH4OpAcnzggFJ0O9Q4KUJ9mMwNSB5XjAgCfq9FnhFgv0YTHVl3NfmKnI5sHGByi3jSrp2HWw6p5Ui/CvS/xRT0YXC1wAHTUwVjZtWfhYqrpfie5VIywiIdNoJOGuFYAqqsW8JAQcoMwmQVydWaJfADVOJRQ5i/k7gtNkNvZFIKF0rtayAKN6yItWcBzwhGJegq4al8+lErOIlbAgoMs6q/zYArixdm8rKX1ZAKnPj1c01IP273YD0r+nCSjQg/UtvQPrXdGElGpD+pTcg/Wu6sBINSP/SnwIoWuQikqJRTi3y/iJ0Cj/TgISlsmGNChiQGr3uNocVMCBhqWxYowIGpEavu81hBQxIWCob1qiAAanR625zWAEDEpbKhjUqYEBq9LrbHFbAgISlsmGNChiQGr3uNocVECA7h61taAUqU0CAOFkBK7CKAgbEr4YVWEMBA+LXwwoYEL8DVqCbAu5BuunmXJUoYEAqcbSb2U0BA9JNN+eqRAEDUomj3cxuChiQbro5VyUKGJBKHO1mdlPAgHTTzbkqUcCAVOJoN7ObAgakm27OVYkCBqQSR7uZ3RQwIN10c65KFDAglTjazeymgAHppptzVaKAAanE0W5mNwUMSDfdnKsSBQxIJY52M7spYEC66eZclSjwP82w0sNHg3ESAAAAAElFTkSuQmCC;" vertex="1" parent="960YlaPgqKJxBCtt3S__-1">
          <mxGeometry x="580" y="119" width="50" height="50" as="geometry" />
        </mxCell>
        <mxCell id="960YlaPgqKJxBCtt3S__-3" style="edgeStyle=orthogonalEdgeStyle;rounded=0;orthogonalLoop=1;jettySize=auto;html=1;shape=flexArrow;startArrow=block;" edge="1" parent="960YlaPgqKJxBCtt3S__-1" source="960YlaPgqKJxBCtt3S__-5" target="960YlaPgqKJxBCtt3S__-16">
          <mxGeometry relative="1" as="geometry" />
        </mxCell>
        <mxCell id="960YlaPgqKJxBCtt3S__-4" style="rounded=0;orthogonalLoop=1;jettySize=auto;html=1;entryX=0;entryY=0.25;entryDx=0;entryDy=0;" edge="1" parent="960YlaPgqKJxBCtt3S__-1" source="960YlaPgqKJxBCtt3S__-5" target="960YlaPgqKJxBCtt3S__-17">
          <mxGeometry relative="1" as="geometry" />
        </mxCell>
        <mxCell id="960YlaPgqKJxBCtt3S__-5" value="" style="shape=image;verticalLabelPosition=bottom;labelBackgroundColor=default;verticalAlign=top;aspect=fixed;imageAspect=0;image=data:image/png,iVBORw0KGgoAAAANSUhEUgAAAMgAAADICAYAAACtWK6eAAAAAXNSR0IArs4c6QAAFBpJREFUeF7tnQWwNkexhh88SHCCuzsEDxIgwd2t8HshIYTgkIu7Ownu7pAAAYIFCISLu0twCH5xr7dqv8v5D/85O93f7Mhud9WppOrvaXln3m93Zmd6jkVIIBAIbInAsQKbQCAQ2BqBIEiMjkBgGwSCIDE8AoEgSIyBQMCHQDxBfLhFq4UgEARZSEdHmj4EgiA+3KLVQhAIgiykoyNNHwJBEB9u0WohCARBFtLRkaYPgSCID7dotRAEgiAL6ehI04dAEMSHW7RaCAJBkIV0dKTpQyAI4sMtWi0EgSDIQjo60vQhEATx4RatFoJAEGQhHR1p+hAIgvhwi1YLQSAIspCOjjR9CARBfLhFq4UgEARZSEdHmj4EgiA+3KLVQhAIgiykoyNNHwJBEB9u0WohCARBFtLRkaYPgSCID7dotRAEgiAL6ehI04dAEMSHW7RaCAJBkIV0dKTpQyAI4sNtjq12Ac624e+sw/+fHPgucPTwX/2//n4yRxA25xQEWUIvb53j5YFrDH+XNkLxC+AQ4B3AEcDPje27UA+CdNFNWYO8FbAXsDegp0QueSfwIeC9wKdyGa1tJwhSuwfK+b8LoL9LFHD5fEB/3RMlCFJgtFR2UZIYm1PtnihBkMqjd0L3epW6T6EnxlgaIsqDgWPGFFv79yBIaz2SJ577Ak/KYyqblc8D+w/zlGxGpzYUBJka4fL2nzkMxPKe0zzuAzwvTbW+VhCkfh/kiuCUwMeBc+UyOKEdkfiACe1nMx0EyQZlVUNXBj6QKYI/Ab/Z8Pdn4GSb/nK4Ohy4eg5DU9oIgkyJbhnbewIfXMPVX4Z5wfuAtwJfTbC1+rioAX7BBP2tVB4BPHyN9pM3DYJMDvGkDq40fMX2OPkicNBAinW2jVwGuCtwR08QwHUAfWRsUoIgTXZLUlBXdK4IfQ949kCOPyR5SlPSa95+wE3T1HfQuhjwOUe7yZsEQSaHeBIHVwA+7LD8AuAhwE8dbVObiCAvB06Y2mBYXLhui/u5giCGXmxEVRsMP+KIRR8Nn+po52lyVeA1wG6Gxm9yPn0MLuyqQRA7ZjVb7AEc6QjgRsNcw9HU3eR4w4T/HAYL1wPebtCfXDUIMjnE2Rx4yXGVNVe51k3go8DlEo0cClw/UbeIWhCkCMxrO9EA00CzipaAtQW9tnwNOE9iEE09RYIgib1WUe2ywMcc/rXK5ZmrOFyNNjk78AngVKOa0NRTJAiS0GMVVfSN4SiHf03kPU8ch6vkJtcEDkvUbuYpEgRJ7LEKajoCq71VVtFcxfPEsfrx6Ov7i76VjImWiW8/plTi34MgJVC2+7gU8L/2Zuh1zEMqhytXk/MNee060vpHwBldHjI3CoJkBjSDuUsO7+tWU3ri6D2/dXkscGBCkNrnpQ2NVSUIUhX+/3Cu8+KfdIQkUvVy/ltPBu0DUzmh7eQpgA5+VZUgSFX4d3DuJYfafbqdNJIieVvC9w6dQLxokrUJlYIgE4JrML278wlwceCzBj+tqGrby5MTgjkz8IMEvclUgiCTQZtsWIPc8wTQr6t+ZXsUnXr8RkLgNbbI7BBWECShlyZU0TbvzzjsX3h4j3c0babJF4ALjURzL+DpNSMOgtRDX08Az+uRBtWX6oWdzbM2Jeqw1HYicogk1SQIUgf6izgPCF0A+EqdkLN7fRVw6xGrOgKs16xqEgQpD71ejzxzB31k06a/ucjBwL4jyegJqzlaNQmClIXeSw7thE2Z1JbNZj1vjwMeOGLi18Ap1nOzXusgyHr4WVpr7qCJqVXODXzT2qgD/SBIB51UKkSVxtHXY6ucE/i2tVEn+vGK1UlHTR2mJtaeVSedodBNTnOVmKTPtWcNeZ0f+LJBf6Wqi21UnmfOEsu8c+7dhNy06uRZkj0L8P0E+72rxIfC3ntwjfjPm1jCc7OLMwE/XMNvL01jq0kvPTVBnFqS9XyvOAPw4wniadFkbFZssVcKxOQlx+kmrnZYIHWTi9juboJrHsr6XvF1RyqnBX7maNdrkzgw1WvPrRF36jv1ZhenabEe7Ro4pDSNI7cpKM1IRx/zPF+6VSPqlzPCISWVKNqQgtKMdFR39luOfHRd2q8c7XpvEmV/eu9BQ/z60u3ZBqJiBbribGkSheMW1ONnA77jyPekwP852vXeJEqP9t6Dhvi1DcSzR+okwO8NfuakGsWr59Sb2+TiJceJgZzXnfUEd1x/0FNvrRGr9kgd7Wivq8h0tfISRVdT6+7CVGmmaPUq4DgwldZ1qs/k2V17AkDXLC9RrOSIK9g6HSXaQOjZXasryP7Wac7rhm0lhwpuxyWe66Jeob22RXgq+x0X+HuFeFtwaSWHYo5roFvoOWMM2l3r2Xp+bOCfRl9zUfeQQ7Wx3tkqADEH2XnPnB7QHRVWWTKeHnI8Ani4FeSS+kvu0K1wDnLYR6CHHB8EdANv0xIE2bF7dC7Dc2hpyTjOlhwaGkvu2M2/XDqX8RPHz9mSMZw1OYIg/2bDbs4TfUsmx/sdr0hdvFZt/JFccgevcNChJc+JviVj915gL+PTtjtyxBMETg0cY+xoD24PG15nm16xScTh3YAu2LRIl+TwdLQFlNZ1daLv544grU+OhwJazpQ0v6w5gsdhgM51WKRbciyZIDrR9wtLLw+6VnI8BHjkJj+9kuQdwLWNmHVNjqUSpBQ5HgQ8eosB1RtJDgG009Yi3ZNjiQTRXROeQgnWJ8f/AI8ZGU29kES3PN3AwgxgFuRYGkF0FtxTKMFKjgMBlbZJkdZJ8mbHFWha/rWucKVgVUXH2vlVgszg9GSAbiuyihUf3Ziki2Es0ipJ3gDc1JIIcLhjhcvooqy6dQCUjS6PNxVK8FQRsWLzAODxzpBbI8nrgJsbc9Hyr3WFy+iivLp1EJSPcD2PuwK/dZiw4nJ/4AkOPxubtEKS1wC3NOai7epjVzobTbahbh0IbUSdFoWqiHhK7FgxuR/wxLSQRrVqkyTl1qfNSRwKXH80s04VrIOhlzRLkSO1jL8Ft1okeTlwW0uggKq039DQRkcJtPx9d0ObqqpzJIhK7PzOgaoVi3sDT3H4SWlSmiQvBW6fEtgGHa1w3cTQRuTQtWu7A5qv5XrqGkKwq1oHhd1D2RYnchZns+JwL+CpE6dWiiQvBu5ozOWNwM0MbTaSY9XsxsBbDDaqqFoHRpUgE52q/pSnOJsVg3sCT0uMaV01bW5c7eNa19bO2r8A+C+jYa1wWSbxOyPHymXzd8BbB4cRy2LquwB/dHiz5n8A8HSHn3WaTEWS5wF3MQb2auA2hjbbkUNm3gfsbbBXXNU6QIoHmOBQxdk8lQutud8DeEZCPFOo5CbJc4B9jIG+0jiJHyPHyr02c+o4QJNiHSStJXF84M+OoKx57w880+EnZ5NcJEm9o2Nj7C8D7mBIRmf7tftXE/IUUXnSI1IUS+tYB0rp+Lbzp8qFnrKe1pz3AzSoWpB1SSKSi+wWeQlwJ0MDKzlk+hPApQ0+iqlaB0uxwEYclSLH3YCDWkl6iMNLEs2dNIeyyAuB/zY08JBjZV7fR1I3eRpCWk+1R4KorOdfHWlbc90XONjhp0QTK0n0vUbfbSyiSbxlnrIOOVZx6Uo7z8VElrxMutZBYzI+gfJxnAWhrXlqYGgi27Kkfid5EnBfYyLKXU/PVMlBDvmyznVS43PrWQeO21GGhqp56ykIbc3xrsBzM8RbwsQYSbSBUhspLaL5lmWekoscqxj3AD5mCXhKXevgmTKW7Wwrzn84nFvz64kcKzi2IknqfeQbYdUytj6EpkpucsivTjDeKDWAqfWsA2jqeLay76mWbs2th9eqrfDZTBKdhdek1yLaHWCZp0xBjlW8zVyTbR1EFsBz6WrLunbnWsSaV4urVZZ8pbsiiT68qZqKRZ4MaNt+qkxJDsWgZWUtL1cX60AqHfCRgN5JLWLNSVuvn2Vx0LCuSGL9Kq1dtdpdmypTk0NxaBOjNjNWF+tgKhmwZzuENZ+a20dKYrmVL52fVwWWVClBjlUsTVxEZB1QqUCuq+eZD1hzqbHxcF1ccrbXPMXyKiZy6DzHJXIGsY2tqwGqAVxVrIOqRLB6pVIBAMu8w5pHifMcJbDy+rBuECxNDuWlumIP9iaYq511YOXyu50dFQC4lsGRNYcpjskawq2uOvbtZHOANcihGJooPmcdXFP3rs4aaFt1qljjz1lgITXGlvR6IccKM2v/Zse6egCbMjoKuExilrrfTr8yqZKjNE+qrxb1eiOHMKx+PXRLBLGcubCuvngqHrY4yL0x9UgO5aoqK5Y3Ci8+W7ZrhSD6cvpx4FwJGaoCh6XIQEoh6QS33ar0Sg4Bbv0hzN5JrRBE27dTPnDp7vJLGm6i1SrIo7Kj1o/BnskhlN/kqA+ctXdaIYjmEnsmZGbp8J1dXpPgYjYqFqxWSavCiSqdtCKfMRzbnSTmFghyTuCbCdlZnh56Gs3hPsAEWHaq4iFHiyTRnfVn8IKQo10LBEn91Urt9NTXtRz4tWgjFaftYk/tk6nz130ump9WkxYIovquKcWPU4qMadVDNWaXKjnI0dKTRNdW6OKjalKbIKk1rbQnR3tzxuSTBfcKjcVS+t9zkqMVkuiiVV3VXU1qE0SD/j0J2Wvv1FhFQ1UJVKGBJcoU5GiBJN8DzlqzQ2sT5NaA7qQYk/MA3xhR0jnmy44ZmuG/W8lxWuCqgC7KSZVac5LPDV/TU+PMrlebICmFoFPeQ/WBcYxA2cFrwKCHHKp4qC3r+nFqnSR6u7hGTZxrE0RbmscO7HwBuMgISHM4MmsdB+uQY+WrdZJYC9dZMRzVr02Q5ydU7tMv3nVHMtGR2W5uLRrtlXEFDzl02Em7EDZLyySpftFObYLo7PHYFV4pRcx0oYvltqPxIdiuRk5ytP4kud5wirFab9QmiN4xx5ZvdbXygSMI6QTi1auhWM7xFORomSRnBLSDoprUJkjKraopl7Z4LqCsBrrT8ZTkaJEk2n6kj8NVpTZBVKxsrJLfR4ArjqDkqT9bFXij8xLkaI0k1SfoAqQ2QVLOaqR8LNKFkq83Drpe1EuSoyWS3KKFPq1NEN09oZWsMRmLU9sRjhkz0uG/1yBHCyRRkfKTOi9lzdrNYwMvq7OdGNMKVspVwNccSgFtF0/qpsepc8plvyY5apNEbwN6glSX2gS5EKAPgWOSUlh5rxYKjY0lkvjvLZCjJkn0w6kfvOpSmyAC4NvA2UeQ+BIgMo2J597vMZul/70lctQgSROrV6vEWyBI6t152oiowg7bieYi7+p4y3uL5PCSJHV+ubk/VbtM1eabkBYIom0khyagocm8LrgZEy0JiyQnGlNs7N9bJkcpkvwS0MdBz733k3RnCwTZdahScuKEDLWX6FMJeim7hBPMFFPpgRwlSNLcTbctEETAvznx2q3Up4hsHg7sXWyI+x31RI4pSXL0MBf13CbmR3+kZSsEsRzISX2K6HShThm2LD2SYyqSqBigigI2Ja0QRKB8ALhyAjqqoaUNjn8b0T3IeJVxguusKj2TIzdJVNH/OlnRzWSsJYLoyi1V0kuRlH06Ov/QJOgb7hNMyVU6Oia71XmOVBtT6d0KeK3B+ObVLb1SaQn/ywYbxVRbIoiSFkFS76bbrpBDajGIYkBvcDSHJ8dm3NYhia7Ba/aOyNYIolcsvWqligab5hqqwLcSzTt0SY4KPbQmcyTHCmMPSdTfuhOmWWmNIALK+jX8t4Aqmnx9uJkqpUJ8jQ6ZMzm8JDluwlyyRl/9v88WCXKaYU/VWKGGqsAZnS+BHF6SGKEsq94iQYTAlYAjykIxmbclkWN2JGmVIAJa20qeO9mwLWPYSg5FpRW6O5cJb1Iv1jnJpMF4jbdMEOX0DECrHD2KhxyrPB86LAX3mPfGmLsnSesEEdgplU9aG0jrkGPja4oKVvQuXZOkB4JogPR058d+wMGZRvUFh9fMK2SyV8PMK4Db1XCcw2cvBFGu1wZUZbFV+etwn94hEwT4BEDXWPck2gp0QMYfiyq590QQAXTR4cNg6l3qpUDViUf9Sn56QocqjKeDRBee0Ecu0zrfo4NPX8tlsJad3gginHRqUKtbrZQa1Vb9fQpWVdH8RpP4FuW7w+vwy1oMzhNTjwRZ5amqF/sDl/cknqGNbr3SXCOlKksGdzuYOP9AklvmNuy0p5OAerrpXvNZSc8EWXXEvgNRNGhKyJEDMVpYYbrK8CpzrRKJ78THt4an+bNbOiabE4s5EER4qMiYniaaB0y1SfGo4SPei3J2QCZbpxuq5KsauhYzphRtT1c1ff1AvHVKRy3YngtBNmKpog3a7q46WXusCbJWzQ4bdhg3eV5hJ/ntMuS+5/D6uS4GcvEdQAfV9E1K51J+tyau3TSfI0E2gq8JvaoyauOjNkHuNvxX/68/iUqWrv5+Nvy/CkOIGNop3LscB9h9wOACw+GkMwF66uiW4WMPO2p/D2gu8VNA58NVn0qrc1qZU33kRcrcCbLITo2k8yEQBMmHZViaIQJBkBl2aqSUD4EgSD4sw9IMEQiCzLBTI6V8CARB8mEZlmaIQBBkhp0aKeVDIAiSD8uwNEMEgiAz7NRIKR8CQZB8WIalGSIQBJlhp0ZK+RAIguTDMizNEIEgyAw7NVLKh0AQJB+WYWmGCARBZtipkVI+BIIg+bAMSzNEIAgyw06NlPIhEATJh2VYmiECQZAZdmqklA+BIEg+LMPSDBEIgsywUyOlfAgEQfJhGZZmiEAQZIadGinlQyAIkg/LsDRDBIIgM+zUSCkfAkGQfFiGpRkiEASZYadGSvkQCILkwzIszRCBIMgMOzVSyodAECQflmFphggEQWbYqZFSPgSCIPmwDEszROBf7EH25+INmvkAAAAASUVORK5CYII=;" vertex="1" parent="960YlaPgqKJxBCtt3S__-1">
          <mxGeometry x="180" y="119" width="50" height="50" as="geometry" />
        </mxCell>
        <mxCell id="960YlaPgqKJxBCtt3S__-6" style="edgeStyle=orthogonalEdgeStyle;rounded=0;orthogonalLoop=1;jettySize=auto;html=1;entryX=0;entryY=0.5;entryDx=0;entryDy=0;startArrow=classic;startFill=1;endArrow=none;endFill=0;" edge="1" parent="960YlaPgqKJxBCtt3S__-1" source="960YlaPgqKJxBCtt3S__-11" target="960YlaPgqKJxBCtt3S__-17">
          <mxGeometry relative="1" as="geometry" />
        </mxCell>
        <mxCell id="960YlaPgqKJxBCtt3S__-7" value="4 申请受理&amp;amp;修改账户" style="edgeLabel;html=1;align=center;verticalAlign=middle;resizable=0;points=[];" vertex="1" connectable="0" parent="960YlaPgqKJxBCtt3S__-6">
          <mxGeometry x="-0.0933" y="2" relative="1" as="geometry">
            <mxPoint y="-13" as="offset" />
          </mxGeometry>
        </mxCell>
        <mxCell id="960YlaPgqKJxBCtt3S__-8" style="edgeStyle=orthogonalEdgeStyle;rounded=0;orthogonalLoop=1;jettySize=auto;html=1;exitX=1;exitY=0.75;exitDx=0;exitDy=0;entryX=-0.072;entryY=0.756;entryDx=0;entryDy=0;entryPerimeter=0;" edge="1" parent="960YlaPgqKJxBCtt3S__-1" source="960YlaPgqKJxBCtt3S__-11" target="960YlaPgqKJxBCtt3S__-17">
          <mxGeometry relative="1" as="geometry" />
        </mxCell>
        <mxCell id="960YlaPgqKJxBCtt3S__-9" style="edgeStyle=orthogonalEdgeStyle;rounded=0;orthogonalLoop=1;jettySize=auto;html=1;" edge="1" parent="960YlaPgqKJxBCtt3S__-1" source="960YlaPgqKJxBCtt3S__-11" target="960YlaPgqKJxBCtt3S__-5">
          <mxGeometry relative="1" as="geometry" />
        </mxCell>
        <mxCell id="960YlaPgqKJxBCtt3S__-10" value="6 放款" style="edgeLabel;html=1;align=center;verticalAlign=middle;resizable=0;points=[];" vertex="1" connectable="0" parent="960YlaPgqKJxBCtt3S__-9">
          <mxGeometry x="-0.3285" y="-1" relative="1" as="geometry">
            <mxPoint as="offset" />
          </mxGeometry>
        </mxCell>
        <mxCell id="960YlaPgqKJxBCtt3S__-11" value="" style="shape=image;verticalLabelPosition=bottom;labelBackgroundColor=default;verticalAlign=top;aspect=fixed;imageAspect=0;image=data:image/png,iVBORw0KGgoAAAANSUhEUgAAAMgAAADICAYAAACtWK6eAAAAAXNSR0IArs4c6QAADDhJREFUeF7tnVvIrkUVx//SRSeCQiz0oizUyi4qLKTooBdtKwkq0KzsQNEZTILoUr0rCnZZQUF2oAzsZIRRdKAtSQeSMgyJspLCIiOjtKigAytmw3b3fd9e87xrzTPzzO8BcV/MrJn5rfl9633e9zmcJA4IQGBfAifBBgIQ2J8AgrA7IHAAAQRhe0AAQdgDEFhGgAqyjBu9JiGAIJMkmmUuI4Agy7jRaxICCDJJolnmMgIIsowbvSYhgCCTJJplLiOAIMu40WsSAggySaJZ5jICCLKMG70mIYAgkySaZS4jgCDLuNFrEgIIMkmiWeYyAgiyjBu9JiGAIJMkmmUuI4Agy7jRaxICCDJJolnmMgIIsowbvSYhgCCTJJplLiOAIMu40WsSAggySaJZ5jICCLKMG70mIYAg6yf6KZKeXv47JOnPko5IulnSdyX9cP0pzjsDBFkv9+dJeqOklxwwhX9IOizpGkm3rzfVeUdGkPa5f6WkyyU9uXLoGyS9V9I3K/vRfAcCCLIDvIquD5H01iLGyRX99mp6a6kqH9sxDt0dBBDEAWmHJmcXKV63Q4z9utq5ilWUqyXdnRCfkJIQJGcbPLeIcUFO+P+L+vEiy48bjTfNMAgSm+rXFzEeHxvWHe1bRZQvuXvQ8EACCLL7BjlV0luKGA/ePVxIhF8WUT4s6Z8hEScNgiDLE39OOfF+xfIQ6T3/VUT5oKRfpY+2wQEQpD6pLyzV4tn1XVft8TlJ75N006qzGGxwBPElzD46vbaI8Whfl25b/aBUlU93O8OOJoYgByfjTElvKGLcr6O8RUzl90WUj0q6KyLgFmMgyN5ZtY9PduJ90RaTvseaPiTJTuhvmWS97mUiyH1RvbSceJ/rJrithl+RZCf0X97WspavBkGkR0h6VfkYZV/Zcki3lY9f10r628xAZhbELha0E2/7KMWxN4G/FlE+IennM0KaUZALy4n3C2ZM+A5r/pSkj0i6cYcYw3WdRZAHSXp5qRZPHC5LfU3425LspH6Kr4m3LsgZRQy71Pxhfe2z4Wfza0kfkGSV5XfDr2afBWxVkGdJshuT7ByDI5+AXXZvJ/R2m/Cmjq0Jcomk10h6zqayNM5irpdkl95v5mriLQjycEmXSrJLzR87zl7a9EztQRN2Qm9V5S8jr3RkQZ5UxHizpAeOnIQNz/2P5YTezlN+OuI6RxTk+UUM+9WbYxwCdg+9VZShHjoxiiAPKFLYifczx9kTzHQPAl8v33xZVfl374R6F+QxRQw78X5U7zCZXxWBn0k6WlV+U9WzYeNeBXnGMSfevc6xYZo2PdTfywm9VZTv97bS3jbfxUUMLgPpbae0mc8XynmK/b+LowdBTim/dttXtXafNwcErJLYCb1VlT+tiWNNQeyaKLs+yk687ZJzDggcT+BOSZ8ssvxkDTxrCGIPVbNqYXJwQMBLwESxivI1b4eIdq0Euf8xH6POj5g4MaYlYL+j2Mcv+y/9mV/ZgtgTQKxSWMXgMpBp93TKwu2X+aPnKXekjJD4bF57mvm7ihj2bw4IZBG4p3z0eock+3fokVFBHleu6Jz1wQehCSKYm4B98/Xq6Gu+MgS5UtIV7mXREAJxBOw1E3YVcdiRIYg9YdxeL8YBgdYErpJkf6DDDgQJQ0mgDgggSAdJYAr9EkCQfnPDzDoggCAdJIEp9EtgCEHsBN1O1Dkg0JpA+Dl1eMBCxO7nsEfunH4CQnzb1XoLjTnekRNM257LZQ/tuDd6eVmCeOd5lqTrJNkDGDggcDyBb0iy3zbSLiU5EfK1BbH52SvN7HlKHBA4lsAvJD1v7Ydm9yCIQeHXd+Q4nsCLe/jD2YsgBsdeA2Z3F3JAwJ58cqgHDD0JYjzs7Ub2+rMn9ACHOTQlYO8isRf32P3o72w68gGD9SZIL1yYBwT+RwBB2AgQoIKwByCwjAAVZBk3ek1CAEEmSTTLXEZgREEeWn5A2uUhEF+UdMsyZFprfLtsx24p3eWwl9ss/VU6YvzPS7p1lwW07juaIHbt1uGgS1PsRZRvqgS+1viXS3q7pNMq53t8899Kend5tXNNqKjxbcz3S7qsZvA1244miP1OYi/MiTjsocmPlPSHimBrjf+joD8KtlSrnPaO+JojcvzbJZ1ZM/iabUcTJPp+d3uI3YmuFD02P2uN/5/gTVKb97XHD16+P1wtKH/knJZrbdCjq1lr/LU36Nrj5+wmR1QEoYI4tokQxEOpgzZr/QWngsQmf5g/zMNMtOQHQWI2am3eqSAx3NOjIEgMYgRxcqwF5Qyb1gxBYtDW5p0KEsM9PQqCxCBGECfHWlDOsGnNECQGbW3eqSAx3NOjIEgMYgRxcqwF5Qyb1gxBYtDW5p0KEsM9PQqCxCBGECfHWlDOsGnNECQGbW3eqSAx3NOjIEgMYgRxcqwF5Qyb1gxBYtDW5p0KEsM9PQqCxCBGECfHWlDOsGnNECQGbW3eqSAx3NOjIEgMYgRxcqwF5Qyb1gxBYtDW5p0KEsM9PQqCxCBGECfHWlDOsGnNECQGbW3eqSAx3NOjIEgMYgRxcqwF5Qyb1gxBYtDW5p0KEsM9PQqCxCBGECfHWlDOsGnNECQGbW3eqSAx3NOjIEgMYgRxcqwF5Qyb1gxBYtDW5p0KEsM9PQqCxCBGECfHWlDOsGnNECQGbW3eqSAx3NOjIEgMYgRxcqwF5Qyb1gxBYtDW5p0KEsM9PQqCxCBGECfHWlDOsGnNECQGbW3eqSAx3NOjIEgMYgRxcqwF5Qyb1gxBYtDW5p0KEsM9PQqCxCBGECfHWlDOsGnNECQGbW3eqSAx3NOjIEgMYgRxcqwF5Qyb1gxBYtDW5p0KEsM9PQqCxCBGECfHWlDOsGnNECQGbW3eqSAx3NOjIEgMYgRxcqwF5Qyb1gxBYtDW5p0KEsM9PQqCxCBGECfHWlDOsGnNECQGbW3eqSAx3NOjIEgMYgRxcqwF5Qyb1gxBYtDW5p0KEsM9PQqCxCBGECfHWlDOsGnNECQGbW3eqSAx3NOjIEgMYgRxcqwF5Qyb1gxBYtDW5p0KEsM9PQqCxCBGECfHWlDOsGnNECQGbW3eqSAx3NOjIEgMYgRxcqwF5Qyb1gxBYtDW5p0KEsM9PQqCxCBGECfHWlDOsGnNECQGbW3eqSAx3NOjIEgMYgRxcqwF5Qyb1gxBYtDW5p0KEsM9PQqCxCBGECfHWlDOsGnNECQGbW3eqSAx3HeKcrakiyWdJenUAyKdt9Mo9+18ZEGsyPGvco5/hbOdt1ntuiPXbHPcb/x7JN0m6asHtPGuMaRd7V+SkEH3CHKRpM9kBSfukAQOS3rb2jPvQZALJd2wNgjG75LAdZIuWXNmPQhyraSXrQmBsbsm8DRJ31trhmsLcoqku9ZaPOMOQcDO065ca6ZrC2Inf/bNFAcE9iOAIOwNCBxAwL7xOn8tQlSQtcgzrpcAgnhJ0W5KAlMLYhm3byjOnTL1LNpDwD5e1f6w6YnrarP2R6yjk3yPpHNcM6bRLATukHSNpJvWXHAvgqzJgLEhsC8BBGFzQOAAAgjC9oAAgrAHILCMABVkGTd6TUKghSCnSzok6amSzpiEK8vMJXC7pDvLLRJ2/0jakS0I93mkpY7AhYDdZPfZLBqZgthdgTdLOi1r8sSFgKR7JV0g6TsZNDIFsUuUo28VzWBAzPEJ2D1Fl2YsI1MQ+4xI9cjIGjGPJ3C3pJMzsGQKEv0kjIz1E3M7BFL2ckrQwhxBtrP5RlhJyl5OCYogI+ynzc0xZS+nBEWQzW2+ERaUspdTgiLICPtpc3NM2cspQRFkc5tvhAWl7OWUoAgywn7a3BxT9nJKUATZ3OYbYUEpezklaKHJL+kjbKttzDHt2VmZghj6F0m6bBs5YBWdErha0vVZc8sWJGvexIVAEwII0gQzg4xKAEFGzRzzbkIAQZpgZpBRCSDIqJlj3k0IIEgTzAwyKgEEGTVzzLsJAQRpgplBRiWAIKNmjnk3IYAgTTAzyKgEEGTUzDHvJgQQpAlmBhmVAIKMmjnm3YQAgjTBzCCjEkCQUTPHvJsQQJAmmBlkVAIIMmrmmHcTAgjSBDODjEoAQUbNHPNuQgBBmmBmkFEJIMiomWPeTQggSBPMDDIqAQQZNXPMuwkBBGmCmUFGJYAgo2aOeTchgCBNMDPIqAT+C2EbW+dIwI/4AAAAAElFTkSuQmCC;" vertex="1" parent="960YlaPgqKJxBCtt3S__-1">
          <mxGeometry x="180" y="374" width="50" height="50" as="geometry" />
        </mxCell>
        <mxCell id="960YlaPgqKJxBCtt3S__-12" style="rounded=0;orthogonalLoop=1;jettySize=auto;html=1;startArrow=none;startFill=0;" edge="1" parent="960YlaPgqKJxBCtt3S__-1" source="960YlaPgqKJxBCtt3S__-37" target="960YlaPgqKJxBCtt3S__-16">
          <mxGeometry relative="1" as="geometry" />
        </mxCell>
        <mxCell id="960YlaPgqKJxBCtt3S__-13" style="edgeStyle=orthogonalEdgeStyle;rounded=0;orthogonalLoop=1;jettySize=auto;html=1;entryX=0;entryY=0.5;entryDx=0;entryDy=0;shape=flexArrow;startArrow=block;" edge="1" parent="960YlaPgqKJxBCtt3S__-1" source="960YlaPgqKJxBCtt3S__-16" target="960YlaPgqKJxBCtt3S__-2">
          <mxGeometry relative="1" as="geometry" />
        </mxCell>
        <mxCell id="960YlaPgqKJxBCtt3S__-14" style="edgeStyle=orthogonalEdgeStyle;rounded=0;orthogonalLoop=1;jettySize=auto;html=1;entryX=0.5;entryY=0;entryDx=0;entryDy=0;" edge="1" parent="960YlaPgqKJxBCtt3S__-1" source="960YlaPgqKJxBCtt3S__-16" target="960YlaPgqKJxBCtt3S__-17">
          <mxGeometry relative="1" as="geometry" />
        </mxCell>
        <mxCell id="960YlaPgqKJxBCtt3S__-15" value="2 数据采集" style="edgeLabel;html=1;align=center;verticalAlign=middle;resizable=0;points=[];" vertex="1" connectable="0" parent="960YlaPgqKJxBCtt3S__-14">
          <mxGeometry x="-0.0496" y="4" relative="1" as="geometry">
            <mxPoint as="offset" />
          </mxGeometry>
        </mxCell>
        <mxCell id="960YlaPgqKJxBCtt3S__-16" value="" style="shape=image;verticalLabelPosition=bottom;labelBackgroundColor=default;verticalAlign=top;aspect=fixed;imageAspect=0;image=data:image/png,iVBORw0KGgoAAAANSUhEUgAAAMgAAADICAYAAACtWK6eAAAAAXNSR0IArs4c6QAAHW9JREFUeF7tnQmYJEWVx3/ZGTU9rnI4CDI4coMi9yU4KwsqKMgpAirggYhcCjIKeLEqXrggKIKsAyi4nuCBILCcIsuxyIqAouKB3AweKIfuzFRkh9+byGZ6mq6uiMijqrIivq+/cZf3Xrz4R/4rMiNevJcQW0QgItARgSRiExGICHRGIBIkPh0RgWkQiASJj0dEIBIkPgMRgTAE4goShlvUGhIEIkGGZKLjMMMQiAQJwy1qDQkCkSBDMtFxmGEIRIKE4Ra1hgSBSJAhmeg4zDAEIkHCcAvVUqOwRgZrJLCGsf8uGIMFI7CgDQuwfwtDO4h65SIQCVIunuPWRlLYOYHtxokArAG8wLG7v+VEWZDAt9pwEfCoo24UKxGBSJCSwJwBLxmDnYGdgFcCM0oyPW7m8gS+34YrgPtLth3NdUAgEqTAo6EsIV6VE2KLAqZ8VX+YwBVt+C7wiK9ylHdHIBLEHaunJVsgZDjGwIEB6mWqPAycreFLkShlwrrUViSIH64rK5gn5ABG/VQrlRaizNcwPxKlXJwjQRzxbMERYzAvgXUcVXohFolSMuqRIF0ATWGPxK4YO5SMfZXmHk7gxLZ99YqtAAKRINOA14KjDXyuAL49VTVwZgbv6qkTA955JEiHCVRwCvDeAZ9fcf/HGl4NLG7AWGofQiTIMyGfpez26SC9UnV7cB5LYKc23NZNMP73ZRGIBJmARws2NXB7Ux8SA2/N4KtNHV8V44oEyVFtwVEGPl8FyBNtGrg3gXvzf+9LYC0Da2H/5lTdfwLz2nBa1f00xX4kCNCCd5oKdnwSuG8MLk3gQg33Yv+mazNGYS0NG8gJfWJDVl5SwcM2V8PNFdhtnMmhJ4iCHYGrSpzZnwLXAJdruK6o3RnwYmO/h7Y38Mai9sb1U1h3Efy+LHtNtTPUBJkJa2u4G1AlTPAlBuZn8MMSbE1pQsEr8p21XUvo40ENGwJPlGCrsSaGmiAK7irhFaZyYkx++lrwNmO3oDcq8mTKq18b9itio+m6Q0sQBd8H9iowwbcaOLHKFaOLb8vlcWEfLTAGDHwxgyOL2Giy7lASRMFngONCJzb/5ZWH6k+hNsrSa8FB8pADMwvY/JiGQkQr0Hdfqw4dQRS8DLgpdFYMnJPBIaH6VeiNwnr5SrZ+oP0/K9hmIdwTqN9YtaEjSAu+bmD/wBk9RcOxgbqVq7Xg2yb8m+I0bUP5Y5uAwFARJL8BeHngE/B5De8J1K1NTdlDwBA/2wm8tN3gSIKQSRg2gsgWbMgW6c0a5oYA3Aud0A0IA+dm8I5e+NyvfQ4NQVLYL4Fv+06Egd9lsJ6vXo/lWwp+AmwW4McOGn4coNdIlaEhiILrge08Z1HS7+ym4UZPvZ6Lt2BzA9cCK3o68x0N+3rqNFZ8KAjSgkPklNt3Fg3sk9nQ94FsLThYdt18nTfw2gxCv9V8u+tr+aEgiIJLZCXwmYk8YdubfHT6UVbBZcAuPr7Fm4hL0RoGgsxR8IDPA5LLNiLiNSQYU0LxMxt+P/St8QTJ45a+4jPTBs7I4N0+Ov0sm8JZCRzm46OB3XsYRuPjaqWyw0CQC4zfR+djKWy7CH5bKfI1Gh+FdTMbPbCya7dxy9ci1XSCLK/gcdeHIpdrZFxSCmcmcIQHFgs0zPaQb6RoowmSwr4JXOAzcwls24ZbfHQGQTaFvRP/HbmdNFw9COOrysdGE6QFvq9Xd+iww7Wq5qdUuwr+DKzkatTAWZnfquNqemDkGk0QhVx38Gof1/DvXhoDJNyCbxl4g4fLt2vY3EO+caJNJsgqyrPoTFNfr8af2oBXzsdHYLsxeI62ZRYk9+9QJaBrLEFmwMZjcKfHT9ojGlbzkB9I0YBVdfI4/5IT5REDkgNYiHO1tmEtjWuNJYiyhW18PjAv02GRvgP1UKRwj+TiqsDpvxn4HnBZZsny1wr6qN1kYwmSwv4JfN0VUQPnZXCQq/ygyin7oyE/HlW2RYBUwbqmbUkzsPUVG0uQFrzH+GUQPFkXuKde5dNWpu0Uzk5qvPMhyfMkMkHDGYNYvbexBFHwaeD9Hg/XcRpO9pAfSFEFHwQ+2QPn70zgC+2A6OIe+Pp0l40lSArnJvB2V3ANHJTBea7ygyqXwpsS+EYP/b8+j3W7sIc+OHfdWIIom+HQ+XqtgV0zGxre6NaCzQz8rA8G+T1ts8M81ge+dHShyQSReuJSOMapGdgzg4udhAdcqISt3rIQ+NkIHLgYflmWwbLtNJkgsoTv4wpYAke2bQK2xjdlD/z6JRBRrjXvo23C775rg06QmSnsnsBWBlZKbJyR/M0C1gae5YH4SRo+4CE/sKIjcNRIDbVQfACSmvOZx7a8j+0isoNIkNkp7DgCu3ve85gWpwS+1oY3FwFzkHRTOENWzT7z+X0aPttPPg0MQVrwDgN7ALtXBOB12pYXGJqm4CPYm5OdInwl97CEkjxlYHYCq3quyt5YJnBoOyDBhndHjgp9T5D8HoNMYtVFNYf2gpCagG0CT7UtKRYA2RTP0QqjsGpmv2EkEYb8YIXmBO70mG6n4QbHZ7hSsb4lSD5pQoy9K0VgqfExDWlNfTWqmxZsY2zmFCHLFmUMbgQ2Xgy/KMNWERv9SJDlUji1znCIcQB1868gF3lWXHRnKDgKOLqEgqQPa9gGeNCl46pk+oogUo9vzJ5mCzC1t0iQ0iCXVEtCEiHLjAJWJYz+dfINVMBGIdW+IUgeni73x2WLtictEqRc2FuwRV7cp8gPXk9TofYFQVJ4SwLnlzs93tZu0P65e707GUYFBT/A7kAGNal5kkFPYrd6ThBlD+c+FYRciUojsNdiO5GxVYBACqcn4cn4rtewfQVudTXZU4IE3JHuOqBAgRO1PROIrUIEUtglCQwITeCQXoTK94wgLdja2BoWVTU55JKcvCPAmh3KANw9BqePDUkMVlVA+9hN4W0JeKWCze3fme9qLfTpr6hsTwgyCutk8Luizk/Q/xVwqfyl8MAiuzUo1z4nthVbsKbJ62Wk8PAi+E2JPkRTjggo+0odEvd2rIZTHLspRawXBJmV39WQarNF2hPAaQlc3sRMiEWAGQRdZeuP7Ozjq1zfbdsjgNruuNdOEAUXAXv6ADNZVhIry2FiP98jKDK+YdDNt4Bv9j0nkQ/9tr3fXkurlSAteLeB0wuM7A7geA1yGSq2AUdA2RwA7/McxiW6wJaxZ1+1ZneflcItCazr62QuL+cUrwf+GKgf1foPATlxl1Vkjodri/MEf5LArvJW2wqi4KOEb6VerAu+llWOZOwgCAFlVxCvbDJ1JtiohSB5ARcpKRASRtLIeh1BT1MzlSTAUVYRnyjg2sJPaiFIgVPUSI5mkmKZUSmbp0vydbm2JzSs4CpcRK5yguSrh3c5s1ibosi0DpZufvfnR55ev0bDlZ463uKVEyRw52ro61J4z+SAKwQk1f609lt1ghCqnCAhdboTOLpdbDs4CIyo1DsEfGso1pVsvGqCPE+BxEQ5NwP3ZLaqkZyUxzYkCAS8Zl2p4TVVw1MpQVrwdjn19hzECRo+4akTxQccgVF4UQa/9hjGzzVs4iEfJFopQUIuyqTw4kVwd9BootIgI7CCAsmy6Nr+ouF5rsKhclUTxLeI5o0aXh46mKg32Ago+IdP3i0No1XXTKySICvlZYd9Zi2ee/ig1TBZ350sbUvJ3VslDJURZBTWzzxflUZgwxihW+V097dtBTcCcz28nKvtKXxlrTKCKJD7Hjd5eP64zi8zeehE0QYhoECitZ0/vEdgk8Xw8yohqIwgKeyWwCUezteyK+HhTxStGQFlI7VXdu1Wwyp4HiO42h6Xq5Igvql8LtU212tsw4lAqkB7DF1raHnIB4lWRpAWHGPgVFevYuyVK1KNlXuB8kgzmsADbVi9ajQqI4iCD+F34Dc0BWyqntRBtN+yRZBu9fD9Vg0v9ZAPEq2MIC04TFYFV6+k8mobDnCVj3LNQiCv/3K2x6hquURXGUECksLF1J8eT0fTRBV816fUhYEvZXBY1ThURhAFr8SjMGMC97dhjaoHHO33JQLPUiB3zH1qStZyqFwZQVqwqYHbfaYjZlf3Qas5sinskXjmRa7rULkygkimCmVTf/q0nWNKHx+4miEbUFD0Lg0b1TH6Kgkiy6YEn/m00zTM81GIsoONQB6SJCEmPpG5tbxeCbJVEgRla8xt6DGFtf0yePgURStEIIX5krnds4vKY7DG/amaIN65sBLYNuba9XxcBlRc2dy8kqPXp9X6I1opQVqwpYH/8xm9gfkZHOqjE2UHEwEFVwOv8vT+VA3v9dQJFq+UIOJVwGuWvPdt1YafBo8qKvY9AgqOB04KcHQXDf8doBekUgdBBAQBw7nFVcQZqoEUDDhEXjLOBC5sw351DroOguwIXOU7KAN7Z/B9X70o3/8IKFgAPD/A0+01XB+gF6xSOUHy1ywptba1p5dPjsDcxXYnLLaGIKDsJTrv4kkGzsn8d7sKo1YLQVpwkIEvB3j7kPZLjR/QRVSpCwEFnyXsnGvhCGyzGO6sy9fxfmohSL6K/Bj4t4AB3qJh2wC9qNI/CKyq4NuB8y+jOEXDsb0YTm0ESeGNCXwzcJAPjcCOi/0SiwV2FdXKRCCF1yfwX56BiBNdeDSvbntfmX652qqNIPkqIqXTXu3q3GS5BA5uh72qhXYZ9QIRkEyJGo5O4PBAE0vUEji0DfOL2CiiWytBUtgzsUU8g5ts9RmQmK1K070EOxgVn6vgaOAo4LkF4aj1UHAqX2sliDhQoJjOZP+FJHLnXWqix9Z7BFZuwT7GkuNFJbhzmYZdS7BTyETtBMlftS4DdinkuVWWXK7XJnBNGy6sOgVMCf42zYSQYl9js6xLyMizyxhgnuF/nTJsFbXRE4LkK8lvC1S87TTu6xJ40MCDkvViDB5MIZH/uyhQw6pvYFYC64/BkwmsCsyWf4393ztUgUueQPDxKmz72uwZQST+37d2iO/govzgIZDAlm24rV887yVBJOuX97XcfgEu+lE6Av/QsB7wcOmWCxjsKUHE79AinwXGHFX7DwHJqrkHMNZvrvWcIDkgSsHFJX249xvG0Z/pEfikhg/3K0j9QpAl+Cg4ETihX8GKfpWLQALvasOZ5Vot11pfEUSG1oJDDfxnucOM1voMgSsNnJH5Zf/vyRD6jiD5SiJFVN4HvK4nqMROq0LgJzkxJDZrIFpfEmQcuRSkhIIQZeOBQDM62QmBuxM4ow1nDBpEfU2QHMzllA11FqL4pKYctLlonL8GfpfA+Rq+APTFwZ8vyINAkCVjasHmxqaJkdPbV9j/V2z9hoCQIk/lc3nmn9Kn34ZTbeK4Cke7Qgpy130n+Utg7Qr7iqa7I/BrbG7dHzQtynpgVpAuc7T8DJgzBi9MYI6BFxqYI/dHus/tMhKVpxoysFoCs139MvBIUv3p8nLA+q4+Ab8EDk/hkUXwCPCUh+5AiTaFIFOCrsD4zEYd2eUV+GabrDwPrbKvrT/ywOo6bV9zG98iQSZMcSSI8/MeCeIMVR8LxhXEbXLiCtIZp7iCxBVEQnziK1YHjkSCRIJEgkyz0EaCRIJEgkSCuL2Lx490N5yA+JHuDFUHwRZsZmAvOZNIYHWW/knIwf3jfwZuzmw6+yeL9jlZP36kuyEav0Fq+khvwRbGRuDK7bBN3KbHSkm+K9mLb8N3yspOEgniNgN9TpAVFWwjP7IGVp/w7/0G7pfy4fKvBkmQ/le3EbtLlfINMgrrZXAk8C6b+iq8Gfj9CJzahi+GW7GakSBuCPYbQfLSbNvncXc+eZlvAa438JPM/tAWbkUJIldlP4IlR9EsepMHc51kUMzsVdygFgniBlu/ECT3Q56lfdw8n1aq8POTv9kEuzJLwXnA7sEW3BRP1nCcm+iyUpEgbqj1miAzYKMM5iVwkJvH7lIJfE2yw7fhDnetpZJBK8hMWEvb4pyzQjoN0LlJw7/66kWCuCHWS4IomGvg/AqSCE4c/GMJnBDy2u5NkBZsY+B/3aAvV8p3GzYSxA3/XhEkhV0SkDS0tTQDZ2fwTp/OvAiSrxz3+HRQsuzlGl7rajMSxA2pXhAkvyX6H24eliolObh2c7XoQ5Bn5/XlvLZvXR3xkHP+JokEcUO1boKk8NoELnXzrnwpA2/JbFGfrs2ZICnMT3pQRHGqEUhRlrZDaqBIkK7zv0SgZoKsqUC2Y1dx864yqVdqhzswTgRR8HLgfypz1d/wL/KyXP+YTjUSxA3YOgmibGnvvdw8q1TqN9qWbJg2878TQVrwLQNvqNRdf+PHaTg5EsQfuMkadREkhQPzeoXFnS7HghRhmjedqa4EKeF9UX4x7sxPN2+cAbMz2CqxddPlHkLQN42EGLThpcCjnQYYVxC3p6gmgozm37BbuHlVm9Tc6RJNdCVIC75q4M0B7i42sHc2/cfYci04M9C+xG91/BZpwTHGlmhzbVJNVYrCVNqG9U66gvcDnw4FV0KQElsnXRJr3AhsKbVEDGzpmXBiGRckBrAN+3XyqxtB/kXZrBXLew7sZm1romsXPWXfBa92kZ0k88c8w8ZkVTnA9F2Z7tSwaYAPXipDTBBJDRRSu/AhA0dl8L1OQKfwNuAjCazpNRm58Ahsshh+PpXutAQJrEr7lAZJI+PVZsAmY4HhAF4ddRa+SNeQC7gfCTIDNhizqXxc20MaNnC9oqBsFMQNrsbH5QycmdkAWKcWgO0Suwkc0YazvAkS8nEur0uZjX/xbgo+Q2DclXdnkxQSOKYNnytqp5t+wCRWnvZHfFawCJjRzf/x/y4xTgbOdZE38NbE/sr7tKAVPQ+eldRKzi2Bb7ThAG+CKPurIr8Urq3oZL5AgSzFz3HtsCy5BDZvw+1l2etkp48JciuwVdXjd7U/Ahssts+Cd1PwELCaq2K+4bNGCEEkY55zaV8Du3X5KO/qs7IfYFL+oLZm4LysgkjSqQbQxwT5FPCB2kCfvqNjNZwS6ksL3mngSz76nSrrTvcNspKCP3t28nxAPpyDWwpnJXBYsAFPRQP3ZjZL4L2eqkHifUwQqXUuV5973rT92L4v1JGZsLaG3/vod/pQ70iQPJu6TzleOZkM2aVYZhwpvDmBr/oMroisgf0z+GYRGx66qyg4O7+S7KrmHHvmarCD3PIK7gLmFLRTVL2s50hKL6zj6kynt59hJ8jxGiqPKG3BwQZeX6BI6cUJXNx2/Ch2fSgmyylbg2Xa6IRQ2656CXyzDfu7yneSU/bKrWDu1DrtZA3zK1blqWsUyGvLMdh/y2hXABIeIf9W0WYouBno5Wn3Z7UlaqGm7CGxYO/aPqDhpMnC056DKJvWvnEf6VIkNIPDXZELkBtN4cyA8gtOXcn2agZHA393UvAQSmHfBC7wUClbtJQfLt/NHgMHZPANX4LUvc07W8FvKtzmvcTA/Ax+WPasTrAn3xlyV3+XCvsQ03cq2Gsh/KHsfhQczxS/pmX308Hek9pe5XaKwuhgo6XgMc/naDs9xWHmtCtICy4wsK8PMAZ2zQKvUQbs8Li4Jh+eUv3o+gpfTZb4MQrrZvBbF6fKkklg27a9X1FqU7Z615WlGnU3Nm0AYTczcs89j9fqJvr0f9cg5yCS0HCZ1i3UxHu5laCyDNZ19mypoKweD3vqPQHsOYXO4hQeXWQjfWupfhQQEes51M7iI7DhYr9QEae+851MOR+R2pB1Nvkxk7xYQS2Fr/ie3HfKd9AtWPF5Cv4U4KX3ibqyWVIkMtOnSU28nl++6SU5xsGqiiRiPy/HfQSwjc/kFJGV6rht//AUCZmR2pVXefZ9g4btptLpRhDpUF5PJJWob5M8REdqezLesSk4DXiPr/FcvtCJa2Cfy6i1YCtjv2nkkLRnTVbuFPaoYiUZH5QENRrYycA6CTzfuI9ZsPEJWRrv8jXa4zUv5IAw7+gk3SGKoCtB8j38cwrM/HQXpiQkfrNA24sSmNsGn8PMwK6mJfhFHV7zSu/LwWBfrKhT+LlaHh/lMIRniHxQO9wjKRKBMV2IVFeCiLvKhiCUtZcfAtJUOh1ZX1YH3ewoG6JybTe5mv+7UzKCmn0q8iYirl6bJze/rW2TVC9pUkEA2NrYV7HQ+L0HNWwESNWBZzRXgvRNnI6MIN8IeFlZWeBDH5YCty2X6TK/LZcVuRk3blDufLfhLaFjqkqvxO802XQZ/171vnc0eXwJzGvb1/wpmxNBRDOFc6o6+PKdlASODEkj6dvPdPL5t4eEiIe2jxm4I7NZKuXWprRVUtg6v68vScGDmui37UPUVy0/PJWP/X5pcvN12pXHmSDAyincVHEO1a7A+d4y62owUEDBh4GPB6j/RRJ+T5coIP9Bkgwgcsst5G7MJzScEOBbpSqjsE5mQ1lWrrQjR+MG9stsXZqOzYcgIQnGHF11FvuVhpc4S1coqOwvv++2523acys7zwQir5M+Leg2nk8HobItOMx0uN4aajNQz+kb1osg4kgLjpBf8UCnCqlpmA0sKGSkBOWAO9zSq9Z2NZCrrT5NarBIzJXzdVgxXtcNSZ+BjMsW2XEK6W+yTgJfb8OBLra8CSJGUzggr7vg0kcZMn9P4OV1XIl1cTYkJEYugbU9b7lNeKB2Tfzjx7wPa13GXpaMgst7cEIv7j+mYSXXcQQRRIwrm9ZHzjiqrhFylYZdgbbroKqWS+HcBN7u0c93tGdM22Tbyqa9kfqPTs3AlzM42Em4R0IpnJ7Au2vsXlLWbuzTXzBBpJMWbGpAYnWcSxJ4OCdxVnL3wStDhYf9YFFlQxkkpMG1vV/bjC3BLWDVulrbgMO+biH3x0MGlEdxH+qrW4gg452l8IbE5i+SJNeFm9x3SOHUKsMmijip4G7PM4tX6YIHigEpYEu5uloEJ1fd/PmRhBFVJO67y8DJGZzv6s9EuVIIMm6wBYcYu5pIzt0VPR2Sgcg28nerDkv39OsZ4gr+H5jpakfbzJRF68CvoOBvrn0CCzU8y0O+16KSu/dIA0cmsHYJzoy/gcjNQvnfQa1Ugkz0ID853cHAC6W2NUv/5Ehf4u6X/Bn4WQtuXAi9rFzlBZ6yO2nOwYlFcjyNOyaFLsc6pMfs4HwtuYa9gHMTlghyeRuR4rAhV3/l/s/VIzC/jDeQygjihsVgSikbDyTZ6Z1akWyTE1bnQ+WqsFOHVuhWbbPfD2zLoxXkvo9878mP7FTJ4OQOkfzYXiE7fWVHEESCBDw+vhkzgNO1vUMe3ALODuRVtYx648E+V6CoZsLqGlZXcP9CS4wiV3O7uhgJ0hWiZwoEZMyQk23ZwAj9DpmZn6hv7uFu1+IwHraGVjQSJGDqQzJ/FImyVfAh4BM+rnbK0uFjI8ouiUiILQCB5VTYzsiOGq7x6S8wrEXeO2QXcco7Dj79D7tsJEjgExCS8UW6SmHdRY55YxVIkOJNAS561ZMPsD80KpEggVPdgsMNfDFE3eU+i7LZzd8baP+oNnwhRDfqLItAJEj4EyFpiuRSknMdikldXS2Z5RO419g6GGNyQJYnRFjPM5RloumHta3zMX4JK3yEUTN+gxR5BgLio4p056rb11G8roPoF7m4ghSbiaKrSLHen6kdV4+SEY0EKQhon60icfUoOJ+T1SNBSgA0dEerhK4nmjhVB37Ul+xHo8xFgpQ0nQp+AWxYkjlfM9dov/spvvaHVj4SpMSpV0tSdtXfOiVert+T5vUYCVLynCpb+qHq2iDjXvdt9pKSYe2ZuUiQCqBXtu7hsRWYftpkkdiuKv1qmu1IkIpmVNIjjcE8n0qrLq5ImtIROLXXmSVdfG2CTCRItbO4soJ5eTHJ0YJdST4tCWGXK6QhNVsKdj+c6pEgNcx7C7Yw9gqpfJv4ZmO8TkqhJXBFr0s91ABV33URCVLzlEiRlwx2NbC6gRVGYAX5V9xI4PExeFz+TeAPbbgEeKBmF2N3ExCIBImPQ0RgGgQiQeLjERGIBInPQEQgDIG4goThFrWGBIFIkCGZ6DjMMAQiQcJwi1pDgkAkyJBMdBxmGAKRIGG4Ra0hQSASZEgmOg4zDIF/AoeS7SOPZ5EGAAAAAElFTkSuQmCC;" vertex="1" parent="960YlaPgqKJxBCtt3S__-1">
          <mxGeometry x="380" y="119" width="50" height="50" as="geometry" />
        </mxCell>
        <mxCell id="960YlaPgqKJxBCtt3S__-17" value="" style="shape=image;verticalLabelPosition=bottom;labelBackgroundColor=default;verticalAlign=top;aspect=fixed;imageAspect=0;image=data:image/png,iVBORw0KGgoAAAANSUhEUgAAAMgAAADICAYAAACtWK6eAAAAAXNSR0IArs4c6QAAFcpJREFUeF7tnQfwPTURxz+igApWVFQQxYZKsaIIimUUe2+jiChiwwZ2miiIZey9V8SCvSsoYEGKBQt2RQRFUaSIqCiI88W88c/z7t4lt7nk3tud+c+PGZLd7Dfve3dJNruXwMURcARaEbiEY+MIOALtCDhB/NfhCHQg4ATxn4cj4ATx34AjkIaAv0HScPNeK4KAE2RFJtrdTEPACZKGm/daEQScICsy0e5mGgJOkDTcvNeKIOAEWZGJdjfTEHCCpOHmvVYEgVoIsimwOXBl4ErAFYC1KpyDfwBnAGcCpwFfq3CMPiRDBEoSRGR4BLAjsI2hT2OqElkOAQ4GjgIuHNO428qPQAmCbADsDewGrJvfxdEsfB94LvCl0Sy6oewIjE0Q/YD2DJ9Q2Z0rZOBI4GnADwvZd7OGCIxFkGsAH5/wp1Qs5P8EdgUOiu3o7etCYAyCaH3xaeCqdbk+ymjeHN4m549izY2YI5CbIFsBxy3ZWiN2Ej4JPCC2k7evA4GcBLk6cDygv6su+wH7rzoIU/Q/F0G0O6U3h94gLv/d/n0goLeJy4QQyEUQPS33nRAOYwz1bODagP66TASBHATRAeDJwHoTwWDMYR4I7DOmQbc1DIEcBHkN8PRhw1ra3ueGt8ifl9bDJXPMmiDrAGcBl1kynCzd0UHpSy0Vuq58CFgT5O7AF/INdyk0Hw1suxSerIAT1gTRwdgTVwC3IS5qR+tqwOlDlHjfcRCwJsipgMJKXLoReAzwHgepfgQsCaJQkj/W73IVI3wtsHsVI/FBdCJgSZAbAD93vHsh8D5g514tvVFRBCwJsnU4PS/q0ESMfwa470TGutLDtCTIHQDdhXBZjIBwutPiZt6iNAKWBLkjcERphyZi/6uA8HKpHAEnSJkJcoKUwT3aqhMkGjKTDk4QExjzK3GC5Me4yYITpAzu0VadINGQmXRwgpjAmF+JEyQ/xv4GKYOxiVUniAmM0Ur8DRINWZkOTpAyuDtByuAebdUJEg2ZSQcniAmM+ZU4QfJj7GuQMhibWHWCmMAYrcTfINGQlekwNYJ8FzgnM1TC5CbAVTLacYJkBNdS9RQIcgLw7BAIqfocY8kmoTzDSzIYdIJkADWHytoJogwpe+RwPELntYDPA1tE9FnU1AmyCKFK/n/NBDkmJDeooSjNjYEfAJcymjcniBGQudXUTJDrAr/ODUCEfhX9eVFE+66mThAjIHOrqZUgWndsmdv5SP0bA6dE9mlr7gQxAjK3mloJ8kbgKbmdj9SvZHh/i+zjBDECrJSaWgnyDuBxpUBpsat0RkprZCH+BrFAcQQdtRLkMGCHEfyPMXEv4LMxHTraOkGMgMytplaCnAeodvrvcwMQoV81Fq0qRTlBIoAv2bRWggiTjwAPLQnOGra3A75hOBYniCGYOVXVTBD5/XLgOTkB6KFbB4X65NusR9u+TZwgfZEq3K52ggieQ4GXAYePjJWHmowMeI3mpkCQGW4qOqPzkdziwYq5EZ6Q/ikRZEKwLhyqf2IthKiOBk6QMvPgBCmDe7RVJ0g0ZCYdnCAmMOZX4gTJj3GTBSdIGdyjrTpBoiEz6eAEMYExvxInSH6Ma3iDqDSF6iJeCVAd+0uXcbvT6r+Bs4EzgDPDjuVJpcfpBCkzA7nfIJrX2wM7Ag8JxCjj6TCr3wTeD3w4EGeYtoTeTpAE0Ay65CTIPUId9q0MxlmLCsXm6QqELqzp7TKaOEFGg/pihnIQ5GbAq5e8MI8+wUSSV4w1bU6QsZC+uB1rgjweeD2wThl3RreqfAWq8fin3JadILkRbtZvRRARQpfLdirjRlGrugpxH+A7OUfhBMmJbrtuK4KoWu69y7hQhVWtTW4LHJ9rNE6QXMh267UgyAuB55cZflVW9Sa5aa7PLSdImbkeShC9NfT2cPkvAscB2wN6o5iKE8QUzt7KhhDkCsBvAP11+R8CepseYA2IE8Qa0X76hhBEl8dK37Ls5+W4rc4FNgqn8WaWnSBmUEYpSiXIhoDCL2oMFYkCIFNj8yvaTpBMM7VAbSpB9gIOLDPkSVhVYr/LAxdYjdYJYoVknJ5UguiA7DZxplau9d1CHgMTx50gJjBGK0khyAbA6dGWVq/DG4CnWrntBLFCMk5PCkGUivVtcWZWsrXSw2qxbiJOEBMYo5WkEETRrLtFW1rNDrr3cpaF604QCxTjdaQQ5OBQEi7e2ur1MKst4wQp8+NJIcjngHuWGe7krN4SUMHXwTIVgmj35gjg6JGq3N4I2DoEAl51MMr/ryCFIPL/jhnGsowqhZMwHiy1E+QPwO7hyuVgZxMUaE9dJ9dPACyxSiHIkYDulrssRuBOoSry4pYLWlhOulirp5yVqOTz5sCJVgoH6FGcj6JnrcQJYoVks56VIIj2srWnXYOouu23Q1i1xXicIBYotutYeoL8NUSrKhVMLfLYcHvPYjxOEAsUV5ggKnWm65Q1iXZG9BaxECeIBYorTJBXAs/Ki2G09ssBf4nu1dyhNoKcDBwL/AS40MjHNjXC8daAHjiqHJxDlv4Tq6bya7MJvIVhgoBaCKKLV8qIoiJFY4tC9l8APANY29j40hNET7NtjEEbqm7Z1iA6W7oz8PehwAzsr/MmXZm1lKUniBbnylZhDVzqJCzbLpZu3ynzYg1b6JqTfYH9Uyenod/SE0Q+nwKouqz+lpZlOwd5MbB3aVDXsL8eoJ1LK1kJgggs1SVUBj0lMS4hOkl/aThJX8twAKXXIHcBvmLoj4UqJYDTOs9CVoYgM7C+DnwU+IEFegt0zIp4apdF6XVqicWyDDXRTpLlE9tiWpQ69SkWioCVI4gRbtWoKf0GuV5F64/ZpFiG8ztBqvmppw2kNEG0e2UZN5eGwsV76QxGUdQW4gSxQLGgjtIE0dP6kQX9nzdtHejqBKloclOGUpogGvP9gU+lDD5Dn18BugVoJU4QKyQL6amBIHJ9F+DdhTCQWW2AKBGFyGopThBLNAvoqoUgcl1JsFUD8BOAEq/lFu2gKbfXtiHMJEeOYSdI7lnMrL8mgmR2tYh6J0gR2O2MOkHssGzS5ATJi2927U6QvBA7QfLim127EyQvxE6QvPhm1+4EyQuxEyQvvtm1O0HyQuwEyYtvdu1OkLwQO0Hy4ptduxMkL8ROkLz4ZtfuBMkLsRMkL77ZtTtB8kLsBMmLb3btTpC8EDtB8uKbXbsTJC/ETpC8+GbXvswEOQ1QVv7fr/FX15ivGf5dI/xVFahc4gTJhexIepeFIEo4p0jg7wVCiBQxcp1AFl2Yul/IuBjTv62tE8QCxYI6pkqQ80M2FGW+/DhwpjGGuh+iuyEiizKvrJuo3wmSCFwt3aZGEGVU+SAgYliTom1OLgvcA3gMcK/IiXOCRAJWW/OpEETZ7FXh66jCAN4KULK7u/YchxOkJ1C1NqudID8F9gE+VhmAtwNeAuhvl6wsQVS59JzMkzZLHHeVjHZqJcipgNKsvtPI9ysD1wprCaWQjV3Etw1DaYsO7EhwvlIEOQF4dijKqLqFY8kmoS65nljWUiNBlOFkp8QHkH6weqorM8nGgRT6q3XEvKjkgv79DjgpFCU6LNHubsAbG2ysDEFeA+xh/euM1Kcn4OeBLSL7dTWvjSDKrv6iCP+EhdYDO4TKuxaFcFTiW9vGIkvMmkf5fPUpqC3jmawEQZSPd/uIScvZdEvjvMC1EESfqw8FvtgDvPWB5wKPAzbs0X5IE5VnOATYr2d2f2VGUfqiBwSjK0EQva5/PQRl474qFxDzlK39DaJPV505KGnbInlmKJeQ8/S7bQyvDusNZfpfJPraeNUqJK/+PnCzRWiM/P8VKqHvZgsp/QZRpvxHA3pSd8nOobCN1mMlRZnoXw6oduWiMatilapm6QEwWLRjYyWW+VW18LJKhW/ln76zrRKrlSSI3oJac3SJdvB0KKg5rUlUbFTVj8cog3GR37US5B3hW7emyVGQnbZBLaQUQd4fdqq6fFBdlE+G3SgLX611nAfozaYYsOxSK0G0k6EdkppE4Q6q324hJQjyrVDS7l8dDmibVw+ndSyczKxDO5wqFX5BTju1EkRPiU0ND5YsMFRw3myXZKi+sQmiA7qbAn9qGbiKlKrC0xOHOjZyf+10PqjDr8HDqZUgckzbfA8b7KGNAsv1lUY0JkG0blLF4LbvdkXQ6pBQbaYo+uzVukRRFuZSM0HkrHYunmPudZxCHRTqk2+zuG6drcckyAND5va2AemArraa9LFQK8JYB4Y6mTeV2gkiZ3W6+jLgcFPPFytbhlATxVUd0OHqe8KCdzEa9bf4YXgLLtoGjvJkCgSZOaSDIpO97QUILUuwoj6ptO5oE4Wx6xBumeTT4bKVmU9TIoiZ0xUoGuMTq6vEmkIxvgxY1n6vANaLhtDnnKf3WJ0gvaEybZibIF2RCDcEtOV7eVOP6lKm3Uad5QwWJ8hgCJMU5CbI3YEvtYxMkbIqfzZUtGX8AkBZTB4BaDMgRY4F3hzeZvrs2ypFyVwfBWFe2+J6sBPEYDYSVOQkiAjQduNOxPlCwnjnu5wVMpD8Yo3/oajg2NPtV4S7PmvqV4aUrrVT3+HrHs9efRu3tXOCDEUwrX9OgujMRvqb5HijINDHA29vMKBzqw/1hKTtro/WTiooaiFXD2+4ZF1OkGToBnXMRZCuOzQPDgGIgwYeOut+TNuO4o6AYr665LUhGURTG4XUn2ExSOB1wNOH6HKCDEEvvW8ugjwVeEPLsH4O3CB9yBfr+YwFW8SK6Xpfi61Fkdp6O73VaJxSo4Pe36bqc4KkIjesXy6CbNQScay7H7pxZyW6b6F1Tld4h/JZvWvO4JuAJ3cMQmEv3wSubzXQkIBi11R9TpBU5Ib1y0EQ/VgVqt4kxwG6SGQp+gzSekcn2G2yS4gO1u9MZHlsR1tlQNEGw40sBxmifbWlnXSXxwliPBs91eUgiK4EK7navGihapVuZ163ohuUN+DHHX4rQvjmwBMWkEOhRBa7V01mtMOmC2DR4gSJhsykQw6C6Pyg6Wlu/U0/D4DOQ3Su8stEZJRwQZsLWvjnkoOBR6Yod4KkoDa8jzVBTgSu1zKszwD3Hj7kizQoFekRDZ8rKnfwlkQbClWf/zS8XEi8oDePhejcJinhhBPEAv54HdYEaTpw06jWA5TwwEJ0vvFwC0UROpRNRb5ZyB2Ar8UqcoLEImbT3pogbd/YiknSTUgL0eL5ZxaKInVoMyDp6T9nRxlRdEU3SpwgUXCZNbYmyHZhe3R+gFq072k0aqUR1fbu2KLPurbduZix6O2ht0iUOEGi4DJrbE0Qpd1Uvtt5eS/wKKNR3wT4iZGuGDXaBLBIJN61TmsdjxMkZqrs2loTpG0evwIosbSFKGOh1gRjygtDtnkrm9G/9+gOHSO1TmxgBUqNeiwJoh0k5exqEq0ZdP/DShRj1SdVqexpcd20QaCEgIveCJcOGwLWGR2vFpsBxQli9dOJ02NJEH2jt52S6352UwmCuNGmtRZpRd55UXEeywQYMaPTWiYq+4kTJAZeu7aWBNHNuaZ8XVe0uDA0wOUaCaLioLq33lucIL2hMm1oSZC26NjNR0py0QZMjQRRoKQCJnuLE6Q3VKYNLQmi1D2KnJ2X2wDHmI46TlmNBHleSCHV2xMnSG+oTBtaEkTVr5rKJCt1q7Y2S0mNBNGDRA+U3uIE6Q2VaUNLgiiUXW+LedFOkPXBXlssVhM4Q3axrGOxZuO7W0hE2HsynSC9oTJtaEkQHRCuWZ9vzYEqJacW6xYy9VgsYdAW8dyKjxPE4qcTr8OSIKr821ZEUyffVheQSsVi6SxFQZcWohuLp8cocoLEoGXX1pIgGpV+QE035nQJSVkULaRULNZ3QmJqCx+if+/RHTpG6Sfp/afQmiBakDdlNv+AYYh6qVgsndyroOtQOQWIPpl3ggyFPa2/NUFuHdKJzo9G2UcU5m0hSeHiAw0rjkzxZBaiXFvR2R+dIBbQx+uwJojue7+tYRjWW716I6nYzh97uHxkSxuReVH4i9Y7ugXZtH3dw3RjE1251dXbKEkliLJEaGtRVyJnzmonRcUVXRYjoJ2nqP34ULZZ+WabpO0sRG1VBiHnfe82b2s7B9GlK129jZJYgjwJUHKyG0dZ8cZjILB+Sw3x/XuUfc4xvpoIolIPd01xsi9B9HZQ4rHa6man+LysfdpKrak0mXaCxpaaCKIQe8WsRUsfgugzStnudDLrUi8CeoApUVuTnBxScI45+poI0pZxciEefQjyI0BbfC51I6CrqboQ1CT7hVoeY3pQC0G0C3aXVMcXEUTFM0tXmU31bRX7tSVv0EGi3iJK7zmW1EKQ6EtSawLURZC1w6JPf12mgYC2YVV+oElUBkA1OcaSGgiSdPbRlyC6xqlIUZfpIPDvsKXblCtXDzqFv288kjulCSIstNuqsg/J0vUG0cr/9cmavWMpBA4BVOmpSXRYdtBIA2sjiHUiiTZ33gkklz2YKe0iiE4dVZzRZVoIXAhs0ZJxXWWf9XYZI2mCSCqyzst5wDqZIVWEs2qM/G6onS6CKP6/7Uk01K73z4tAWyIHWdW5iLbt1807BI5uqKZrWX+wa/i7hcq5g13sIoh2r7SL5TJNBEQEFe0s+amleu0qnKOIXNUR0Wf7ojisoWh3nQdF6+4iiFXJ4OhBeQcTBD63oOyB1pf6wS6T6IGgGMF/WTnVRZCclYmsxu96uhF4CPDRliaXBL4BbLMkIOqgVBWqTKtpLToo1OuxKaXMkmC69G7oluGtOpJO6+RdT91rThyJC8J6x/xYYhFBhNuxgGL4XaaJgM4BdJrcVkhH/0/RrlbJHUqgpCq+ymRvLn0IokCvQz0eyxz7MRWqiM6DOgwqWltrlqnF3J0TbgmK4FmkD0FkWKewzw/FWPTt6jI9BFS6QCUM2kT3ST4M3HMirmlnTHmu+mabT3KrL0FmyvU61gHiGAdNSQ55p1YEzg9brTqfaBP9Hg40rEqVazqUrUUJu/+Sy8BMbyxBZv0UFaoFnuo8XCr3IF2/GQKqa95UKnregIp1KvCxRtHZnHLsjiKpBBllcG6kKAJalxwQwo0UolJalIh7j7ETcjtBSk97/fYV16VioKpnXkJ0Gr932EQY3b4TZHTIJ2tQJ9TKjaVLWWOIFt/7AooJVABmEXGCFIF90ka1FaxKTQo81J0hy9+QSKG8W/qnU37d6Sgqls4VdcSNF0Fgw7CbJMIoC2JsGLveDCqpMCPFCUW86DDqBKltRqY9HmVP3yD80w7n7L+106kdNP1TdvUzwn+fWru7TpDaZ8jHVxQBJ0hR+N147Qg4QWqfIR9fUQScIEXhd+O1I+AEqX2GfHxFEXCCFIXfjdeOgBOk9hny8RVFwAlSFH43XjsCTpDaZ8jHVxQBJ0hR+N147Qg4QWqfIR9fUQScIEXhd+O1I/AfUXYYBVdzhucAAAAASUVORK5CYII=;" vertex="1" parent="960YlaPgqKJxBCtt3S__-1">
          <mxGeometry x="380" y="374" width="50" height="50" as="geometry" />
        </mxCell>
        <mxCell id="960YlaPgqKJxBCtt3S__-18" style="edgeStyle=orthogonalEdgeStyle;rounded=0;orthogonalLoop=1;jettySize=auto;html=1;entryX=0.5;entryY=0;entryDx=0;entryDy=0;" edge="1" parent="960YlaPgqKJxBCtt3S__-1" source="960YlaPgqKJxBCtt3S__-20" target="960YlaPgqKJxBCtt3S__-16">
          <mxGeometry relative="1" as="geometry" />
        </mxCell>
        <mxCell id="960YlaPgqKJxBCtt3S__-19" value="系统开发维护&lt;br&gt;技术支持" style="edgeLabel;html=1;align=center;verticalAlign=middle;resizable=0;points=[];" vertex="1" connectable="0" parent="960YlaPgqKJxBCtt3S__-18">
          <mxGeometry x="-0.0667" y="3" relative="1" as="geometry">
            <mxPoint as="offset" />
          </mxGeometry>
        </mxCell>
        <mxCell id="960YlaPgqKJxBCtt3S__-20" value="" style="shape=image;verticalLabelPosition=bottom;labelBackgroundColor=default;verticalAlign=top;aspect=fixed;imageAspect=0;image=data:image/png,iVBORw0KGgoAAAANSUhEUgAAAMgAAADICAYAAACtWK6eAAAAAXNSR0IArs4c6QAACvRJREFUeF7tnU2od1UVh39CEFGRAyECwQoaWANTB2JC1ERELAtqUBg0iEBEKMRZhOGggUbhQBQJgz4QB5VNaiAYlFqDPqAPGygFYhkNCnKQo2LDvS+X3o+z1977rH3WXs8BUXCts/d69no85733/19eJi4IQOCiBC6DDQQgcHECCEJ3QOASBBCE9oAAgtADEGgjwBOkjRtZSQggSJKDpsw2AgjSxo2sJAQQJMlBU2YbAQRp40ZWEgIIkuSgKbONAIK0cSMrCQEESXLQlNlGAEHauJGVhACCJDloymwjgCBt3MhKQgBBkhw0ZbYRQJA2bmQlIYAgSQ6aMtsIIEgbN7KSEECQJAdNmW0EEKSNG1lJCCBIkoOmzDYCCNLGjawkBBAkyUFTZhsBBGnjRlYSAgiS5KAps40AgrRxIysJAQRJctCU2UYAQdq4kZWEAIIkOWjKbCOAIG3cyEpCAEGSHDRlthFAkDZuZCUhgCBJDpoy2wisJshbJH1M0u2S3inp8jN/vaENkVvWa5L+deavn0j6kaTfue2Ahc4jsIogt0n6tKSPSCqSrHQ9K+lpSY9K+ttKhUWoJbogRYzPn4gRgXfPHv8q6TFE6UFoz40qyJslfUvSJ+wlh88oonxZ0jfDVxKggIiCvEPSDyTdEIDvnlu8T9JX9lyAe0vRBClS/IKDO0egCFJE4dqJQCRB3i7p1Z04RL7trZJ+HLmAI+89kiC/kfT+I8OcuLebJD03cf1ll44iyNclfWHZU+gv7EVJH5f0+/5bcYezBCII8iFJz3BsmwS+I+kzm1EEmAhEEOQpSR81VSWV17FfSXpB0q9P/vnfxnt4h79H0rWSrjv5+80NGyifICi/fecaRODogtwh6dvGWr8k6WuS/mPMO1r4vZLul/RGw8Z+KunDhnhCNwgcXZDyB88bDaf43pOnhiHl8KHfk/Qpwy5L7BOGeEIvQeDIglwp6WXD6X1Q0s8M8ZFCLa+Zj0i6M1JxR97rkQX5pKQnK+GVj118rjI2YtjbJL0iqXzEZuv6k6Srt4L493UEjixI+WBeTdM/L+kDdeWGjiqfVv5uZQXvkvSXyljCgr5i1f5isLxOlNeKDFdp+qsqCi2/E/lhRRwhGwSO/AT558mXnbYOMdNvkctHSm7ZAiLpi5K+URFHSFBByjcBiyA111sllW/jZbgelHRPRaFFjiIJVyeBoz5BymeuyivW1lV+EVh+tJvlKj/CLT/23brK61V5zeLqJHBUQWo/XpLtF2Nw6Wx4azqCWInNjUcQZ/4I4gy8czkE6QRoTUcQK7G58QjizB9BnIF3LocgnQCt6QhiJTY3HkGc+SOIM/DO5RCkE6A1HUGsxObGI4gzfwRxBt65HIJ0ArSmI4iV2Nx4BHHmn1GQr57M8n23pDc58z5drny348+SyrSW7xv2UCuI4ZbDQ5eaUp9NkP8Ob4f+G94l6eHK20QQ5GKlhJxSn0mQ8u3E8i3Fo10vnXzv/h8VG4ssyGl5oabUZxHkCkk1DVjRo7uE1H7pawVBzopy+Cn1WQS5RtJvd2ntMTetHfq2kiCn5A49pR5BxjR4710yC1LYHXZKfRZBeMXqVXj//ENOqc8iSDnehyTdvf85m1f4g6TrJb1ekbniK9bZsg83XyCTIOUgHpf02YpG9Ax5n6Q/Vi64uiCHm1KfTZDSh0WQMuS5NFsZDjHj+qWkn0t6QNLfDRtYXZCCovbPYwZs7aEZBWmnNT+zVpCZ39Vfako9gsxvessOIgjy//WEnlKPIJb2nB8bUZBTaiGn1CPI/Ka37CCyIKXOcFPqEcTSnvNjowsSbko9gsxvessOogtSag01pR5BLO05P3YFQQrFMFPqEWR+01t2sIogYabUI4ilPefHriJImCn1CDK/6S07WEWQMFPqEcTSnvNjVxEkTB0IMr/pLTsI01gbRYWpA0Es7Tk/NkxjIci+zbJKI4ymtAqXMHXwBBndwvveL0xj8QShEfYlcOG7I4gzdZ4gzsA7l0OQToDWdASxEpsbjyDO/BHEGXjncgjSCdCajiBWYnPjEcSZf0ZBMkx3b/lOeguXvafUt9QxVKFsgmSZ7m5trBFc9phSb61jqBzlZpkEyTTd3dJYo7jsMaXeUsdwOTIJkm30aG1jjeYyekp9bR27yJFJkGzT3WsbazSX2qFvYX7YkOUVa3QjjP4v1qzGGs1lVh2jz+Pc/bIIMvpVYvSBzHo1Gc1lVh2jzyOdIKXgTNPda1+xRnLZY0q9pY5dJMnyBDmFl2W6u7WxRnDZY0q9tY7hkmQTpADMMN29pbFauOw9pb6ljqGSZBRkKEDnm4X56c8GlzB1IIhzh3cuF6axEKTzpFcBuC+G8+6OIM7AeYI4A+9cDkE6AVrTEcRKbG48gjjzRxBn4J3LIUgnQGs6gliJzY1HEGf+COIMvHM5BOkEaE1HECuxufEI4swfQZyBdy6HIJ0ArekIYiU2Nx5BnPkjiDPwzuUQpBOgNR1BrMTmxiOIM38EcQbeuRyCdAK0piOIldjceARx5o8gzsA7l0OQToDWdASxEpsbjyDO/BHEGXjncgjSCdCajiBWYnPjEcSZP4I4A+9cDkE6AVrTMwrSMsXcynUr/ohT0Vu4HLGOLfamf59NkBFTzE2AK4KPMBV9BJcj1FGB2xaSSZBRU8xthLejZ09FH8Vldh3bpBsisggyesRmA+pLpswa2Tmay6w6Rp/HuftlEWT0kObRBzJr6PNoLrPqGH0eCLIb0bYbz2osBNk4ryxPkNGvEm0aXDxr1qvJaC6z6hh9HumeIKVgprtfuI1GcWG6+26ann/jvX4hNmKK+WgMR5iKPoLLEeoYfTap/ieep/BappiPBn/EqegtXI5Yx9CzyvJnkKHQJt5sryerd0lh6kAQ79boWy9MY22UGaYOBOlrWO/sMI2FIPu2xiqNMJrSKlzC1METZHQL73u/MI3FE4RG2JfAhe+OIM7UeYI4A+9cDkE6AVrTEcRKbG48gjjzRxBn4J3LIUgnQGs6gliJzY1HEGf+COIMvHM5BOkEaE1HECuxufEI4swfQZyBdy6HIJ0ArekIYiU2Nx5BnPkjiDPwzuUQpBOgNR1BrMTmxiOIM38EcQbeuRyCdAK0piOIldjceARx5o8gzsA7l0OQToDWdASxEpsbjyDO/GcK0jJN3BkPyx2UQOtUeXM5swQZMU3cXCwJSxKwTJU3A5ghyKhp4uZiSViSgGWqvBmAtyCjR12aCyZhSQK1I0/NxXsLMnpYsrlgEpYkUDv821w8gpiRkXBAAssIwivWAbtrgS0t84pVzmLUNPEFzpUSBhCwTJU3L+f9inW6wRHTxM3FkrAkActUeTOAWYKUjbZMEzcXSMKSBFqnypthzBTEvFkSIOBNAEG8ibNeKAIIEuq42Kw3AQTxJs56oQggSKjjYrPeBBDEmzjrhSKAIKGOi816E0AQb+KsF4oAgoQ6LjbrTQBBvImzXigCCBLquNisNwEE8SbOeqEIIEio42Kz3gQQxJs464UigCChjovNehNAEG/irBeKAIKEOi42600AQbyJs14oAggS6rjYrDcBBPEmznqhCCBIqONis94EEMSbOOuFIoAgoY6LzXoTQBBv4qwXigCChDouNutNAEG8ibNeKAIIEuq42Kw3AQTxJs56oQggSKjjYrPeBBDEmzjrhSKAIKGOi816E0AQb+KsF4oAgoQ6LjbrTQBBvImzXigCCBLquNisN4H/AXgUI/Z7Vj+YAAAAAElFTkSuQmCC;" vertex="1" parent="960YlaPgqKJxBCtt3S__-1">
          <mxGeometry x="380" y="4" width="50" height="50" as="geometry" />
        </mxCell>
        <mxCell id="960YlaPgqKJxBCtt3S__-21" value="SPD运营服务企业" style="text;html=1;strokeColor=none;fillColor=none;align=center;verticalAlign=middle;whiteSpace=wrap;rounded=0;" vertex="1" parent="960YlaPgqKJxBCtt3S__-1">
          <mxGeometry x="430" y="14" width="60" height="30" as="geometry" />
        </mxCell>
        <mxCell id="960YlaPgqKJxBCtt3S__-22" value="医疗供货商" style="text;html=1;strokeColor=none;fillColor=none;align=center;verticalAlign=middle;whiteSpace=wrap;rounded=0;" vertex="1" parent="960YlaPgqKJxBCtt3S__-1">
          <mxGeometry x="172.5" y="169" width="65" height="30" as="geometry" />
        </mxCell>
        <mxCell id="960YlaPgqKJxBCtt3S__-23" value="公立医院" style="text;html=1;strokeColor=none;fillColor=none;align=center;verticalAlign=middle;whiteSpace=wrap;rounded=0;" vertex="1" parent="960YlaPgqKJxBCtt3S__-1">
          <mxGeometry x="566.25" y="169" width="77.5" height="30" as="geometry" />
        </mxCell>
        <mxCell id="960YlaPgqKJxBCtt3S__-24" value="SPD信息系统" style="text;html=1;strokeColor=none;fillColor=none;align=center;verticalAlign=middle;whiteSpace=wrap;rounded=0;" vertex="1" parent="960YlaPgqKJxBCtt3S__-1">
          <mxGeometry x="366.25" y="169" width="77.5" height="30" as="geometry" />
        </mxCell>
        <mxCell id="960YlaPgqKJxBCtt3S__-25" value="融资平台" style="text;html=1;strokeColor=none;fillColor=none;align=center;verticalAlign=middle;whiteSpace=wrap;rounded=0;" vertex="1" parent="960YlaPgqKJxBCtt3S__-1">
          <mxGeometry x="375" y="434" width="60" height="30" as="geometry" />
        </mxCell>
        <mxCell id="960YlaPgqKJxBCtt3S__-26" style="edgeStyle=orthogonalEdgeStyle;rounded=0;orthogonalLoop=1;jettySize=auto;html=1;entryX=0.5;entryY=1;entryDx=0;entryDy=0;" edge="1" parent="960YlaPgqKJxBCtt3S__-1" source="960YlaPgqKJxBCtt3S__-28" target="960YlaPgqKJxBCtt3S__-17">
          <mxGeometry relative="1" as="geometry" />
        </mxCell>
        <mxCell id="960YlaPgqKJxBCtt3S__-27" value="系统开发维护&lt;br style=&quot;border-color: var(--border-color);&quot;&gt;技术支持" style="edgeLabel;html=1;align=center;verticalAlign=middle;resizable=0;points=[];" vertex="1" connectable="0" parent="960YlaPgqKJxBCtt3S__-26">
          <mxGeometry x="-0.18" y="-1" relative="1" as="geometry">
            <mxPoint y="9" as="offset" />
          </mxGeometry>
        </mxCell>
        <mxCell id="960YlaPgqKJxBCtt3S__-28" value="" style="shape=image;verticalLabelPosition=bottom;labelBackgroundColor=default;verticalAlign=top;aspect=fixed;imageAspect=0;image=data:image/png,iVBORw0KGgoAAAANSUhEUgAAAMgAAADICAYAAACtWK6eAAAAAXNSR0IArs4c6QAACvRJREFUeF7tnU2od1UVh39CEFGRAyECwQoaWANTB2JC1ERELAtqUBg0iEBEKMRZhOGggUbhQBQJgz4QB5VNaiAYlFqDPqAPGygFYhkNCnKQo2LDvS+X3o+z1977rH3WXs8BUXCts/d69no85733/19eJi4IQOCiBC6DDQQgcHECCEJ3QOASBBCE9oAAgtADEGgjwBOkjRtZSQggSJKDpsw2AgjSxo2sJAQQJMlBU2YbAQRp40ZWEgIIkuSgKbONAIK0cSMrCQEESXLQlNlGAEHauJGVhACCJDloymwjgCBt3MhKQgBBkhw0ZbYRQJA2bmQlIYAgSQ6aMtsIIEgbN7KSEECQJAdNmW0EEKSNG1lJCCBIkoOmzDYCCNLGjawkBBAkyUFTZhsBBGnjRlYSAgiS5KAps40AgrRxIysJAQRJctCU2UYAQdq4kZWEAIIkOWjKbCOAIG3cyEpCAEGSHDRlthFAkDZuZCUhgCBJDpoy2wisJshbJH1M0u2S3inp8jN/vaENkVvWa5L+deavn0j6kaTfue2Ahc4jsIogt0n6tKSPSCqSrHQ9K+lpSY9K+ttKhUWoJbogRYzPn4gRgXfPHv8q6TFE6UFoz40qyJslfUvSJ+wlh88oonxZ0jfDVxKggIiCvEPSDyTdEIDvnlu8T9JX9lyAe0vRBClS/IKDO0egCFJE4dqJQCRB3i7p1Z04RL7trZJ+HLmAI+89kiC/kfT+I8OcuLebJD03cf1ll44iyNclfWHZU+gv7EVJH5f0+/5bcYezBCII8iFJz3BsmwS+I+kzm1EEmAhEEOQpSR81VSWV17FfSXpB0q9P/vnfxnt4h79H0rWSrjv5+80NGyifICi/fecaRODogtwh6dvGWr8k6WuS/mPMO1r4vZLul/RGw8Z+KunDhnhCNwgcXZDyB88bDaf43pOnhiHl8KHfk/Qpwy5L7BOGeEIvQeDIglwp6WXD6X1Q0s8M8ZFCLa+Zj0i6M1JxR97rkQX5pKQnK+GVj118rjI2YtjbJL0iqXzEZuv6k6Srt4L493UEjixI+WBeTdM/L+kDdeWGjiqfVv5uZQXvkvSXyljCgr5i1f5isLxOlNeKDFdp+qsqCi2/E/lhRRwhGwSO/AT558mXnbYOMdNvkctHSm7ZAiLpi5K+URFHSFBByjcBiyA111sllW/jZbgelHRPRaFFjiIJVyeBoz5BymeuyivW1lV+EVh+tJvlKj/CLT/23brK61V5zeLqJHBUQWo/XpLtF2Nw6Wx4azqCWInNjUcQZ/4I4gy8czkE6QRoTUcQK7G58QjizB9BnIF3LocgnQCt6QhiJTY3HkGc+SOIM/DO5RCkE6A1HUGsxObGI4gzfwRxBt65HIJ0ArSmI4iV2Nx4BHHmn1GQr57M8n23pDc58z5drny348+SyrSW7xv2UCuI4ZbDQ5eaUp9NkP8Ob4f+G94l6eHK20QQ5GKlhJxSn0mQ8u3E8i3Fo10vnXzv/h8VG4ssyGl5oabUZxHkCkk1DVjRo7uE1H7pawVBzopy+Cn1WQS5RtJvd2ntMTetHfq2kiCn5A49pR5BxjR4710yC1LYHXZKfRZBeMXqVXj//ENOqc8iSDnehyTdvf85m1f4g6TrJb1ekbniK9bZsg83XyCTIOUgHpf02YpG9Ax5n6Q/Vi64uiCHm1KfTZDSh0WQMuS5NFsZDjHj+qWkn0t6QNLfDRtYXZCCovbPYwZs7aEZBWmnNT+zVpCZ39Vfako9gsxvessOIgjy//WEnlKPIJb2nB8bUZBTaiGn1CPI/Ka37CCyIKXOcFPqEcTSnvNjowsSbko9gsxvessOogtSag01pR5BLO05P3YFQQrFMFPqEWR+01t2sIogYabUI4ilPefHriJImCn1CDK/6S07WEWQMFPqEcTSnvNjVxEkTB0IMr/pLTsI01gbRYWpA0Es7Tk/NkxjIci+zbJKI4ymtAqXMHXwBBndwvveL0xj8QShEfYlcOG7I4gzdZ4gzsA7l0OQToDWdASxEpsbjyDO/BHEGXjncgjSCdCajiBWYnPjEcSZf0ZBMkx3b/lOeguXvafUt9QxVKFsgmSZ7m5trBFc9phSb61jqBzlZpkEyTTd3dJYo7jsMaXeUsdwOTIJkm30aG1jjeYyekp9bR27yJFJkGzT3WsbazSX2qFvYX7YkOUVa3QjjP4v1qzGGs1lVh2jz+Pc/bIIMvpVYvSBzHo1Gc1lVh2jzyOdIKXgTNPda1+xRnLZY0q9pY5dJMnyBDmFl2W6u7WxRnDZY0q9tY7hkmQTpADMMN29pbFauOw9pb6ljqGSZBRkKEDnm4X56c8GlzB1IIhzh3cuF6axEKTzpFcBuC+G8+6OIM7AeYI4A+9cDkE6AVrTEcRKbG48gjjzRxBn4J3LIUgnQGs6gliJzY1HEGf+COIMvHM5BOkEaE1HECuxufEI4swfQZyBdy6HIJ0ArekIYiU2Nx5BnPkjiDPwzuUQpBOgNR1BrMTmxiOIM38EcQbeuRyCdAK0piOIldjceARx5o8gzsA7l0OQToDWdASxEpsbjyDO/BHEGXjncgjSCdCajiBWYnPjEcSZP4I4A+9cDkE6AVrTMwrSMsXcynUr/ohT0Vu4HLGOLfamf59NkBFTzE2AK4KPMBV9BJcj1FGB2xaSSZBRU8xthLejZ09FH8Vldh3bpBsisggyesRmA+pLpswa2Tmay6w6Rp/HuftlEWT0kObRBzJr6PNoLrPqGH0eCLIb0bYbz2osBNk4ryxPkNGvEm0aXDxr1qvJaC6z6hh9HumeIKVgprtfuI1GcWG6+26ann/jvX4hNmKK+WgMR5iKPoLLEeoYfTap/ieep/BappiPBn/EqegtXI5Yx9CzyvJnkKHQJt5sryerd0lh6kAQ79boWy9MY22UGaYOBOlrWO/sMI2FIPu2xiqNMJrSKlzC1METZHQL73u/MI3FE4RG2JfAhe+OIM7UeYI4A+9cDkE6AVrTEcRKbG48gjjzRxBn4J3LIUgnQGs6gliJzY1HEGf+COIMvHM5BOkEaE1HECuxufEI4swfQZyBdy6HIJ0ArekIYiU2Nx5BnPkjiDPwzuUQpBOgNR1BrMTmxiOIM38EcQbeuRyCdAK0piOIldjceARx5o8gzsA7l0OQToDWdASxEpsbjyDO/GcK0jJN3BkPyx2UQOtUeXM5swQZMU3cXCwJSxKwTJU3A5ghyKhp4uZiSViSgGWqvBmAtyCjR12aCyZhSQK1I0/NxXsLMnpYsrlgEpYkUDv821w8gpiRkXBAAssIwivWAbtrgS0t84pVzmLUNPEFzpUSBhCwTJU3L+f9inW6wRHTxM3FkrAkActUeTOAWYKUjbZMEzcXSMKSBFqnypthzBTEvFkSIOBNAEG8ibNeKAIIEuq42Kw3AQTxJs56oQggSKjjYrPeBBDEmzjrhSKAIKGOi816E0AQb+KsF4oAgoQ6LjbrTQBBvImzXigCCBLquNisNwEE8SbOeqEIIEio42Kz3gQQxJs464UigCChjovNehNAEG/irBeKAIKEOi42600AQbyJs14oAggS6rjYrDcBBPEmznqhCCBIqONis94EEMSbOOuFIoAgoY6LzXoTQBBv4qwXigCChDouNutNAEG8ibNeKAIIEuq42Kw3AQTxJs56oQggSKjjYrPeBBDEmzjrhSKAIKGOi816E0AQb+KsF4oAgoQ6LjbrTQBBvImzXigCCBLquNisN4H/AXgUI/Z7Vj+YAAAAAElFTkSuQmCC;" vertex="1" parent="960YlaPgqKJxBCtt3S__-1">
          <mxGeometry x="380" y="524" width="50" height="50" as="geometry" />
        </mxCell>
        <mxCell id="960YlaPgqKJxBCtt3S__-29" value="天阳" style="text;html=1;strokeColor=none;fillColor=none;align=center;verticalAlign=middle;whiteSpace=wrap;rounded=0;" vertex="1" parent="960YlaPgqKJxBCtt3S__-1">
          <mxGeometry x="375" y="574" width="60" height="46" as="geometry" />
        </mxCell>
        <mxCell id="960YlaPgqKJxBCtt3S__-30" value="银行" style="text;html=1;strokeColor=none;fillColor=none;align=center;verticalAlign=middle;whiteSpace=wrap;rounded=0;" vertex="1" parent="960YlaPgqKJxBCtt3S__-1">
          <mxGeometry x="175" y="424" width="60" height="30" as="geometry" />
        </mxCell>
        <mxCell id="960YlaPgqKJxBCtt3S__-31" value="1 供货" style="text;html=1;align=center;verticalAlign=middle;resizable=0;points=[];autosize=1;strokeColor=none;fillColor=none;" vertex="1" parent="960YlaPgqKJxBCtt3S__-1">
          <mxGeometry x="275" y="110" width="60" height="30" as="geometry" />
        </mxCell>
        <mxCell id="960YlaPgqKJxBCtt3S__-32" value="1 下单" style="text;html=1;align=center;verticalAlign=middle;resizable=0;points=[];autosize=1;strokeColor=none;fillColor=none;" vertex="1" parent="960YlaPgqKJxBCtt3S__-1">
          <mxGeometry x="480" y="110" width="60" height="30" as="geometry" />
        </mxCell>
        <mxCell id="960YlaPgqKJxBCtt3S__-33" value="下单&lt;br&gt;退换货&lt;br&gt;收货确认&lt;br&gt;支付" style="text;html=1;align=left;verticalAlign=top;resizable=0;points=[];autosize=1;strokeColor=#666666;fillColor=#f5f5f5;fontColor=#333333;" vertex="1" parent="960YlaPgqKJxBCtt3S__-1">
          <mxGeometry x="643.75" y="122" width="70" height="70" as="geometry" />
        </mxCell>
        <mxCell id="960YlaPgqKJxBCtt3S__-34" value="产品维护&lt;br&gt;发货&lt;br&gt;物流&lt;br&gt;开票" style="text;html=1;align=right;verticalAlign=top;resizable=0;points=[];autosize=1;strokeColor=#666666;fillColor=#f5f5f5;fontColor=#333333;" vertex="1" parent="960YlaPgqKJxBCtt3S__-1">
          <mxGeometry x="90" y="122" width="70" height="70" as="geometry" />
        </mxCell>
        <mxCell id="960YlaPgqKJxBCtt3S__-35" value="0 收款账户" style="text;html=1;align=center;verticalAlign=middle;resizable=0;points=[];autosize=1;strokeColor=none;fillColor=none;rotation=35;" vertex="1" parent="960YlaPgqKJxBCtt3S__-1">
          <mxGeometry x="305.25" y="73" width="80" height="30" as="geometry" />
        </mxCell>
        <mxCell id="960YlaPgqKJxBCtt3S__-36" value="" style="group" vertex="1" connectable="0" parent="960YlaPgqKJxBCtt3S__-1">
          <mxGeometry x="254" y="37" width="65" height="69" as="geometry" />
        </mxCell>
        <mxCell id="960YlaPgqKJxBCtt3S__-37" value="" style="shape=image;verticalLabelPosition=bottom;labelBackgroundColor=default;verticalAlign=top;aspect=fixed;imageAspect=0;image=data:image/png,iVBORw0KGgoAAAANSUhEUgAAAOEAAADICAYAAAAeEIaEAAAAAXNSR0IArs4c6QAADqpJREFUeF7tnQvQbWMZx39mpJpKxi2XVEKRpouUcotCzsglVG7JZdAoTY3ikHIMEkq5VVSIMl00JJXrYZBcUlGpVFQuxyWEJpNI8z+tfdo+33f2Xnuv9b7P2u//ndmzmbPW+zzP73n/31p7ve96n0VwMwETyEpgkazWbdwETACL0IPABDITsAgzJ8DmTcAi9BgwgcwELMLMCbB5E7AIPQZMIDMBizBzAmzeBCxCjwETyEzAIsycAJs3AYvQY8AEMhOwCDMnwOZNoA0RLgasACzf9720UZtABwncDegzr++78TCaEOGmwB7AmpXolmrcS3doAnEI9ER5PXAucBnwn3HcG1WEKwF7Au8FVh/HAZ9rAh0n8GglxkuBucBddeOpK8ItgB2qz6J1jfl4E5hwAk8CFwBHAjcMG2sdER4AHD1sxz7OBAom8FglRIlxYBtGhM8FTqp+9w3s0AeYgAksIHBlJcaLF8ZkkAhfA1wHPMdgTcAERiZwHLD/TGcvTIRzgENHNusTTcAE+gmcCuwzHZKZRLgOcK0ZmoAJNErgU8DhU3ucSYT3Ass2at6dmYAJiMDewFf6UUwnwrOBHc3LBEygNQLrAdf0ep8qQk3Af7U10+7YBExABLTSZtvpRKjlZjcCLzUnEzCB1gnsCpwlK/1Xwt2B01o3bQMmYAIicDOg29J/9ItQl8htzMcETCAZgcOAOT0Rrgbcmsy0DZmACYjARcDmPREeCHzGXEzABJISeARYsifCPwCrJjVvYyZgAiKwoUS4EXC5eZiACWQhMFsi3KX3qDSLCzZqAmUTOF8inA0cVTYHR28C2QjcJBGeDOybzQUbNoGyCcyTCL8PbFU2B0dvAtkIPCkRaqnaWtlcsGETKJyARHgfsEzhHBy+CWQjIBE+lc26DZuACcxfwG0ReiCYQEYCFmFG+DZtAiJgEXocmEBmAhZh5gTYvAlYhB4DJpCZgEWYOQE2bwIWoceACWQmYBFmToDNm4BF6DFgApkJWISZE2DzJmARegyYQGYCkyrC24De5yFglb7P4pmZ27wJPI3ApIjwV8DVwIXA+QNyvDKwBrBd9Xmhx4QJ5CTQdRHOraoIa+PiUdqKfWLccJQOfI4JjEugqyK8CTgeOH1cAH3nf7jqs8Eu3ZUJDCbQRRF+E/gocP/g8GofsUG185yL4tRG5xNGJdA1EX4O+NiowdY4z3U5asDyoeMR6JIIvw3sMF64tc4+Adiv1hk+2ARGINAVEerJp24VU7cfAbNSG7W9sgh0QYS/Brau5v1SZ0eFU691nY7U2Muy1wUR7tHwU9C6Gd4EuKTuST7eBIYlEF2Emgd8+7DBtHjcOdV8Yosm3HWpBKKLcFtg1In4JnO6I3B2kx26LxPoEYgswiuBtwZJ1WLAb/zbMEg2JsyNyCL8SLAVLKpkrIrGbibQKIHIInwJcEej0Y7X2frAVeN14bNN4JkEoorwCmDjYAlbHrg7mE92ZwIIRBXhecC7AvK9F1g2oF92qcMEoorwDGD3gFyvA94U0C+71GECUUX4hepNiWhoNU2h6Qo3E2iMQFQRHgbMaSzK5jqST4c21517MoG4BWH0wq6mKKK1rwO7RnPK/nSbQNQr4ZnA+wOi1RSFpircTKAxAlFF+ANgq8aibK6ju4AVmuvOPZlA3NtRLRF7dbAELd3SlhrBwrQ7qQlEvRKKw1rAL1IDWYg9vVL1tUD+2JUJIRBZhEcChwTirA2mdgrkT0pX9EqZNtbS54GUhke0pb1ktajiRUFehVtoGJFF+FvgVSMmoY3T/gJoPWtJTb/NTwUu6HDQ7wT2BraMGkNkEYqZNlo6KQC8DwEnBvAjpQunAXumNNiyrWOAj7dsY6Tuo4vw98A6wMMjRdfMSbq10XK1VzbTXSd60b46GwH/6oS3wzupzaJ3G/7wNEdGF6EofBI4Ig2Oaa3od+nhGe3nML1PdRuaw3abNl8X7GHf/Fi7IMInqjcqcvwu0VVYb/jrzfqS2trAjRMasKp0LREpti6IULz+Brw48e3RosCfCnwY0/vjHGmcNunL5dWtdpN9jtVXV0SoIP8IrDZWtPVO1u8iXQlLbK8Fbp7QwDXNooUXYVqXRChomrzXFoi6pWizacPhNds0ELxvLVI/K7iPo7j3CkAP+0K1rolQ8O4B3gdc2gJJzUt+p3ABCus3KsYtIM7apYoJHZvVg2mMd1GEvTC0+5k+TU1f6E3+/S3ABaNE9RonaW50M+CiaAKUP10WofxXmWwJcZyNebWXjSbj3xYxQZl90hsj8zL70IT5Tat1vys10VnTfXRdhD0edWrW6/G0JqK1sbC+NXfkNjMB7XJwSkfFKNEdUP2RDZvjSRHhVMC3VVWc9P0g8LK+z3JhsxHXsX9WDzR+B9wa180FnqnSsh6s6Tf+86L7O6kijM7d/pnAAgIWoQeDCWQmYBFmToDNm4BF6DFgApkJWISZE2DzJmARegyYQGYCFmHmBNi8CViEHgMmkJmARZg5ATZvAhahx4AJZCZgEWZOgM2bgEU4WWNAC9m1SbHWzKqUwC2TFd7Q0axY7cKwKrBB9EpaUUX4OKDt6TSIVKJahVhUL17fKbbhU336l1efVaq3+aNXYzqoeq1r6JFa0IHaP/VoYKmIMUcTod54kPi08Wy0v+IS5iZVpd5ZwZKpjW0PDOZTNHc2B34czSn5E0mEem9N4vtrRFBTfFLJbL0IvG4AX/8MrBzAjy64ELLIawQR3gfs3NKeMW0PjAgbA2tr98+2HeiE9L8ecHW0WHKL8IfAu4HHooGp4c9emXerfgdwcQ1/Sz70BcAj0QDkFKFuP+dEAzKiPzkLiGqnAD28chuOgHYHCFVXJJcIfwm8fjhmnTkq156Wk7IZU6pEa3uOlJtID4wrhwh1O6ANeMLdFgykNfgAPbAZZ+e3wRaeeYTq7uWo0zGKr7nPWQbQM4hQLYcIJ3V3515ivwR8IGGWJ+m2vm1sW0T8g5VahCUMGO3wpXqGz297RFX9qyTAWyJu754o/jpmzo9YsTe1CHUvrsIuk96OAmYnDFJX330T2uuiKZXNVvnvcC2lCM8AtNV8CU1rF1XVaMmEwZ4HfCLgSqOECKY1pTuT4wBN5YRsKUWoHa9VcLOUpqIqWoSQsv29WvSgVTS64whXgSgRjN66Xy3g1hLDxRPZHclMKhFqMKw+kofdPWk74Jzuum/PUxFIJcLvAdunCiqQnQcS35IGCt2uDEsglQhPAvYb1qkJOk6r9rV6380EZiSQSoQHA3piWFrTxL0m8N1MILsI9VRUT0dLayd76qC0lNePN9WVsNSV/kdU0wb1M+MziiGQSoQbA1cUQ/X/geotkUMLjNsh1yBgEdaANcKhFuEI0Eo7xSJsN+MWYbt8J6J3i7DdNFqE7fKdiN4twnbTaBG2y3ciercI201jThE+AWgN6Z3thhiud+00oLWji4bzbAaHLMJ2M5VDhFqZpCfRWq/773bDC9v7swAt3t60miJaNqynCfcd9RRF+6NA297rjYE72jfVKQt6cUCveO0S1WtfCdvNTKor4cPAEu2G0vneT6w2bA4XiEXYbkpSiXCPqnxAu9F0v3ftz6pb1FDNImw3HSlEWOprYqNkTmULfjLKiW2eYxG2Sfd/mxu3vWxNv3c+3W4YE9P7s4FHAT24CdMswnZTkUKE2sBI5QTchiNwI7DWcIemOcoibJdzChGW+prYqJlT1S9tPh2mWYTtpiKFCFWRSZWZ3AYTUI1JFZsN1SzCdtORQoR64hd2O7928dbufWtAW0OGahZhu+lIIUJFoAczekDjNjOBxYDbAS1rC9UswnbTkUqEikJ12VXp2G16AlcB60eEk0qEqkGRuz1VLdNr04/pbLQ9RdEfj2otqH59uLmwNqEP6PuDwOejTUv0+5xKhBlzUKTp2wB9VIvv/gIJrFy9SaG3KcLdfk7Nh0VY4Ah1yLEIWISx8mFvCiRgERaYdIcci4BFGCsf9qZAAhZhgUl3yLEIWISx8mFvCiRgERaYdIcci4BFGCsf9qZAAhZhgUl3yLEIWISx8mFvCiRgERaYdIcci4BFGCsf9qZAAhLhXV1Y5FpgbhxyGQQekwh/BryhjHgdpQmEI3C7RKh30LYM55odMoEyCFwjEZ4C7F1GvI7SBMIROEYiTLkFQzgCdsgEMhPYWCJcA7glsyM2bwIlEtD2iytKhGrXA28skYJjNoGMBM4Adu+J8GDgyIzO2LQJlEhgZ+DsngjXBm4okYJjNoFMBLQF44ay3ROh/vtcYJtMDtmsCZRGYHtAZe2eJsJNgEtKI+F4TSADgafVlOy/EsqXsyLX9s4AyyZNoA0Cug3V7ej8NlWEbwZ+2oZV92kCJjCfwNHA7H4WU0Wof1NxkYMMzARMoHEC3wXeM7XX6USoY04HdmvcBXdoAmUTWA64d1gR6riLgM3KZuboTaAxAuvO9FNvpithz/LlwEaNueGOTKBMAocsbDHMIBEKmUptuRxzmYPHUY9PQKXZvriwboYRoc7fB/jy+P64BxMohsCDgAT4rUERDytC9bMTcKy3whiE1P9uAlxYvSJ43TAs6ohQ/S1fXRX3shiHwetjCiPwc+B44Mw6cdcVYa9vi7EOZR876QTurMR3AvB43WBHFWHPzpLArL6P/t/NBEogoDLk5wCXAXOBh0YNelwRTrWreUVNaehKqVrhve+lRnXQ55lAZgL3APMAffc+FwNXNOVX0yJsyi/3YwLFELAIi0m1A41KwCKMmhn7VQwBi7CYVDvQqAQswqiZsV/FELAIi0m1A41KwCKMmhn7VQwBi7CYVDvQqAQswqiZsV/FELAIi0m1A41KwCKMmhn7VQwBi7CYVDvQqAQswqiZsV/FELAIi0m1A41KwCKMmhn7VQwBi7CYVDvQqAQswqiZsV/FELAIi0m1A41KwCKMmhn7VQwBi7CYVDvQqAQswqiZsV/FELAIi0m1A41KwCKMmhn7VQwBi7CYVDvQqAQswqiZsV/FEPgvTGQP7xZN4MUAAAAASUVORK5CYII=;" vertex="1" parent="960YlaPgqKJxBCtt3S__-36">
          <mxGeometry x="8.5" width="50" height="44.45" as="geometry" />
        </mxCell>
        <mxCell id="960YlaPgqKJxBCtt3S__-38" value="结算账户" style="text;html=1;strokeColor=none;fillColor=none;align=center;verticalAlign=middle;whiteSpace=wrap;rounded=0;" vertex="1" parent="960YlaPgqKJxBCtt3S__-36">
          <mxGeometry y="39" width="65" height="30" as="geometry" />
        </mxCell>
        <mxCell id="960YlaPgqKJxBCtt3S__-39" value="3 申请融资" style="edgeLabel;html=1;align=center;verticalAlign=middle;resizable=0;points=[];rotation=55;" vertex="1" connectable="0" parent="960YlaPgqKJxBCtt3S__-1">
          <mxGeometry x="306.25" y="260" as="geometry" />
        </mxCell>
        <mxCell id="960YlaPgqKJxBCtt3S__-40" value="5 资金服务&amp;amp;风控服务" style="edgeLabel;html=1;align=center;verticalAlign=middle;resizable=0;points=[];" vertex="1" connectable="0" parent="960YlaPgqKJxBCtt3S__-1">
          <mxGeometry x="300.0033333333335" y="424" as="geometry" />
        </mxCell>
        <mxCell id="960YlaPgqKJxBCtt3S__-41" value="7 还款监控" style="text;html=1;align=center;verticalAlign=middle;resizable=0;points=[];autosize=1;strokeColor=none;fillColor=none;" vertex="1" parent="960YlaPgqKJxBCtt3S__-1">
          <mxGeometry x="246.5" y="7" width="80" height="30" as="geometry" />
        </mxCell>
        <mxCell id="960YlaPgqKJxBCtt3S__-42" value="资金服务&lt;br&gt;风控服务" style="text;html=1;align=right;verticalAlign=top;resizable=0;points=[];autosize=1;strokeColor=#666666;fillColor=#f5f5f5;fontColor=#333333;" vertex="1" parent="960YlaPgqKJxBCtt3S__-1">
          <mxGeometry x="90" y="374" width="70" height="40" as="geometry" />
        </mxCell>
        <mxCell id="960YlaPgqKJxBCtt3S__-43" style="edgeStyle=orthogonalEdgeStyle;rounded=0;orthogonalLoop=1;jettySize=auto;html=1;entryX=0.883;entryY=0.54;entryDx=0;entryDy=0;entryPerimeter=0;" edge="1" parent="960YlaPgqKJxBCtt3S__-1" source="960YlaPgqKJxBCtt3S__-44" target="960YlaPgqKJxBCtt3S__-17">
          <mxGeometry relative="1" as="geometry" />
        </mxCell>
        <mxCell id="960YlaPgqKJxBCtt3S__-44" value="" style="shape=image;verticalLabelPosition=bottom;labelBackgroundColor=default;verticalAlign=top;aspect=fixed;imageAspect=0;image=http://yun.unionpay.com/static/image/up-logo.png;" vertex="1" parent="960YlaPgqKJxBCtt3S__-1">
          <mxGeometry x="580" y="378" width="150" height="46" as="geometry" />
        </mxCell>
        <mxCell id="960YlaPgqKJxBCtt3S__-45" value="IaaS支持" style="text;html=1;align=left;verticalAlign=top;resizable=0;points=[];autosize=1;strokeColor=#666666;fillColor=#f5f5f5;fontColor=#333333;" vertex="1" parent="960YlaPgqKJxBCtt3S__-1">
          <mxGeometry x="643.75" y="426" width="70" height="30" as="geometry" />
        </mxCell>
        <mxCell id="iGWOjmSPxeSo9ettbl0N-0" value="IaaS支持" style="text;html=1;align=left;verticalAlign=top;resizable=0;points=[];autosize=1;strokeColor=#666666;fillColor=#f5f5f5;fontColor=#333333;" vertex="1" parent="960YlaPgqKJxBCtt3S__-1">
          <mxGeometry x="435" y="534" width="70" height="30" as="geometry" />
        </mxCell>
      </root>
    </mxGraphModel>
  </diagram>
</mxfile>
